<svg width="449" height="504" viewBox="0 0 449 504" fill="none" xmlns="http://www.w3.org/2000/svg">
<g clip-path="url(#clip0)">
<path d="M260.047 390.254L257.091 398.319L243.428 435.511C238.302 439.133 231.829 441.459 224.57 441.459C223.712 441.459 222.68 441.249 221.805 441.197C214.213 440.672 206.936 437.348 201.897 433.115L205.973 388.26L206.271 385.006C228.296 393.543 253.977 392.109 260.047 390.254Z" fill="#A0505A"/>
<path d="M260.047 390.254L254.257 405.999C236.588 408.396 210.697 393.946 205.991 388.26L206.288 385.006C228.296 393.543 253.977 392.109 260.047 390.254Z" fill="#73325A"/>
<path d="M243.708 435.459L239.527 479.246C238.775 490.792 229.923 499.627 219.426 499.627C218.954 499.627 218.482 499.609 217.992 499.574C206.866 498.734 198.486 488.255 199.273 476.185L201.81 437.488L202.072 433.342C204.312 435.441 206.918 437.243 209.805 438.643C213.426 440.392 217.467 441.529 221.788 441.862C222.663 441.932 223.52 441.967 224.377 441.967C226.861 441.967 229.293 441.687 231.602 441.162C231.672 441.144 231.76 441.127 231.83 441.109C236.151 440.095 240.104 438.223 243.393 435.686C243.515 435.616 243.62 435.546 243.708 435.459Z" fill="white" stroke="#FFCF2D" stroke-width="0.874696" stroke-miterlimit="10"/>
<path d="M239.702 438.118L236.745 473.158C236.116 482.92 228.628 490.39 219.741 490.39C219.339 490.39 218.937 490.372 218.534 490.337C209.14 489.62 202.037 480.768 202.702 470.552L205.029 435.686" stroke="#FFCF2D" stroke-width="0.874696" stroke-miterlimit="10"/>
<path d="M231.795 440.724C229.485 441.197 226.879 441.284 224.395 441.284C223.537 441.284 222.68 441.249 221.805 441.197C217.484 440.899 213.426 439.85 209.822 438.24L208.668 432.572C207.933 430.158 209.77 427.726 212.306 427.814L229.1 428.304C231.235 428.356 232.862 430.211 232.669 432.327L231.795 440.724Z" fill="#FFCF2D"/>
<path d="M231.62 440.55L229.503 467.158C229.135 472.318 224.237 476.132 219.619 475.292L219.251 475.257C212.674 474.05 207.635 467.193 208.493 459.845L209.822 438.223C213.443 439.832 217.484 440.882 221.805 441.179C222.68 441.249 223.537 441.267 224.395 441.267C226.879 441.284 229.31 441.022 231.62 440.55Z" fill="#FFCF2D"/>
<path d="M229.048 469.38L209.892 465.006C207.95 464.569 208.09 461.752 210.085 461.507L228.401 459.356C230.587 459.093 230.885 456.032 228.786 455.367L211.239 449.804C208.563 448.947 208.772 445.098 211.537 444.538L231.637 441.057C231.637 441.057 216.627 442.369 209.84 438.625" stroke="white" stroke-width="0.874696" stroke-miterlimit="10" stroke-linecap="round" stroke-linejoin="round"/>
<path d="M296.19 291.851L260.047 390.254C253.977 392.109 225.339 394.558 197.384 381.595L219.374 279.868C221.421 264.473 234.541 252.962 250.093 252.962H266.258C286.568 252.945 301.403 272.188 296.19 291.851Z" fill="#FE5244"/>
<path d="M264.246 379.758C258.175 381.612 227.089 383.887 199.133 370.924" stroke="white" stroke-width="1.04964" stroke-miterlimit="10" stroke-linecap="round"/>
<path d="M308.243 392.196L304.604 398.652L281.32 439.395C272.345 442.946 261.762 444.258 252.28 442.264L251.09 441.932C246.402 440.952 241.609 438.328 238.215 435.389L255.201 389.992C255.201 389.992 255.219 389.992 255.236 389.992C261.097 391.934 281.25 397.392 308.243 392.196Z" fill="#A0505A"/>
<path d="M308.243 392.196L300.563 405.719C270.998 410.442 254.239 392.651 254.239 392.651L255.219 390.01C261.097 391.934 281.25 397.392 308.243 392.196Z" fill="#73325A"/>
<path d="M358.066 307.456L317.742 390.307C283.612 398.844 261.044 391.934 255.219 390.01L297.414 277.156C300.301 270.316 305.094 264.666 311.025 260.729C316.955 256.793 324.023 254.572 331.44 254.572C359.535 254.572 371.641 282.842 358.066 307.456Z" fill="#FE5244"/>
<path d="M322.273 381.385C288.142 389.922 264.876 383.012 259.05 381.088" stroke="white" stroke-width="1.04964" stroke-miterlimit="10" stroke-linecap="round"/>
<path d="M297.414 277.156L235.398 444.328" stroke="white" stroke-width="1.04964" stroke-miterlimit="10"/>
<path d="M280.97 439.517L279.605 443.104L264.141 483.567C259.715 497.44 245.16 505.679 232.372 502.513L231.672 502.286C222.698 500.064 216.995 489.253 220.511 479.701L238.18 436.526L238.547 435.634C240.769 437.628 243.358 439.272 246.245 440.462C247.784 441.092 249.411 441.599 251.108 441.967L252.297 442.299C257.318 443.349 262.496 443.541 267.605 442.946C272.188 442.386 276.701 441.232 280.97 439.517Z" fill="white" stroke="#FFCF2D" stroke-width="0.874696" stroke-miterlimit="10"/>
<path d="M275.967 441.389L262.409 477.217C258.7 488.833 246.507 495.743 235.801 493.084L235.223 492.891C227.701 491.02 222.925 481.975 225.864 473.963L240.839 437.611" stroke="#FFCF2D" stroke-width="0.874696" stroke-miterlimit="10" stroke-linecap="round"/>
<path d="M270.771 437.523L267.587 442.911C262.496 443.506 257.318 443.314 252.28 442.264L251.09 441.932C249.393 441.582 247.766 441.074 246.227 440.427L247.487 431.68C247.784 429.581 249.813 428.164 251.895 428.601L268.339 432.047C270.823 432.555 272.066 435.354 270.771 437.523Z" fill="#FFCF2D"/>
<path d="M267.587 442.911L267.5 443.051L259.277 464.779C257.021 471.829 249.638 476.01 243.131 474.4L242.781 474.278C238.215 473.141 235.311 467.648 237.113 462.802L246.192 440.759L246.245 440.427C247.784 441.057 249.411 441.564 251.108 441.932L252.297 442.264C257.318 443.331 262.496 443.506 267.587 442.911Z" fill="#FFCF2D"/>
<path d="M236.588 466.668L255.481 468.715C257.808 468.96 258.788 465.811 256.723 464.709L242.011 456.854C239.999 455.787 240.839 452.743 243.113 452.848L261.692 453.687C264.193 453.81 265.103 450.451 262.899 449.279L246.227 440.392C246.227 440.392 254.817 444.433 267.535 442.859" stroke="white" stroke-width="0.874696" stroke-miterlimit="10" stroke-linecap="round" stroke-linejoin="round"/>
<path d="M192.241 258.158C263.486 258.158 321.241 200.403 321.241 129.158C321.241 57.9128 263.486 0.157471 192.241 0.157471C120.996 0.157471 63.2405 57.9128 63.2405 129.158C63.2405 200.403 120.996 258.158 192.241 258.158Z" fill="#D0F0E4"/>
<path d="M149.031 258.175C95.097 240.122 56.2255 189.179 56.2255 129.158" stroke="#FFCF2D" stroke-width="1.22457" stroke-miterlimit="10"/>
<path d="M192.241 212.481C238.259 212.481 275.564 175.176 275.564 129.158C275.564 83.1393 238.259 45.8341 192.241 45.8341C146.222 45.8341 108.917 83.1393 108.917 129.158C108.917 175.176 146.222 212.481 192.241 212.481Z" stroke="white" stroke-width="1.74939" stroke-miterlimit="10" stroke-linecap="round" stroke-dasharray="5.25 5.25"/>
<path d="M192.241 45.8516V59.7243" stroke="white" stroke-width="2.62409" stroke-miterlimit="10" stroke-linecap="round"/>
<path d="M192.241 198.591V212.481" stroke="white" stroke-width="2.62409" stroke-miterlimit="10" stroke-linecap="round"/>
<path d="M133.321 70.2381L143.135 80.0697" stroke="white" stroke-width="2.62409" stroke-miterlimit="10" stroke-linecap="round"/>
<path d="M241.329 178.263L251.143 188.077" stroke="white" stroke-width="2.62409" stroke-miterlimit="10" stroke-linecap="round"/>
<path d="M108.917 129.158H122.807" stroke="white" stroke-width="2.62409" stroke-miterlimit="10" stroke-linecap="round"/>
<path d="M261.674 129.158H275.547" stroke="white" stroke-width="2.62409" stroke-miterlimit="10" stroke-linecap="round"/>
<path d="M133.321 188.077L143.135 178.263" stroke="white" stroke-width="2.62409" stroke-miterlimit="10" stroke-linecap="round"/>
<path d="M241.329 80.0697L251.143 70.2382" stroke="white" stroke-width="2.62409" stroke-miterlimit="10" stroke-linecap="round"/>
<path d="M192.241 217.729C180.292 217.729 168.694 215.385 157.76 210.767C147.211 206.306 137.747 199.921 129.612 191.786C121.478 183.651 115.093 174.187 110.632 163.638C106.013 152.722 103.669 141.124 103.669 129.158C103.669 104.614 113.186 82.0815 130.312 66.5294L137.362 74.2967C130.067 80.9269 124.697 88.2044 120.533 97.966C116.352 107.78 114.148 118.556 114.148 129.14C114.148 139.689 116.212 149.905 120.288 159.527C124.224 168.816 129.857 177.179 137.03 184.351C144.202 191.524 152.547 197.157 161.854 201.075C171.475 205.151 181.692 207.216 192.241 207.216C202.79 207.216 213.006 205.151 222.628 201.075C231.917 197.139 240.279 191.506 247.452 184.351C254.624 177.179 260.257 168.834 264.193 159.527C268.269 149.905 270.334 139.689 270.334 129.14C270.334 118.644 268.199 108.445 263.983 98.8057C259.925 89.5339 254.117 81.1719 246.734 73.9819C239.369 66.8093 230.832 61.1588 221.351 57.2052C211.572 53.1291 202.825 51.4147 192.276 51.4147V40.9183C204.224 40.9183 214.336 42.9126 225.392 47.5135C236.098 51.9745 245.737 58.3423 254.064 66.4595C262.426 74.6116 269.004 84.0758 273.605 94.5897C278.398 105.558 280.847 117.174 280.847 129.123C280.847 141.071 278.503 152.67 273.885 163.603C269.424 174.152 263.039 183.616 254.904 191.751C246.769 199.886 237.305 206.271 226.756 210.732C215.788 215.385 204.189 217.729 192.241 217.729Z" fill="#D0F0E4" stroke="white" stroke-width="2.62409" stroke-miterlimit="10" stroke-linecap="round" stroke-linejoin="round"/>
<path d="M148.576 84.6706L203.559 141.071" stroke="#FE5244" stroke-width="1.22457" stroke-miterlimit="10" stroke-linecap="round"/>
<path d="M192.836 134.091C195.241 134.091 197.192 132.141 197.192 129.735C197.192 127.329 195.241 125.379 192.836 125.379C190.43 125.379 188.48 127.329 188.48 129.735C188.48 132.141 190.43 134.091 192.836 134.091Z" fill="#D0F0E4" stroke="white" stroke-width="2.62409" stroke-miterlimit="10" stroke-linecap="round"/>
<path d="M216.592 37.0522L217.38 31.4366C217.764 28.8475 220.371 27.2031 222.873 27.9728L228.366 29.6347C230.867 30.387 232.127 33.2035 231.007 35.5827L228.348 40.9358" stroke="white" stroke-width="2.62409" stroke-miterlimit="10" stroke-linecap="round"/>
<path d="M179.103 503.16V277.751H383.134V503.16" stroke="#66B0F0" stroke-width="1.04964" stroke-miterlimit="10"/>
<path d="M390.359 285.291H171.878C166.945 285.291 162.938 281.285 162.938 276.351V242.291C162.938 237.358 166.945 233.351 171.878 233.351H390.359C395.293 233.351 399.299 237.358 399.299 242.291V276.351C399.299 281.285 395.293 285.291 390.359 285.291Z" fill="white" stroke="#66B0F0" stroke-width="1.04964" stroke-miterlimit="10"/>
<path d="M390.884 279.168H171.353C166.42 279.168 162.414 275.162 162.414 270.229V236.168C162.414 231.235 166.42 227.229 171.353 227.229H390.884C395.818 227.229 399.824 231.235 399.824 236.168V270.229C399.824 275.162 395.818 279.168 390.884 279.168Z" fill="#66B0F0"/>
<path d="M389.52 415.533V388.837C389.52 379.741 396.902 372.358 405.999 372.358C415.096 372.358 422.478 379.741 422.478 388.837V415.533" stroke="#FFCF2D" stroke-width="1.04964" stroke-miterlimit="10"/>
<path d="M373.233 503.318H434.619C441.774 503.318 447.582 497.51 447.582 490.355V404.844C447.582 397.689 441.774 391.881 434.619 391.881H373.233C366.078 391.881 360.27 397.689 360.27 404.844V490.355C360.27 497.527 366.078 503.318 373.233 503.318Z" fill="#3FB1B5"/>
<path d="M447.565 411.737C447.565 403.55 440.917 396.902 432.73 396.902H384.901C376.714 396.902 370.066 403.55 370.066 411.737V470.831" stroke="white" stroke-width="1.04964" stroke-miterlimit="10"/>
<path d="M434.812 503.318H392.949C385.898 503.318 380.195 497.615 380.195 490.565V414.414C380.195 407.364 385.898 401.661 392.949 401.661H434.812C441.862 401.661 447.565 407.364 447.565 414.414V490.565C447.565 497.615 441.862 503.318 434.812 503.318Z" fill="white" stroke="#FFCF2D" stroke-width="1.04964" stroke-miterlimit="10"/>
<path d="M398.739 421.534V394.838C398.739 385.741 406.122 378.359 415.218 378.359C424.315 378.359 431.698 385.741 431.698 394.838V421.534" stroke="#FFCF2D" stroke-width="1.04964" stroke-miterlimit="10"/>
<path d="M434.672 493.294H393.491C390.15 493.294 387.438 490.582 387.438 487.241V455.769C387.438 452.428 390.15 449.716 393.491 449.716H434.672C438.013 449.716 440.725 452.428 440.725 455.769V487.241C440.742 490.582 438.03 493.294 434.672 493.294Z" fill="#FFCF2D"/>
<path d="M372.691 470.832H367.512" stroke="#FFCF2D" stroke-width="1.04964" stroke-miterlimit="10"/>
<path d="M361.075 416.093C361.075 441.599 333.189 479.439 342.793 491.562C351.96 503.125 361.075 491.544 361.075 491.544V416.093Z" fill="white" stroke="#3FB1B5" stroke-width="1.04964" stroke-miterlimit="10"/>
<path d="M390.727 461.402H436.998" stroke="white" stroke-width="0.874696" stroke-miterlimit="10" stroke-linecap="round"/>
<path d="M402.063 421.009H395.415V424.193H402.063V421.009Z" stroke="#FFCF2D" stroke-width="1.04964" stroke-miterlimit="10"/>
<path d="M434.899 421.009H428.251V424.193H434.899V421.009Z" stroke="#FFCF2D" stroke-width="1.04964" stroke-miterlimit="10"/>
<path d="M390.727 463.537V461.402" stroke="white" stroke-width="0.874696" stroke-miterlimit="10" stroke-linecap="round"/>
<path d="M394.925 463.537V461.402" stroke="white" stroke-width="0.874696" stroke-miterlimit="10" stroke-linecap="round"/>
<path d="M399.141 463.537V461.402" stroke="white" stroke-width="0.874696" stroke-miterlimit="10" stroke-linecap="round"/>
<path d="M403.34 463.537V461.402" stroke="white" stroke-width="0.874696" stroke-miterlimit="10" stroke-linecap="round"/>
<path d="M407.556 463.537V461.402" stroke="white" stroke-width="0.874696" stroke-miterlimit="10" stroke-linecap="round"/>
<path d="M411.755 463.537V461.402" stroke="white" stroke-width="0.874696" stroke-miterlimit="10" stroke-linecap="round"/>
<path d="M416.163 463.537V461.402" stroke="white" stroke-width="0.874696" stroke-miterlimit="10" stroke-linecap="round"/>
<path d="M420.379 463.537V461.402" stroke="white" stroke-width="0.874696" stroke-miterlimit="10" stroke-linecap="round"/>
<path d="M424.385 463.537V461.402" stroke="white" stroke-width="0.874696" stroke-miterlimit="10" stroke-linecap="round"/>
<path d="M428.584 463.537V461.402" stroke="white" stroke-width="0.874696" stroke-miterlimit="10" stroke-linecap="round"/>
<path d="M432.8 463.537V461.402" stroke="white" stroke-width="0.874696" stroke-miterlimit="10" stroke-linecap="round"/>
<path d="M436.998 463.537V461.402" stroke="white" stroke-width="0.874696" stroke-miterlimit="10" stroke-linecap="round"/>
<path d="M395.608 470.831C394.47 470.831 393.613 469.834 393.753 468.715L394.68 461.385H396.535L397.462 468.715C397.619 469.834 396.745 470.831 395.608 470.831Z" fill="white" stroke="#3FB1B5" stroke-width="1.04964" stroke-miterlimit="10"/>
<path d="M326.769 227.211H248.484V268.619H326.769V227.211Z" fill="white"/>
<path d="M317.602 259.785C318.501 259.785 319.229 259.056 319.229 258.158C319.229 257.259 318.501 256.531 317.602 256.531C316.704 256.531 315.975 257.259 315.975 258.158C315.975 259.056 316.704 259.785 317.602 259.785Z" fill="#FE5244" stroke="#FE5244" stroke-width="0.874696" stroke-miterlimit="10"/>
<path d="M311.584 259.785C312.483 259.785 313.211 259.056 313.211 258.158C313.211 257.259 312.483 256.531 311.584 256.531C310.686 256.531 309.957 257.259 309.957 258.158C309.957 259.056 310.686 259.785 311.584 259.785Z" fill="white" stroke="#FE5244" stroke-width="0.874696" stroke-miterlimit="10"/>
<path d="M305.584 259.785C306.482 259.785 307.211 259.056 307.211 258.158C307.211 257.259 306.482 256.531 305.584 256.531C304.685 256.531 303.957 257.259 303.957 258.158C303.957 259.056 304.685 259.785 305.584 259.785Z" fill="white" stroke="#FE5244" stroke-width="0.874696" stroke-miterlimit="10"/>
<path d="M317.602 253.714C318.501 253.714 319.229 252.986 319.229 252.087C319.229 251.189 318.501 250.46 317.602 250.46C316.704 250.46 315.975 251.189 315.975 252.087C315.975 252.986 316.704 253.714 317.602 253.714Z" fill="#FE5244" stroke="#FE5244" stroke-width="0.874696" stroke-miterlimit="10"/>
<path d="M311.584 253.714C312.483 253.714 313.211 252.986 313.211 252.087C313.211 251.189 312.483 250.46 311.584 250.46C310.686 250.46 309.957 251.189 309.957 252.087C309.957 252.986 310.686 253.714 311.584 253.714Z" fill="white" stroke="#FE5244" stroke-width="0.874696" stroke-miterlimit="10"/>
<path d="M305.584 253.714C306.482 253.714 307.211 252.986 307.211 252.087C307.211 251.189 306.482 250.46 305.584 250.46C304.685 250.46 303.957 251.189 303.957 252.087C303.957 252.986 304.685 253.714 305.584 253.714Z" fill="white" stroke="#FE5244" stroke-width="0.874696" stroke-miterlimit="10"/>
<path d="M317.602 241.609C318.501 241.609 319.229 240.88 319.229 239.982C319.229 239.083 318.501 238.355 317.602 238.355C316.704 238.355 315.975 239.083 315.975 239.982C315.975 240.88 316.704 241.609 317.602 241.609Z" fill="white" stroke="#FE5244" stroke-width="0.874696" stroke-miterlimit="10"/>
<path d="M311.584 241.609C312.483 241.609 313.211 240.88 313.211 239.982C313.211 239.083 312.483 238.355 311.584 238.355C310.686 238.355 309.957 239.083 309.957 239.982C309.957 240.88 310.686 241.609 311.584 241.609Z" fill="#FE5244" stroke="#FE5244" stroke-width="0.874696" stroke-miterlimit="10"/>
<path d="M305.584 241.609C306.482 241.609 307.211 240.88 307.211 239.982C307.211 239.083 306.482 238.355 305.584 238.355C304.685 238.355 303.957 239.083 303.957 239.982C303.957 240.88 304.685 241.609 305.584 241.609Z" fill="white" stroke="#FE5244" stroke-width="0.874696" stroke-miterlimit="10"/>
<path d="M317.602 247.661C318.501 247.661 319.229 246.933 319.229 246.035C319.229 245.136 318.501 244.408 317.602 244.408C316.704 244.408 315.975 245.136 315.975 246.035C315.975 246.933 316.704 247.661 317.602 247.661Z" fill="white" stroke="#FE5244" stroke-width="0.874696" stroke-miterlimit="10"/>
<path d="M311.584 247.661C312.483 247.661 313.211 246.933 313.211 246.035C313.211 245.136 312.483 244.408 311.584 244.408C310.686 244.408 309.957 245.136 309.957 246.035C309.957 246.933 310.686 247.661 311.584 247.661Z" fill="white" stroke="#FE5244" stroke-width="0.874696" stroke-miterlimit="10"/>
<path d="M305.584 247.661C306.482 247.661 307.211 246.933 307.211 246.035C307.211 245.136 306.482 244.408 305.584 244.408C304.685 244.408 303.957 245.136 303.957 246.035C303.957 246.933 304.685 247.661 305.584 247.661Z" fill="#FE5244" stroke="#FE5244" stroke-width="0.874696" stroke-miterlimit="10"/>
<path d="M270.194 247.661C271.092 247.661 271.821 246.933 271.821 246.035C271.821 245.136 271.092 244.408 270.194 244.408C269.295 244.408 268.567 245.136 268.567 246.035C268.567 246.933 269.295 247.661 270.194 247.661Z" fill="#FE5244" stroke="#FE5244" stroke-width="0.874696" stroke-miterlimit="10"/>
<path d="M264.176 247.661C265.074 247.661 265.803 246.933 265.803 246.035C265.803 245.136 265.074 244.408 264.176 244.408C263.277 244.408 262.549 245.136 262.549 246.035C262.549 246.933 263.277 247.661 264.176 247.661Z" fill="white" stroke="#FE5244" stroke-width="0.874696" stroke-miterlimit="10"/>
<path d="M258.175 235.556C259.074 235.556 259.802 234.827 259.802 233.929C259.802 233.03 259.074 232.302 258.175 232.302C257.277 232.302 256.548 233.03 256.548 233.929C256.548 234.827 257.277 235.556 258.175 235.556Z" fill="white" stroke="#FE5244" stroke-width="0.874696" stroke-miterlimit="10"/>
<path d="M270.194 241.609C271.092 241.609 271.821 240.88 271.821 239.982C271.821 239.083 271.092 238.355 270.194 238.355C269.295 238.355 268.567 239.083 268.567 239.982C268.567 240.88 269.295 241.609 270.194 241.609Z" fill="white" stroke="#FE5244" stroke-width="0.874696" stroke-miterlimit="10"/>
<path d="M264.176 241.609C265.074 241.609 265.803 240.88 265.803 239.982C265.803 239.083 265.074 238.355 264.176 238.355C263.277 238.355 262.549 239.083 262.549 239.982C262.549 240.88 263.277 241.609 264.176 241.609Z" fill="white" stroke="#FE5244" stroke-width="0.874696" stroke-miterlimit="10"/>
<path d="M258.175 241.609C259.074 241.609 259.802 240.88 259.802 239.982C259.802 239.083 259.074 238.355 258.175 238.355C257.277 238.355 256.548 239.083 256.548 239.982C256.548 240.88 257.277 241.609 258.175 241.609Z" fill="#FE5244" stroke="#FE5244" stroke-width="0.874696" stroke-miterlimit="10"/>
<path d="M292.936 253.714C293.834 253.714 294.563 252.986 294.563 252.087C294.563 251.189 293.834 250.46 292.936 250.46C292.037 250.46 291.309 251.189 291.309 252.087C291.309 252.986 292.037 253.714 292.936 253.714Z" fill="white" stroke="#FE5244" stroke-width="0.874696" stroke-miterlimit="10"/>
<path d="M286.918 253.714C287.816 253.714 288.545 252.986 288.545 252.087C288.545 251.189 287.816 250.46 286.918 250.46C286.019 250.46 285.291 251.189 285.291 252.087C285.291 252.986 286.019 253.714 286.918 253.714Z" fill="white" stroke="#FE5244" stroke-width="0.874696" stroke-miterlimit="10"/>
<path d="M280.917 253.714C281.816 253.714 282.544 252.986 282.544 252.087C282.544 251.189 281.816 250.46 280.917 250.46C280.019 250.46 279.291 251.189 279.291 252.087C279.291 252.986 280.019 253.714 280.917 253.714Z" fill="#FE5244" stroke="#FE5244" stroke-width="0.874696" stroke-miterlimit="10"/>
<path d="M292.936 241.609C293.834 241.609 294.563 240.88 294.563 239.982C294.563 239.083 293.834 238.355 292.936 238.355C292.037 238.355 291.309 239.083 291.309 239.982C291.309 240.88 292.037 241.609 292.936 241.609Z" fill="#FE5244" stroke="#FE5244" stroke-width="0.874696" stroke-miterlimit="10"/>
<path d="M286.918 241.609C287.816 241.609 288.545 240.88 288.545 239.982C288.545 239.083 287.816 238.355 286.918 238.355C286.019 238.355 285.291 239.083 285.291 239.982C285.291 240.88 286.019 241.609 286.918 241.609Z" fill="white" stroke="#FE5244" stroke-width="0.874696" stroke-miterlimit="10"/>
<path d="M280.917 241.609C281.816 241.609 282.544 240.88 282.544 239.982C282.544 239.083 281.816 238.355 280.917 238.355C280.019 238.355 279.291 239.083 279.291 239.982C279.291 240.88 280.019 241.609 280.917 241.609Z" fill="white" stroke="#FE5244" stroke-width="0.874696" stroke-miterlimit="10"/>
<path d="M292.936 247.661C293.834 247.661 294.563 246.933 294.563 246.035C294.563 245.136 293.834 244.408 292.936 244.408C292.037 244.408 291.309 245.136 291.309 246.035C291.309 246.933 292.037 247.661 292.936 247.661Z" fill="white" stroke="#FE5244" stroke-width="0.874696" stroke-miterlimit="10"/>
<path d="M286.918 247.661C287.816 247.661 288.545 246.933 288.545 246.035C288.545 245.136 287.816 244.408 286.918 244.408C286.019 244.408 285.291 245.136 285.291 246.035C285.291 246.933 286.019 247.661 286.918 247.661Z" fill="#FE5244" stroke="#FE5244" stroke-width="0.874696" stroke-miterlimit="10"/>
<path d="M280.917 247.661C281.816 247.661 282.544 246.933 282.544 246.035C282.544 245.136 281.816 244.408 280.917 244.408C280.019 244.408 279.291 245.136 279.291 246.035C279.291 246.933 280.019 247.661 280.917 247.661Z" fill="white" stroke="#FE5244" stroke-width="0.874696" stroke-miterlimit="10"/>
<path d="M379.531 236.623H298.796L298.866 227.211H250.233L236.081 185.75L220.931 213.653L263.703 250.146L243.253 277.856L192.731 245.475C183.581 239.509 178.071 229.345 178.071 218.429C178.071 212.971 179.453 207.583 182.112 202.807L205.694 160.157C215.595 142.261 234.419 131.169 254.852 131.169H330.583C343.178 131.169 354.987 137.292 362.247 147.579L398.966 198.696C410.39 214.528 399.054 236.623 379.531 236.623Z" fill="white" stroke="#FE5244" stroke-width="1.04964" stroke-miterlimit="10"/>
<path d="M259.837 268.304C253.854 276.352 246.489 280.97 243.358 278.643C240.227 276.317 242.536 267.919 248.501 259.872C254.484 251.825 261.149 247.557 264.281 249.883C267.412 252.21 265.803 260.275 259.837 268.304Z" fill="#FE5244"/>
<path d="M261.377 131.239L285.606 164.81L307.963 131.239H261.377Z" stroke="#FE5244" stroke-width="1.04964" stroke-miterlimit="10"/>
<path d="M285.868 177.039C287.269 177.039 288.405 175.903 288.405 174.502C288.405 173.101 287.269 171.965 285.868 171.965C284.467 171.965 283.332 173.101 283.332 174.502C283.332 175.903 284.467 177.039 285.868 177.039Z" stroke="#FE5244" stroke-width="1.04964" stroke-miterlimit="10"/>
<path d="M285.868 193.133C287.269 193.133 288.405 191.997 288.405 190.596C288.405 189.195 287.269 188.06 285.868 188.06C284.467 188.06 283.332 189.195 283.332 190.596C283.332 191.997 284.467 193.133 285.868 193.133Z" stroke="#FE5244" stroke-width="1.04964" stroke-miterlimit="10"/>
<path d="M336.548 183.616L348.112 201.547H299.479V237.235" stroke="#FE5244" stroke-width="1.04964" stroke-miterlimit="10"/>
<path d="M348.112 201.547H360.865" stroke="#FE5244" stroke-width="1.04964" stroke-miterlimit="10"/>
<path d="M299.478 237.235C303.382 237.235 306.546 229.113 306.546 219.094C306.546 209.075 303.382 200.953 299.478 200.953C295.575 200.953 292.411 209.075 292.411 219.094C292.411 229.113 295.575 237.235 299.478 237.235Z" fill="#FE5244"/>
<path d="M306.476 201.6C310.377 201.6 313.544 209.437 313.544 219.094C313.544 228.751 310.377 236.588 306.476 236.588" stroke="#FE5244" stroke-width="1.04964" stroke-miterlimit="10"/>
<path d="M237.917 274.462C234.786 272.135 237.095 263.738 243.061 255.691C249.044 247.644 255.359 243.375 258.49 245.702" stroke="#FE5244" stroke-width="1.04964" stroke-miterlimit="10"/>
<path d="M261.552 116.737C261.674 99.4879 273.133 94.7646 291.956 96.269C312.249 97.896 303.939 125.816 315.206 126.743C319.929 127.128 325.317 121.775 332.49 117.367C338.402 113.378 345.522 111.051 353.202 111.051C373.688 111.051 390.307 127.671 390.307 148.156C390.307 157.585 385.916 166.7 380.125 173.242C380.125 173.242 358.241 142.505 349.756 139.619C333.067 133.951 327.766 148.611 316.185 150.885C314.663 151.182 313.036 151.27 311.252 151.06C294.773 149.171 297.922 122.003 297.922 122.003C293.653 120.253 292.726 115.827 292.568 113.151C292.656 111.856 292.603 110.999 292.603 110.999C292.603 110.999 292.498 111.874 292.568 113.151C292.218 118.189 289.14 130.242 271.978 125.921V131.782C271.978 167.277 272.555 174.169 265.365 183.091C264.298 184.421 257.161 195.145 269.949 200.935C286.428 208.388 274.795 227.998 274.795 227.998H239.929C239.929 227.998 219.234 224.325 217.432 205.536C214.86 178.683 248.536 171.493 252.927 170.671C244.39 169.359 236.046 160.944 236.046 150.745C236.046 141.701 242.991 134.056 250.128 131.537C250.146 131.537 250.146 131.537 250.163 131.519C250.373 131.449 250.583 131.379 250.793 131.309C256.373 129.385 260.485 125.152 261.394 120.026L261.552 116.737Z" fill="#FFCF2D"/>
<path d="M292.656 116.929C292.638 116.929 292.638 116.929 292.656 116.929C292.411 116.929 292.219 116.719 292.219 116.492L292.358 107.553C292.358 107.308 292.551 107.115 292.796 107.115C293.041 107.115 293.233 107.325 293.233 107.553L293.093 116.492C293.076 116.737 292.883 116.929 292.656 116.929Z" fill="#A0505A"/>
<path d="M272.748 127.111C272.678 127.111 272.608 127.093 272.538 127.058C268.304 124.837 267.412 122.562 267.36 122.475C267.272 122.247 267.395 122.003 267.622 121.915C267.849 121.828 268.094 121.95 268.182 122.16C268.199 122.195 269.057 124.242 272.94 126.289C273.15 126.394 273.238 126.673 273.133 126.883C273.063 127.023 272.905 127.111 272.748 127.111Z" fill="#A0505A"/>
<path d="M331.51 111.909C334.408 111.909 336.758 109.559 336.758 106.66C336.758 103.762 334.408 101.412 331.51 101.412C328.611 101.412 326.262 103.762 326.262 106.66C326.262 109.559 328.611 111.909 331.51 111.909Z" fill="#FFCF2D"/>
<path d="M269.739 194.9C272.067 194.9 273.955 193.012 273.955 190.684C273.955 188.355 272.067 186.468 269.739 186.468C267.41 186.468 265.523 188.355 265.523 190.684C265.523 193.012 267.41 194.9 269.739 194.9Z" fill="#FFCF2D"/>
<path d="M296.294 254.134L296.277 257.318C296.277 257.598 296.207 257.878 296.102 258.123L288.439 275.197C287.302 277.663 284.836 279.238 282.124 279.238H265.732C261.639 279.238 257.668 277.856 254.449 275.337L253.871 274.882L244.11 267.202C245.194 264.858 246.682 262.356 248.518 259.889C252.017 255.166 256.023 251.632 259.347 249.97H282.876C284.748 254.151 278.66 257.51 278.66 257.51H289.297L293.145 253.329C294.142 252.245 295.944 252.717 296.294 254.134Z" fill="#A0505A"/>
<path d="M290.242 270.001C289.105 272.468 286.638 274.042 283.926 274.042H270.124" stroke="#73325A" stroke-width="0.874696" stroke-miterlimit="10" stroke-linecap="round"/>
<path d="M292.656 264.596C291.519 267.062 289.052 268.637 286.341 268.637H272.538" stroke="#73325A" stroke-width="0.874696" stroke-miterlimit="10" stroke-linecap="round"/>
<path d="M295.262 258.578C294.125 261.044 291.659 262.619 288.947 262.619H275.144" stroke="#73325A" stroke-width="0.874696" stroke-miterlimit="10" stroke-linecap="round"/>
<path d="M259.662 267.954C258.105 270.491 255.814 273.133 253.872 274.882L253.854 274.865L244.093 267.185C245.177 264.841 246.664 262.339 248.501 259.872C252 255.149 256.006 251.615 259.33 249.953H264.386C264.841 253.924 264.176 260.607 259.662 267.954Z" fill="#73325A"/>
<path d="M276.439 213.986C276.439 213.986 284.941 191.296 288.23 191.751C291.501 192.188 280.9 212.306 280.9 212.306L276.439 213.986Z" fill="#FE5244"/>
<path d="M306.546 219.094C306.546 228.803 303.572 236.71 299.846 237.2C299.723 237.217 299.601 237.217 299.479 237.217H264.841C263.791 237.217 262.951 236.378 262.951 235.328V224.272C262.951 221.14 264.876 218.341 267.797 217.239L282.299 211.746C283.612 211.256 285.011 210.994 286.411 210.994H305.794C306.266 213.443 306.546 216.19 306.546 219.094Z" fill="#A0505A"/>
<path d="M278.171 219.689L267.22 223.835C265.015 224.674 263.563 226.791 263.563 229.135" stroke="#73325A" stroke-width="0.874696" stroke-miterlimit="10" stroke-linecap="round"/>
<path d="M278.171 226.301L267.22 230.447C265.015 231.287 263.563 233.404 263.563 235.748" stroke="#73325A" stroke-width="0.874696" stroke-miterlimit="10" stroke-linecap="round"/>
<path d="M277.576 232.477L266.625 236.623" stroke="#73325A" stroke-width="0.874696" stroke-miterlimit="10" stroke-linecap="round"/>
<path d="M306.546 219.094C306.546 228.803 303.572 236.71 299.846 237.2C299.723 237.218 299.601 237.218 299.478 237.218C295.577 237.218 292.411 229.1 292.411 219.076C292.411 216.4 292.813 213.356 293.233 210.977H305.706C306.144 213.373 306.546 216.417 306.546 219.094Z" fill="#73325A"/>
<path d="M303.642 125.904C303.642 126.918 303.292 127.881 302.715 128.633C302.12 129.403 301.298 129.962 300.301 130.225L297.887 130.855V133.549C297.887 140.056 292.621 145.322 286.113 145.322H283.786C277.296 145.322 272.048 140.074 272.013 133.601V125.904C289.175 130.242 292.254 118.171 292.603 113.133C292.743 115.687 293.601 119.816 297.379 121.723L298.044 121.548C300.878 120.848 303.642 122.982 303.642 125.904Z" fill="#A0505A"/>
<path d="M289.052 128.073C289.052 128.073 292.621 127.723 294.685 129.49" stroke="#73325A" stroke-width="0.874696" stroke-miterlimit="10" stroke-linecap="round"/>
<path d="M275.197 129.07C275.197 129.07 277.821 127.653 280.76 128.948C282.509 129.717 283.664 133.846 283.699 139.304" stroke="#73325A" stroke-width="0.874696" stroke-miterlimit="10" stroke-linecap="round"/>
<path d="M278.556 134.406C278.933 134.406 279.238 133.818 279.238 133.094C279.238 132.369 278.933 131.782 278.556 131.782C278.179 131.782 277.873 132.369 277.873 133.094C277.873 133.818 278.179 134.406 278.556 134.406Z" fill="#73325A"/>
<path d="M291.256 134.406C291.633 134.406 291.939 133.818 291.939 133.094C291.939 132.369 291.633 131.782 291.256 131.782C290.88 131.782 290.574 132.369 290.574 133.094C290.574 133.818 290.88 134.406 291.256 134.406Z" fill="#73325A"/>
<path d="M298.551 127.601C298.551 126.079 299.618 124.767 301.105 124.452" stroke="#73325A" stroke-width="0.874696" stroke-miterlimit="10" stroke-linecap="round"/>
<path d="M158.442 396.395C160.524 401.293 159.912 411.37 149.433 411.23C136.435 411.055 136.768 376.032 136.768 376.032C136.768 376.032 150.045 376.644 158.442 396.395Z" fill="#3FB1B5"/>
<path d="M37.3845 384.551C34.1307 391.444 38.5041 396.99 42.1779 395.083C48.5981 391.741 51.3622 383.152 51.3622 383.152C51.3622 383.152 40.306 378.394 37.3845 384.551Z" fill="#3FB1B5"/>
<path d="M158.268 396.395C151.305 382.452 143.45 375.822 130.872 375.822C109.687 375.822 96.0942 398.494 93.5051 427.814C93.1902 424.175 89.429 420.449 89.1491 416.67C85.3704 366.463 112.888 346.66 133.531 346.66C150.43 346.642 154.646 370.924 158.268 396.395Z" fill="white" stroke="#3FB1B5" stroke-width="1.04964" stroke-miterlimit="10"/>
<path d="M89.1665 428.514C85.3879 378.306 114.183 358.503 133.199 358.503C143.748 358.503 150.36 364.731 155.451 378.901" stroke="#3FB1B5" stroke-width="1.04964" stroke-miterlimit="10"/>
<path d="M9.90157 325.474C4.25103 331.073 -5.96543 354.025 6.68268 358.573C19.3308 363.139 34.1481 318.197 34.1481 318.197C34.1481 318.197 23.4244 312.057 9.90157 325.474Z" fill="#FFCF2D" stroke="#FFCF2D" stroke-width="1.04964" stroke-miterlimit="10"/>
<path d="M114.183 429.756L109.669 454.23C107.395 466.51 96.689 475.432 84.1983 475.432C71.7076 475.432 61.0013 466.51 58.7271 454.23L54.2137 429.756C54.2137 428.531 54.4936 427.359 54.9835 426.309C58.6047 429.948 70.3781 432.607 84.3208 432.607C98.071 432.607 109.687 430.018 113.501 426.484C113.938 427.482 114.183 428.601 114.183 429.756Z" fill="#D0F0E4"/>
<path d="M111.226 423.948C111.226 427.412 99.1731 430.211 84.3033 430.211C69.4334 430.211 57.3801 427.412 57.3801 423.948C57.3801 423.668 57.4501 423.405 57.6075 423.143C59.3219 420.064 70.623 417.702 84.3033 417.702C98.4034 417.702 109.967 420.222 111.121 423.423C111.191 423.598 111.226 423.773 111.226 423.948Z" fill="#66B0F0"/>
<path d="M93.9599 387.438C93.9599 401.923 91.9656 415.603 88.4143 427.639H78.1978C78.1628 366.813 55.9805 317.532 28.6375 317.532C21.535 317.532 14.7824 320.856 8.67697 326.839C26.6607 305.794 34.1306 300.021 44.3996 300.021C68.9261 300.021 93.9599 339.155 93.9599 387.438Z" fill="white" stroke="#FFCF2D" stroke-width="1.04964" stroke-miterlimit="10"/>
<path d="M20.118 314.016C25.961 309.765 29.7222 307.788 36.4224 307.788C63.7829 307.788 91.4758 353.447 84.1808 427.621" stroke="#FFCF2D" stroke-width="1.04964" stroke-miterlimit="10"/>
<path d="M84.2508 427.621C84.2508 427.621 85.7552 370.504 54.6335 370.311C46.3939 370.259 38.6791 383.327 38.6791 383.327C38.6791 383.327 75.1189 373.81 76.9208 427.621H84.2508Z" fill="white" stroke="#3FB1B5" stroke-width="1.04964" stroke-miterlimit="10"/>
<path d="M80.4371 427.796C80.8744 411.702 76.8158 372.866 45.3618 374.947" stroke="#3FB1B5" stroke-width="1.04964" stroke-miterlimit="10"/>
<path d="M38.5391 329.148C40.1333 329.148 41.4256 327.856 41.4256 326.262C41.4256 324.668 40.1333 323.375 38.5391 323.375C36.945 323.375 35.6526 324.668 35.6526 326.262C35.6526 327.856 36.945 329.148 38.5391 329.148Z" fill="white" stroke="#FFCF2D" stroke-width="1.04964" stroke-miterlimit="10"/>
<path d="M106.573 411.702C108.901 411.702 110.789 409.814 110.789 407.486C110.789 405.158 108.901 403.27 106.573 403.27C104.245 403.27 102.357 405.158 102.357 407.486C102.357 409.814 104.245 411.702 106.573 411.702Z" fill="white" stroke="#FFCF2D" stroke-width="1.04964" stroke-miterlimit="10"/>
<path d="M99.5754 330.373C103.971 330.373 107.535 326.809 107.535 322.413C107.535 318.017 103.971 314.453 99.5754 314.453C95.1794 314.453 91.6157 318.017 91.6157 322.413C91.6157 326.809 95.1794 330.373 99.5754 330.373Z" fill="#D0F0E4"/>
<path d="M120.481 503.16L113.431 468.05C112.836 465.058 108.847 464.359 107.273 466.983C97.5461 483.165 71.1303 483.27 61.2463 467.14L61.0713 466.843C59.4794 464.254 55.5257 464.954 54.931 467.927L47.8634 503.143" stroke="#66B0F0" stroke-width="1.04964" stroke-miterlimit="10"/>
<path d="M84.1808 479.194V503.318" stroke="#66B0F0" stroke-width="1.04964" stroke-miterlimit="10"/>
<path d="M31.8564 503.16H266.345" stroke="#66B0F0" stroke-width="1.04964" stroke-miterlimit="10"/>
</g>
<defs>
<clipPath id="clip0">
<rect width="448.194" height="504" fill="white"/>
</clipPath>
</defs>
</svg>
