<svg width="328" height="185" viewBox="0 0 328 185" fill="none" xmlns="http://www.w3.org/2000/svg">
<path d="M311.729 151.92V183.526H264.182L273.446 134.992C273.149 136.908 279.079 140.5 287.194 144.103C290.106 145.396 293.354 146.68 296.822 147.896C302.417 149.87 307.572 151.211 311.729 151.92C311.72 151.92 311.729 151.92 311.729 151.92Z" fill="#9A3B82"/>
<path d="M311.729 142.416V150.876C307.572 150.167 302.427 148.835 296.813 146.862C283.582 142.215 273.398 136.477 273.973 133.899C273.982 133.861 273.992 133.823 274.002 133.794C274.893 131.274 286.61 133.018 300.022 137.722C304.333 139.236 308.223 140.797 311.49 142.301C311.567 142.34 311.643 142.378 311.729 142.416Z" fill="#FFCF2D"/>
<path d="M305.206 69.1835C300.569 69.1835 296.813 72.939 296.813 77.5664V100.54C296.813 105.168 293.058 108.923 288.43 108.923H254.822C259.459 108.923 263.205 105.168 263.205 100.54V77.5664C263.205 72.9294 266.96 69.1835 271.588 69.1835H305.206Z" fill="white" stroke="#FFCF2D" stroke-width="0.479023" stroke-miterlimit="10"/>
<path d="M290.509 81.0729H269.106V100.933H290.509V81.0729Z" fill="white" stroke="#FFCF2D" stroke-width="0.479023" stroke-miterlimit="10"/>
<path d="M290.499 83.9087H269.106" stroke="#FFCF2D" stroke-width="0.479023" stroke-miterlimit="10"/>
<path d="M290.499 86.7444H269.106" stroke="#FFCF2D" stroke-width="0.479023" stroke-miterlimit="10"/>
<path d="M290.499 89.5898H269.106" stroke="#FFCF2D" stroke-width="0.479023" stroke-miterlimit="10"/>
<path d="M290.499 92.4257H269.106" stroke="#FFCF2D" stroke-width="0.479023" stroke-miterlimit="10"/>
<path d="M290.499 95.2711H269.106" stroke="#FFCF2D" stroke-width="0.479023" stroke-miterlimit="10"/>
<path d="M290.499 98.1069H269.106" stroke="#FFCF2D" stroke-width="0.479023" stroke-miterlimit="10"/>
<path d="M296.813 77.5664C296.813 72.9582 300.53 69.2218 305.119 69.1835C309.718 69.2218 313.425 72.9582 313.425 77.5664H296.813Z" fill="#66B0F0" stroke="#FFCF2D" stroke-width="0.479023" stroke-miterlimit="10"/>
<path d="M288.468 109.134C288.459 109.134 288.44 109.134 288.43 109.134H254.946C254.927 109.134 254.908 109.134 254.889 109.134C251.45 109.086 248.508 106.959 247.263 103.951H280.814C282.069 106.959 285.01 109.086 288.468 109.134Z" fill="#FFCF2D"/>
<path d="M270.505 78.7927H266.635V75.6886H268.455V77.4131C268.455 77.4514 268.474 77.4801 268.493 77.4897L268.503 77.4993L270.505 78.7927Z" fill="#FE5244"/>
<path d="M272.009 76.7616V77.1736C272.009 77.2502 272 77.3268 272 77.4035C272 77.4226 271.99 77.4514 271.99 77.4705C271.98 77.5089 271.98 77.5472 271.971 77.5855C271.865 78.1124 271.549 78.5436 271.156 78.7064C271.128 78.716 271.099 78.7256 271.07 78.7352C271.022 78.7543 270.965 78.7639 270.917 78.7735C270.898 78.7735 270.879 78.7831 270.859 78.7831L268.666 77.3556C268.685 77.0203 268.895 76.752 269.145 76.752H272.009V76.7616Z" fill="#FE5244"/>
<path d="M293.383 75.6886V78.7927H289.513L291.505 77.4993L291.515 77.4897C291.525 77.4801 291.525 77.4801 291.534 77.4801C291.534 77.4706 291.544 77.4706 291.544 77.461C291.544 77.461 291.544 77.4514 291.553 77.4514C291.553 77.4418 291.553 77.4418 291.563 77.4418C291.563 77.4418 291.563 77.4418 291.563 77.4322C291.563 77.4227 291.563 77.4227 291.563 77.4131V75.6886H293.383Z" fill="#FE5244"/>
<path d="M291.371 77.3652L289.177 78.7927C289.12 78.7831 289.062 78.7736 289.005 78.764C288.986 78.7544 288.966 78.7544 288.947 78.7448C288.919 78.7352 288.899 78.7257 288.871 78.7161C288.852 78.7065 288.823 78.6969 288.804 78.6873C288.507 78.5245 288.258 78.2083 288.133 77.8155C288.114 77.758 288.095 77.7005 288.085 77.6431C288.075 77.6239 288.075 77.5952 288.066 77.5664C288.047 77.4419 288.028 77.3173 288.028 77.1832V76.7712H290.902C291.141 76.7617 291.352 77.0299 291.371 77.3652Z" fill="#FE5244"/>
<path d="M291.371 74.1174V76.8191C291.352 76.7999 291.333 76.7712 291.314 76.752C291.275 76.7137 291.237 76.685 291.199 76.6562C291.103 76.5988 290.998 76.5604 290.892 76.5604H269.135C269.02 76.5604 268.915 76.5988 268.828 76.6562C268.79 76.685 268.752 76.7137 268.713 76.752C268.694 76.7712 268.675 76.7904 268.656 76.8191V74.1174C268.656 73.7534 268.867 73.4659 269.135 73.4659H290.892C291.151 73.4659 291.371 73.7629 291.371 74.1174Z" fill="#FE5244"/>
<path d="M311.73 113.321V150.876H311.72C307.562 150.167 302.417 148.835 296.803 146.862C293.335 145.645 290.087 144.352 287.175 143.068L288.737 134.35L291.39 119.548C283.065 116.942 281.714 108.933 281.714 108.933H288.411C293.048 108.933 296.794 105.177 296.794 100.55V97.7907H292.492C289.474 97.7907 287.022 94.8208 287.022 91.8029V90.8257H296.583C298.355 90.8257 300.022 91.6592 301.086 93.0772L308.08 102.418C310.455 105.56 311.73 109.383 311.73 113.321Z" fill="#A0505A"/>
<path d="M311.73 142.416V150.876H311.72C307.562 150.167 302.418 148.835 296.803 146.862C293.335 145.645 290.088 144.352 287.175 143.068L288.737 134.35C292.186 135.193 296.018 136.333 300.003 137.732C304.314 139.245 308.204 140.807 311.462 142.311C311.567 142.34 311.644 142.378 311.73 142.416Z" fill="#73325A"/>
<path d="M297.235 97.7907H292.617C289.599 97.7907 287.146 94.8208 287.146 91.8029V90.8257H297.235V97.7907Z" fill="#A0505A"/>
<path d="M294.332 107.122C294.332 107.122 300.99 109.623 301.594 118.216" stroke="#73325A" stroke-width="0.479023" stroke-miterlimit="10"/>
<path d="M291.409 119.749H295.941" stroke="#73325A" stroke-width="0.479023" stroke-miterlimit="10"/>
<path d="M287.184 12.3331L290.221 10.3212C294.178 7.70575 299.476 10.2925 299.85 15.0156L300.511 23.3794C300.875 27.9684 305.924 30.5839 309.88 28.2367L311.797 27.0966" stroke="#FFCF2D" stroke-width="0.574827" stroke-miterlimit="10"/>
<path d="M243.047 -18.7364L282.069 3.91181L301.718 48.0298L279.175 32.8448L254.678 4.14174L243.047 -18.7364Z" fill="#9A3B82"/>
<path d="M243.153 -20.2596L282.998 2.87717L303.069 47.9245" stroke="#FFCF2D" stroke-width="0.574827" stroke-miterlimit="10"/>
<path d="M278.768 33.8193C280.592 32.2799 276.494 24.4278 269.616 16.2813C262.738 8.1347 255.685 2.77854 253.861 4.31794C252.038 5.85735 256.135 13.7094 263.013 21.8559C269.891 30.0025 276.945 35.3587 278.768 33.8193Z" fill="white"/>
<path d="M277.66 34.2901C279.447 32.7814 275.428 25.0821 268.683 17.0932C261.938 9.10434 255.022 3.85109 253.235 5.35978C251.448 6.86846 255.467 14.5678 262.212 22.5567C268.957 30.5455 275.873 35.7988 277.66 34.2901Z" fill="white" stroke="#FFCF2D" stroke-width="0.479023" stroke-miterlimit="10"/>
<path d="M282.413 30.718L278.696 33.8508C279.386 33.2664 279.233 31.791 278.399 29.7312C277.029 26.3397 273.82 21.3866 269.547 16.309C265.264 11.2409 260.915 7.24588 257.801 5.32979C255.914 4.16097 254.477 3.75859 253.787 4.343L257.504 1.21019C259.325 -0.332263 266.702 4.70706 273.58 12.86C280.459 21.013 284.243 29.1851 282.413 30.718Z" fill="#FFCF2D"/>
<path d="M322.125 18.7328C323.178 18.225 324.203 17.7748 325.19 17.4011C325.775 18.0143 326.282 18.7328 326.675 19.5376C327.068 20.3423 327.317 21.1854 327.432 22.0189C326.522 22.5554 325.535 23.0919 324.491 23.5997C319.25 26.1385 314.479 27.1061 313.828 25.7649C313.167 24.414 316.884 21.2716 322.125 18.7328Z" fill="#FFCF2D"/>
<path d="M312.87 27.5852C313.51 27.5852 314.029 27.0662 314.029 26.426C314.029 25.7857 313.51 25.2667 312.87 25.2667C312.23 25.2667 311.711 25.7857 311.711 26.426C311.711 27.0662 312.23 27.5852 312.87 27.5852Z" stroke="#9A3B82" stroke-width="0.574827" stroke-miterlimit="10"/>
<path d="M244.456 142.963V183.526H198.249L204.17 139.475C204.17 141.257 213.185 143.48 224.308 144.438C235.431 145.406 244.456 144.745 244.456 142.963Z" fill="#66B0F0"/>
<path d="M244.245 141.918C244.245 143.7 235.306 144.361 224.289 143.394C213.271 142.426 204.333 140.203 204.333 138.431C204.333 136.649 213.271 135.988 224.289 136.956C235.316 137.914 244.245 140.136 244.245 141.918Z" fill="#3FB1B5"/>
<path d="M250.654 51.9962L253.452 53.8069C256.249 55.9721 252.379 65.6484 244.81 75.4013C237.242 85.1638 228.84 91.3144 226.042 89.1492L224.663 87.8463" stroke="#66B0F0" stroke-width="0.574827" stroke-miterlimit="10"/>
<path d="M211.806 97.4459L243.565 68.3788L254.669 34.5693L220.773 65.3705L211.806 97.4459Z" fill="#66B0F0"/>
<path d="M210.187 100.971L244.753 69.3368L256.029 34.9908" stroke="#FE5244" stroke-width="0.574827" stroke-miterlimit="10" stroke-linecap="round"/>
<path d="M228.466 68.283L198.307 97.1297C196.841 98.5285 194.446 97.2064 194.858 95.2136L195.701 91.1228C196.084 89.2737 193.986 87.9229 192.462 89.0342L182.499 96.2866" stroke="#FE5244" stroke-width="0.574827" stroke-miterlimit="10"/>
<path d="M174.384 106.614C173.493 107.362 172.602 108.051 171.74 108.655C171.022 108.205 170.36 107.639 169.776 106.95C169.201 106.26 168.751 105.513 168.435 104.727C169.182 103.98 170.006 103.223 170.897 102.466C175.352 98.7201 179.74 96.6028 180.707 97.7525C181.665 98.9021 178.839 102.868 174.384 106.614Z" fill="#FFCF2D"/>
<path d="M181.57 98.1452C182.21 98.1452 182.729 97.6262 182.729 96.986C182.729 96.3457 182.21 95.8267 181.57 95.8267C180.929 95.8267 180.41 96.3457 180.41 96.986C180.41 97.6262 180.929 98.1452 181.57 98.1452Z" stroke="#FE5244" stroke-width="0.574827" stroke-miterlimit="10"/>
<path d="M229.893 112.43V143.758C228.121 143.681 226.234 143.566 224.289 143.394C217.113 142.771 210.828 141.602 207.312 140.376L207.839 136.908L209.602 125.268H207.322C204.074 125.268 201.449 122.642 201.449 119.395V107.86C201.449 105.58 202.273 103.386 203.777 101.671L211.279 93.0963C211.767 92.5407 212.687 92.8856 212.687 93.6233V105.283C212.687 106.681 212.189 108.032 211.279 109.096L210.608 109.881H218.751C219.93 109.881 220.619 108.569 219.958 107.592C218.952 106.126 217.63 104.037 216.375 101.623C213.875 96.8423 218.215 94.1693 218.215 94.1693L228.15 107.055C229.28 108.617 229.893 110.504 229.893 112.43Z" fill="#FFCF2D"/>
<path d="M212.687 93.0005V105.283C212.687 106.681 212.189 108.032 211.279 109.096L210.608 109.881" stroke="white" stroke-width="0.479023" stroke-miterlimit="10" stroke-linecap="round"/>
<path d="M210.608 109.872L205.224 115.917" stroke="white" stroke-width="0.479023" stroke-miterlimit="10" stroke-linecap="round"/>
<path d="M212.687 99.9464C212.687 101.345 212.189 102.696 211.279 103.759L210.608 104.545L205.233 110.581" stroke="white" stroke-width="0.479023" stroke-miterlimit="10" stroke-linecap="round"/>
<path d="M212.687 94.6196C212.687 96.0183 212.189 97.3692 211.279 98.4326L210.609 99.2182L205.234 105.254" stroke="white" stroke-width="0.479023" stroke-miterlimit="10" stroke-linecap="round"/>
<path d="M209.602 125.584H213.731" stroke="white" stroke-width="0.479023" stroke-miterlimit="10" stroke-linecap="round"/>
<path d="M229.894 137.569V143.758C228.121 143.681 226.234 143.566 224.289 143.394C217.113 142.771 210.829 141.602 207.312 140.376L207.839 136.908C211.442 136.381 217.468 136.352 224.299 136.946C226.234 137.128 228.112 137.329 229.894 137.569Z" fill="#FE5244"/>
<path d="M183.525 183.526H130.094V130.556C130.094 132.817 138.88 134.647 149.725 134.647C160.57 134.647 169.355 132.817 169.355 130.556V130.546L183.525 183.526Z" fill="#3FB1B5"/>
<path d="M169.211 129.502C169.211 131.773 160.521 133.603 149.791 133.603C139.061 133.603 130.372 131.773 130.372 129.512V129.502C130.4 127.251 139.08 125.421 149.791 125.421C160.502 125.421 169.192 127.251 169.211 129.502Z" fill="#66B0F0"/>
<path d="M169.211 129.54C169.144 131.782 160.474 133.602 149.792 133.602C147.732 133.602 145.758 133.535 143.9 133.411V113.704H133.764C132.47 113.704 131.426 112.66 131.426 111.366V109.785C131.426 109.076 131.742 108.444 132.24 108.013C131.742 107.582 131.426 106.95 131.426 106.241V104.66C131.426 104.037 131.675 103.462 132.078 103.05C131.675 102.629 131.426 102.064 131.426 101.441V99.8601C131.426 99.2182 131.685 98.6338 132.106 98.2027C131.685 97.7811 131.426 97.1967 131.426 96.5548V93.6903C131.426 92.3969 132.47 91.3527 133.764 91.3527H146.707C147.138 91.1036 147.837 90.2222 146.649 89.7048L143.871 89.0533C141.668 87.9516 140.269 86.1217 140.269 83.65H150.041C151.679 83.65 153.145 84.6847 153.701 86.2271L168.972 128.86L169.211 129.54Z" fill="#E57281"/>
<path d="M169.259 129.56C169.23 129.531 169.211 129.512 169.211 129.512C169.211 131.773 160.522 133.602 149.792 133.602C147.732 133.602 145.758 133.535 143.9 133.411V125.622C145.758 125.497 147.741 125.43 149.792 125.43C159.468 125.43 167.496 126.925 168.972 128.87C169.01 128.918 169.115 129.176 169.259 129.56Z" fill="#9A3B82"/>
<path d="M146.927 64.719V72.4887C146.927 76.7137 143.507 80.1339 139.282 80.1339C135.057 80.1339 131.637 76.7137 131.637 72.4887V64.719C131.637 66.6159 135.057 68.1488 139.282 68.1488C143.507 68.1488 146.927 66.6159 146.927 64.719Z" fill="white"/>
<path d="M139.282 68.1488C143.504 68.1488 146.927 66.6132 146.927 64.719C146.927 62.8248 143.504 61.2892 139.282 61.2892C135.06 61.2892 131.637 62.8248 131.637 64.719C131.637 66.6132 135.06 68.1488 139.282 68.1488Z" fill="#FFCF2D"/>
<path d="M146.927 51.4405V72.4792C146.927 75.315 145.385 77.7867 143.095 79.1089C143.095 79.1089 143.095 79.1089 143.085 79.1089C141.964 79.7507 140.661 80.1244 139.282 80.1244C137.902 80.1244 136.609 79.7603 135.488 79.1184C135.478 79.1184 135.478 79.1089 135.469 79.1089C133.179 77.7867 131.637 75.315 131.637 72.4792V51.4405H146.927Z" stroke="#FFCF2D" stroke-width="0.574827" stroke-miterlimit="10"/>
<path d="M139.282 54.8702C143.552 54.8702 147.013 53.3346 147.013 51.4404C147.013 49.5462 143.552 48.0106 139.282 48.0106C135.012 48.0106 131.551 49.5462 131.551 51.4404C131.551 53.3346 135.012 54.8702 139.282 54.8702Z" fill="white" stroke="#FFCF2D" stroke-width="0.479023" stroke-miterlimit="10"/>
<path d="M139.282 51.9578C139.906 51.9578 140.413 51.4516 140.413 50.8273C140.413 50.2029 139.906 49.6968 139.282 49.6968C138.658 49.6968 138.152 50.2029 138.152 50.8273C138.152 51.4516 138.658 51.9578 139.282 51.9578Z" fill="#FFCF2D"/>
<path d="M136.791 75.0467C137.341 75.0467 137.787 74.6007 137.787 74.0504C137.787 73.5001 137.341 73.054 136.791 73.054C136.241 73.054 135.795 73.5001 135.795 74.0504C135.795 74.6007 136.241 75.0467 136.791 75.0467Z" fill="white" stroke="#FFCF2D" stroke-width="0.479023" stroke-miterlimit="10"/>
<path d="M142.769 65.5429C143.224 65.5429 143.593 65.174 143.593 64.719C143.593 64.264 143.224 63.8951 142.769 63.8951C142.314 63.8951 141.945 64.264 141.945 64.719C141.945 65.174 142.314 65.5429 142.769 65.5429Z" fill="white"/>
<path d="M134.799 71.7222C135.254 71.7222 135.622 71.3534 135.622 70.8983C135.622 70.4433 135.254 70.0744 134.799 70.0744C134.343 70.0744 133.975 70.4433 133.975 70.8983C133.975 71.3534 134.343 71.7222 134.799 71.7222Z" fill="#FFCF2D"/>
<path d="M146.63 119.069H131.933C131.665 119.069 131.589 118.714 131.819 118.59L136.954 116.645C137.758 116.338 138.295 115.562 138.295 114.7V84.0811C138.295 82.05 137.241 80.1435 135.488 79.1184C136.609 79.7603 137.902 80.1244 139.282 80.1244C140.671 80.1244 141.964 79.7507 143.085 79.1088C141.322 80.1244 140.268 82.0404 140.268 84.0715V114.691C140.268 115.553 140.805 116.329 141.61 116.635L146.745 118.58C146.975 118.714 146.898 119.069 146.63 119.069Z" fill="white" stroke="#FFCF2D" stroke-width="0.479023" stroke-miterlimit="10"/>
<path d="M133.84 39.9343C134.56 39.9343 135.143 39.351 135.143 38.6314C135.143 37.9118 134.56 37.3284 133.84 37.3284C133.12 37.3284 132.537 37.9118 132.537 38.6314C132.537 39.351 133.12 39.9343 133.84 39.9343Z" fill="#FFCF2D"/>
<path d="M142.769 42.0325C143.394 42.0325 143.9 41.5263 143.9 40.902C143.9 40.2776 143.394 39.7715 142.769 39.7715C142.145 39.7715 141.639 40.2776 141.639 40.902C141.639 41.5263 142.145 42.0325 142.769 42.0325Z" fill="white" stroke="#FFCF2D" stroke-width="0.479023" stroke-miterlimit="10"/>
<path d="M137.232 46.4395C137.687 46.4395 138.056 46.0706 138.056 45.6155C138.056 45.1605 137.687 44.7916 137.232 44.7916C136.777 44.7916 136.408 45.1605 136.408 45.6155C136.408 46.0706 136.777 46.4395 137.232 46.4395Z" fill="white" stroke="#FFCF2D" stroke-width="0.479023" stroke-miterlimit="10"/>
<path d="M136.801 36.4088C137.176 36.4088 137.481 36.1043 137.481 35.7286C137.481 35.3529 137.176 35.0484 136.801 35.0484C136.425 35.0484 136.12 35.3529 136.12 35.7286C136.12 36.1043 136.425 36.4088 136.801 36.4088Z" fill="#FFCF2D"/>
<path d="M149.13 94.428V113.713H133.763C132.47 113.713 131.426 112.669 131.426 111.376V109.795C131.426 109.086 131.742 108.454 132.24 108.023C131.742 107.592 131.426 106.959 131.426 106.25V104.669C131.426 104.047 131.675 103.472 132.077 103.06C131.675 102.638 131.426 102.073 131.426 101.45V99.8697C131.426 99.2278 131.684 98.6434 132.106 98.2123C131.684 97.7907 131.426 97.2063 131.426 96.5644V94.4376H149.13V94.428Z" fill="#E57281"/>
<path d="M131.694 106.116C131.694 107.582 132.882 108.77 134.348 108.77H146.784C148.249 108.77 149.437 107.582 149.437 106.116" stroke="#9A3B82" stroke-width="0.479023" stroke-miterlimit="10" stroke-linecap="round"/>
<path d="M131.694 101.335C131.694 102.801 132.882 103.989 134.348 103.989H146.784C148.249 103.989 149.437 102.801 149.437 101.335" stroke="#9A3B82" stroke-width="0.479023" stroke-miterlimit="10" stroke-linecap="round"/>
<path d="M131.694 96.5549C131.694 98.0207 132.882 99.2087 134.348 99.2087H146.784C148.249 99.2087 149.437 98.0207 149.437 96.5549" stroke="#9A3B82" stroke-width="0.479023" stroke-miterlimit="10" stroke-linecap="round"/>
<path d="M134.224 113.551H146.784C148.25 113.551 149.438 112.363 149.438 110.897V92.9717" stroke="#9A3B82" stroke-width="0.479023" stroke-miterlimit="10" stroke-linecap="round"/>
<path d="M137.692 92.8951H136.417C135.996 92.8951 135.651 93.24 135.651 93.6616C135.651 94.0831 135.996 94.428 136.417 94.428H143.545C144.312 94.428 144.944 93.8053 144.944 93.0292C144.944 92.1095 145.691 91.3622 146.611 91.3622H147.77C148.69 91.3622 149.437 92.1095 149.437 93.0292V96.1333" stroke="#9A3B82" stroke-width="0.479023" stroke-miterlimit="10" stroke-linecap="round"/>
<path d="M224.682 -5.84105L192.788 26.8666L156.019 -13.6683L196.151 -41.9115L224.682 -5.84105Z" fill="#3FB1B5"/>
<path d="M191.543 28.4379L152.963 -13.8503L195.27 -43.5114" stroke="#FFCF2D" stroke-width="0.574827" stroke-miterlimit="10"/>
<path d="M192.166 -7.52717L194.57 -7.88165C198.527 -8.46606 202.196 -5.72605 202.781 -1.7789L204.879 12.5151C205.588 17.3341 210.761 20.0933 215.159 17.9856L225.189 13.1858" stroke="#FFCF2D" stroke-width="0.574827" stroke-miterlimit="10"/>
<path d="M237.98 15.9257C239.005 16.4814 239.972 17.0562 240.854 17.631C240.7 18.4645 240.413 19.2885 239.991 20.0836C239.57 20.8692 239.033 21.5686 238.42 22.153C237.453 21.7315 236.437 21.2429 235.412 20.6872C230.286 17.9184 226.713 14.6132 227.422 13.3007C228.131 11.9881 232.854 13.157 237.98 15.9257Z" fill="#FFCF2D"/>
<path d="M226.329 14.0768C226.97 14.0768 227.489 13.5578 227.489 12.9175C227.489 12.2773 226.97 11.7583 226.329 11.7583C225.689 11.7583 225.17 12.2773 225.17 12.9175C225.17 13.5578 225.689 14.0768 226.329 14.0768Z" stroke="#66B0F0" stroke-width="0.574827" stroke-miterlimit="10"/>
<path d="M112.341 147.638V183.526H70.8674V162.382C71.768 164.739 82.3257 163.235 93.5923 158.924C103.728 155.044 111.556 150.273 112.341 147.638Z" fill="#FE5244"/>
<path d="M112.341 146.594C111.546 149.228 103.729 153.999 93.5828 157.879C82.3258 162.191 71.7681 163.695 70.858 161.338C69.9478 158.981 79.0493 153.645 90.3159 149.334C101.573 145.022 111.441 143.442 112.341 145.798C112.437 146.038 112.437 146.306 112.341 146.594Z" fill="#66B0F0"/>
<path d="M103.556 122.796V153.204L101.266 154.363C98.9479 155.494 96.3516 156.615 93.5924 157.669C88.5243 159.613 83.5904 160.983 79.6241 161.692L81.9043 152.735L85.6215 138.115C83.8587 138.115 82.1917 137.329 81.0708 135.969L65.8091 118.609C68.4245 116.224 72.3334 119.471 72.3334 119.471L70.8676 111.989C70.5227 110.217 71.04 108.377 72.2567 107.046L76.8937 101.958C77.8134 100.952 79.4708 101.345 79.854 102.648L83.1497 114.02C83.1497 114.02 91.3314 120.267 92.8643 120.267C94.5984 120.267 95.2019 118.858 91.9637 114.231C89.5303 110.753 91.9637 108.214 91.9637 108.214L99.8868 114.882C102.215 116.856 103.556 119.749 103.556 122.796Z" fill="white" stroke="#FFCF2D" stroke-width="0.479023" stroke-miterlimit="10"/>
<path d="M86.0904 121.023L80.2942 116.386L77.1231 105.446C76.7591 104.19 75.2166 103.817 74.3352 104.784" stroke="#FFCF2D" stroke-width="0.479023" stroke-miterlimit="10"/>
<path d="M82.2968 123.064L77.2574 118.964L74.2588 108.607C73.9139 107.419 72.4002 107.065 71.5667 107.984" stroke="#FFCF2D" stroke-width="0.479023" stroke-miterlimit="10"/>
<path d="M77.8421 124.108L72.3237 119.481" stroke="#FFCF2D" stroke-width="0.479023" stroke-miterlimit="10"/>
<path d="M85.6211 138.115H92.0687" stroke="#FFCF2D" stroke-width="0.479023" stroke-miterlimit="10"/>
<path d="M103.556 145.367V153.405C100.701 154.919 97.3001 156.452 93.5924 157.879C88.5148 159.824 83.5809 161.194 79.605 161.903L81.9043 152.936C84.4527 151.71 87.3077 150.483 90.3255 149.334C95.202 147.475 99.8197 146.115 103.556 145.367Z" fill="#FFCF2D"/>
<path d="M97.0604 44.1403L99.9729 50.5304C100.251 52.8968 98.5646 55.0332 96.1982 55.3206C93.8318 55.5985 92.1457 57.7445 92.4235 60.1109L92.845 63.6556" stroke="#FFCF2D" stroke-width="0.574827" stroke-miterlimit="10"/>
<path d="M130.765 23.6093L146.113 -0.341855L93.3242 -0.763397L76.0315 45.2803L104.581 43.939L130.765 23.6093Z" fill="#FE5244"/>
<path d="M146.745 -2.14302L91.5515 -2.76575L73.2241 45.5581" stroke="#FFCF2D" stroke-width="0.574827" stroke-miterlimit="10"/>
<path d="M129.816 20.0166C132.882 25.2763 127.67 34.0328 118.166 39.5703C108.663 45.1078 98.4785 45.3282 95.4128 40.0685C94.9913 39.35 94.7326 38.574 94.608 37.7405C93.8416 32.4808 98.8522 25.2955 107.063 20.5148C115.273 15.7342 123.991 14.9102 128.188 18.1676C128.849 18.6849 129.395 19.2981 129.816 20.0166Z" fill="#66B0F0" stroke="white" stroke-width="0.574827" stroke-miterlimit="10"/>
<path d="M127.383 15.8395L129.816 20.0166C129.395 19.298 128.849 18.6849 128.188 18.1675C123.991 14.9102 115.273 15.7341 107.063 20.5148C98.8522 25.2954 93.8512 32.4807 94.608 37.7404C94.723 38.5739 94.9913 39.3499 95.4128 40.0685L92.9794 35.8914C89.9136 30.6317 95.1254 21.8752 104.629 16.3377C114.123 10.8098 124.317 10.5798 127.383 15.8395Z" stroke="white" stroke-width="0.479023" stroke-miterlimit="10" stroke-linecap="round"/>
<path d="M92.021 76.57C91.6473 77.6718 91.2449 78.7256 90.8234 79.6932C89.9707 79.6837 89.1085 79.54 88.2654 79.2525C87.4128 78.9651 86.6463 78.5627 85.9565 78.055C86.2056 77.0299 86.5122 75.9473 86.8858 74.8455C88.7445 69.3272 91.3887 65.2459 92.8066 65.7153C94.2245 66.1944 93.87 71.0517 92.021 76.57Z" fill="#FFCF2D"/>
<path d="M92.9981 65.7345C93.6383 65.7345 94.1573 65.2155 94.1573 64.5753C94.1573 63.935 93.6383 63.416 92.9981 63.416C92.3579 63.416 91.8389 63.935 91.8389 64.5753C91.8389 65.2155 92.3579 65.7345 92.9981 65.7345Z" stroke="#66B0F0" stroke-width="0.574827" stroke-miterlimit="10"/>
<path d="M43.5347 144.314V183.526H0.460938V125.814C1.30402 128.64 10.3192 134.532 21.5092 139.456C33.4177 144.716 43.2856 146.881 43.5347 144.314Z" fill="#66B0F0"/>
<path d="M43.5346 143.269C43.276 145.837 33.4177 143.662 21.5092 138.412C10.3192 133.478 1.30399 127.586 0.460911 124.769C0.403429 124.587 0.384264 124.415 0.403425 124.262C0.652517 121.694 10.5204 123.869 22.4289 129.119C34.3374 134.369 43.7933 140.702 43.5346 143.269Z" fill="#9A3B82"/>
<path d="M18.0422 87.0223C19.0673 84.9146 21.2038 83.5734 23.551 83.5734H30.3243L30.6788 110.801L35.402 135.825L36.9061 143.777C32.9207 142.896 27.479 141.047 21.5199 138.421C18.1476 136.937 13.9226 134.733 11.106 133.181V100.052C11.106 99.6015 11.1922 99.1512 11.3455 98.7297L18.0422 87.0223Z" fill="#A0505A"/>
<path d="M36.8956 143.777C32.9102 142.895 27.4685 141.046 21.5094 138.421C18.1371 136.936 13.9121 134.733 11.0955 133.181V124.855C14.1708 125.842 18.7215 127.49 22.4291 129.119C27.4301 131.322 31.7988 133.593 35.4011 135.825L36.8956 143.777Z" fill="#73325A"/>
<path d="M62.1208 52.9638L26.0887 119.261C24.757 121.713 21.0877 122.298 17.8974 120.563C14.7071 118.829 13.2029 115.438 14.5346 112.976L50.5667 46.679L62.1208 52.9638Z" fill="white" stroke="#FFCF2D" stroke-width="0.479023" stroke-miterlimit="10"/>
<path d="M62.1137 52.98C63.4477 50.5255 61.9439 47.1306 58.7548 45.3974C55.5658 43.6642 51.8991 44.249 50.5651 46.7036C49.2311 49.1581 50.7349 52.553 53.924 54.2862C57.1131 56.0194 60.7797 55.4346 62.1137 52.98Z" fill="#66B0F0" stroke="#FFCF2D" stroke-width="0.479023" stroke-miterlimit="10"/>
<path d="M38.5815 78.3425L55.606 64.4412L55.3378 69.3847L60.789 70.7452L48.3728 78.4095C51.7068 77.8347 55.721 77.3653 59.0262 77.6239C62.9638 77.9305 61.6417 82.5387 60.1663 86.4763C63.6153 86.141 75.1789 79.1376 79.538 80.4597C82.2014 81.2645 81.2433 86.6966 80.4769 89.6953C81.5882 89.7528 87.2119 89.6857 87.2119 89.6857L84.242 92.397L85.8707 95.1083C79.5476 95.3861 79.4709 94.3897 80.2661 89.9061C80.4002 85.0296 74.9969 89.7145 63.4907 92.4641C57.7904 93.8245 58.528 90.1168 59.9364 86.2559C59.3711 84.4835 55.1461 82.5579 41.5706 86.1026L38.5815 78.3425Z" fill="#FE5244"/>
<path d="M38.8305 86.8116C41.6084 86.8116 43.8603 84.5597 43.8603 81.7818C43.8603 79.004 41.6084 76.7521 38.8305 76.7521C36.0527 76.7521 33.8008 79.004 33.8008 81.7818C33.8008 84.5597 36.0527 86.8116 38.8305 86.8116Z" fill="white" stroke="#FE5244" stroke-width="0.479023" stroke-miterlimit="10"/>
<path d="M37.0966 83.5734V83.8896C37.0966 87.1086 34.4907 89.7241 31.2621 89.7241H25.1401V83.5734H37.0966Z" fill="#A0505A"/>
<path d="M44.55 95.386L42.9309 99.1799L41.0436 103.616L40.0185 106.02L38.4569 109.69C38.4185 109.785 38.3611 109.891 38.3132 109.977C38.3132 109.987 38.3036 109.987 38.3036 109.996C37.8054 110.858 36.8378 111.395 35.7743 111.395H23.3676C21.8635 111.395 20.8384 109.967 21.3941 108.655L22.2946 106.538L24.2778 101.882L25.9831 97.8673L27.4872 94.3417C27.9279 93.307 28.9914 92.6268 30.1793 92.6268H42.586C44.0806 92.646 45.1057 94.0735 44.55 95.386Z" fill="#A0505A"/>
<path d="M26.5002 97.8866C27.0176 97.3118 27.7649 96.9669 28.5696 96.9669H40.4207C41.6661 96.9669 42.5667 98.0399 42.4421 99.1799" stroke="#73325A" stroke-width="0.479023" stroke-miterlimit="10" stroke-linecap="round"/>
<path d="M24.8909 101.901C25.3986 101.393 26.098 101.096 26.8549 101.096H38.7059C40.0663 101.096 41.0052 102.361 40.6603 103.606" stroke="#73325A" stroke-width="0.479023" stroke-miterlimit="10" stroke-linecap="round"/>
<path d="M23.0322 106.547C23.54 106.068 24.2202 105.79 24.9483 105.79H36.7993C38.1981 105.79 39.1657 107.151 38.7154 108.435" stroke="#73325A" stroke-width="0.479023" stroke-miterlimit="10" stroke-linecap="round"/>
<path d="M38.045 17.7173L36.7804 18.5029C32.1913 21.3483 23.2528 15.2264 16.8243 4.83161C10.3862 -5.56319 8.89165 -16.2837 13.4711 -19.1291L14.774 -19.9339L22.5246 2.86761L38.045 17.7173Z" fill="#66B0F0"/>
<path d="M50.8826 30.009L38.0448 17.7173L22.5149 2.85798L14.7643 -19.9339L7.83765 -40.3116L40.095 -14.3198L50.8826 30.009Z" fill="#66B0F0" stroke="white" stroke-width="0.574827" stroke-miterlimit="10"/>
<path d="M51.8888 28.7923L41.1778 -15.4598L8.51807 -41.1833" stroke="#9A3B82" stroke-width="0.574827" stroke-miterlimit="10"/>
<path d="M33.8392 -1.32873C33.0153 -4.73937 35.1134 -8.17876 38.524 -9.00268C41.7622 -9.78828 45.0483 -7.93924 46.0638 -4.77769L48.756 3.91178C50.2409 8.72117 57.1676 8.34754 58.1352 3.40402L59.6873 -4.57651" stroke="#FFCF2D" stroke-width="0.574827" stroke-miterlimit="10"/>
</svg>
