<svg width="738" height="575" viewBox="0 0 738 575" fill="none" xmlns="http://www.w3.org/2000/svg">
<path d="M580.616 573.73H67.9802L277.466 76.3222H371.13L580.616 573.73Z" fill="#D0DFF0"/>
<path d="M315.415 38.8968L324.298 30.0138L333.181 38.8968" stroke="#FFCF2D" stroke-width="1.20857" stroke-miterlimit="10"/>
<path d="M324.298 30.0138V0.262817" stroke="#FFCF2D" stroke-width="1.20857" stroke-miterlimit="10"/>
<path d="M324.298 91.8322C332.197 91.8322 338.6 85.4293 338.6 77.5308C338.6 69.6323 332.197 63.2294 324.298 63.2294C316.4 63.2294 309.997 69.6323 309.997 77.5308C309.997 85.4293 316.4 91.8322 324.298 91.8322Z" fill="#FFCF2D" stroke="white" stroke-width="1.20857" stroke-miterlimit="10"/>
<path d="M371.13 76.3222H277.486L278.735 70.6218C282.844 51.8486 302 38.2321 324.318 38.2321C335.477 38.2321 345.851 41.6362 353.928 47.3769C362.026 53.1176 367.827 61.2151 369.881 70.6016L371.13 76.3222Z" stroke="#464E74" stroke-width="1.20857" stroke-miterlimit="10" stroke-linecap="round"/>
<path d="M468.622 397.117H459.114V457.143H468.622V397.117Z" fill="#66B0F0"/>
<path d="M641.266 457.143H587.142C585.188 457.143 583.678 455.451 583.919 453.517L591.453 389.926C591.654 388.295 593.044 387.066 594.676 387.066H648.799C650.753 387.066 652.264 388.758 652.022 390.692L644.489 454.283C644.287 455.914 642.898 457.143 641.266 457.143Z" fill="#464E74"/>
<path d="M611.777 457.143H569.034C566.415 457.143 564.381 454.847 564.683 452.248L570.162 405.94C570.424 403.744 572.297 402.073 574.513 402.073H618.283L611.777 457.143Z" fill="white" stroke="#FFCF2D" stroke-width="1.20857" stroke-miterlimit="10"/>
<path d="M616.571 457.143H575.782C573.163 457.143 571.129 454.847 571.431 452.248L576.91 405.94C577.171 403.744 579.045 402.073 581.26 402.073H622.573C623.883 402.073 624.91 403.221 624.749 404.53L618.746 455.189C618.625 456.317 617.679 457.143 616.571 457.143Z" fill="white" stroke="#FFCF2D" stroke-width="1.20857" stroke-miterlimit="10"/>
<path d="M485.723 406.141H469.226V457.143H485.723V406.141Z" stroke="#464E74" stroke-width="1.20857" stroke-miterlimit="10" stroke-linecap="round"/>
<path d="M503.207 406.141H479.982V457.143H503.207V406.141Z" stroke="#464E74" stroke-width="1.20857" stroke-miterlimit="10" stroke-linecap="round"/>
<path d="M531.346 457.143H524.921L501.011 400.542H507.437L531.346 457.143Z" stroke="#464E74" stroke-width="1.20857" stroke-miterlimit="10" stroke-linecap="round"/>
<path d="M543.593 457.143H531.628L511.042 409.143H523.007L543.593 457.143Z" stroke="#464E74" stroke-width="1.20857" stroke-miterlimit="10" stroke-linecap="round"/>
<path d="M458.51 406.141H441.872V457.143H458.51V406.141Z" stroke="#464E74" stroke-width="1.20857" stroke-miterlimit="10" stroke-linecap="round"/>
<path d="M519.261 367.044H441.872V376.995H519.261V367.044Z" stroke="#464E74" stroke-width="1.20857" stroke-miterlimit="10" stroke-linecap="round"/>
<path d="M539.907 359.43H441.872V367.447H539.907V359.43Z" fill="#FF8173"/>
<path d="M508.041 347.868H441.872V359.229H508.041V347.868Z" fill="#FFCF2D"/>
<path d="M519.261 339.187H441.872V347.667H519.261V339.187Z" stroke="#464E74" stroke-width="1.20857" stroke-miterlimit="10" stroke-linecap="round"/>
<path d="M652.788 316.828L652.727 317.17L643.582 376.995H558.741L567.886 317.17L568.006 316.324C569.457 313.384 578.32 311.107 589.056 311.107C600.799 311.107 610.306 313.827 610.306 317.17C610.306 313.827 619.814 311.107 631.557 311.107C642.898 311.128 652.143 313.645 652.788 316.828Z" fill="white" stroke="#FFCF2D" stroke-width="1.20857" stroke-miterlimit="10"/>
<path d="M601.262 377.015L610.327 317.191" stroke="#FFCF2D" stroke-width="1.20857" stroke-miterlimit="10"/>
<path d="M601.262 377.015C601.262 373.671 591.755 370.952 580.012 370.952C568.268 370.952 558.761 373.671 558.761 377.015H601.262Z" fill="#FFCF2D"/>
<path d="M643.764 377.015C643.764 373.671 634.256 370.952 622.513 370.952C610.77 370.952 601.262 373.671 601.262 377.015H643.764Z" fill="#FFCF2D"/>
<path d="M601.585 375.746C601.464 372.402 610.871 369.361 622.614 368.938C629.946 368.676 637.177 369.703 640.984 371.173L650.048 314.189" stroke="#FFCF2D" stroke-width="1.20857" stroke-miterlimit="10" stroke-linecap="round"/>
<path d="M646.02 296.866H569.839V279.906C569.839 278.234 571.189 276.885 572.861 276.885H643.018C644.69 276.885 646.04 278.234 646.04 279.906V296.866H646.02Z" fill="white" stroke="#464E74" stroke-width="1.20857" stroke-miterlimit="10" stroke-linecap="round"/>
<path d="M652.103 276.079H586.457C585.43 276.079 584.624 275.253 584.624 274.246V267.498C584.624 266.471 585.45 265.665 586.457 265.665H652.103C653.13 265.665 653.936 266.491 653.936 267.498V274.246C653.936 275.253 653.11 276.079 652.103 276.079Z" fill="#FFCF2D"/>
<path d="M654.661 259.34H576.789V265.665H654.661V259.34Z" fill="#FF8173"/>
<path d="M653.251 259.34H593.809C593.024 259.34 592.399 258.696 592.399 257.93V252.834C592.399 252.049 593.044 251.424 593.809 251.424H653.251C654.037 251.424 654.661 252.069 654.661 252.834V257.93C654.661 258.696 654.037 259.34 653.251 259.34Z" fill="white" stroke="#464E74" stroke-width="1.20857" stroke-miterlimit="10" stroke-linecap="round"/>
<path d="M489.731 234.645H466.869V296.866H489.731V234.645Z" stroke="#464E74" stroke-width="1.20857" stroke-miterlimit="10" stroke-linecap="round"/>
<path d="M466.869 234.645H457.644V296.866H466.869V234.645Z" fill="white" stroke="#464E74" stroke-width="1.20857" stroke-miterlimit="10" stroke-linecap="round"/>
<path d="M457.644 234.645H442.134V296.866H457.644V234.645Z" fill="white" stroke="#464E74" stroke-width="1.20857" stroke-miterlimit="10" stroke-linecap="round"/>
<path d="M512.795 245.885H492.753V296.887H512.795V245.885Z" stroke="#464E74" stroke-width="1.20857" stroke-miterlimit="10" stroke-linecap="round"/>
<path d="M494.203 296.866H486.307C485.542 296.866 484.897 296.242 484.897 295.456V247.255C484.897 246.489 485.521 245.845 486.307 245.845H494.203C494.968 245.845 495.613 246.469 495.613 247.255V295.456C495.593 296.242 494.968 296.866 494.203 296.866Z" fill="white" stroke="#464E74" stroke-width="1.20857" stroke-miterlimit="10" stroke-linecap="round"/>
<path d="M512.795 245.885V273.843L501.938 245.885H512.795Z" fill="#464E74"/>
<path d="M559.204 296.866H527.137C526.432 296.866 525.787 296.423 525.545 295.779L504.718 242.158C504.274 241.03 505.1 239.822 506.309 239.822H538.376C539.081 239.822 539.726 240.265 539.968 240.91L560.795 294.53C561.238 295.658 560.413 296.866 559.204 296.866Z" fill="white" stroke="#FFCF2D" stroke-width="1.20857" stroke-miterlimit="10"/>
<path d="M564.441 296.866H532.374C531.669 296.866 531.024 296.423 530.782 295.779L509.955 242.158C509.512 241.03 510.337 239.822 511.546 239.822H543.613C544.318 239.822 544.963 240.265 545.205 240.91L566.032 294.53C566.476 295.658 565.65 296.866 564.441 296.866Z" fill="white" stroke="#FFCF2D" stroke-width="1.20857" stroke-miterlimit="10"/>
<path d="M620.761 203.122C617.759 203.968 614.577 204.431 611.314 204.431C592.238 204.431 576.789 188.981 576.789 169.906C576.789 154.174 587.323 140.88 601.726 136.731L620.761 203.122Z" stroke="#FFCF2D" stroke-width="1.20857" stroke-miterlimit="10"/>
<path d="M611.314 204.431V216.738" stroke="#FFCF2D" stroke-width="1.20857" stroke-miterlimit="10"/>
<path d="M611.314 199.153C627.467 199.153 640.561 186.059 640.561 169.906C640.561 153.753 627.467 140.659 611.314 140.659C595.161 140.659 582.066 153.753 582.066 169.906C582.066 186.059 595.161 199.153 611.314 199.153Z" fill="white" stroke="#3FB1B5" stroke-width="1.20857" stroke-miterlimit="10"/>
<path d="M623.54 216.658H599.188L611.273 210.594L623.54 216.658Z" fill="white" stroke="#FFCF2D" stroke-width="1.20857" stroke-miterlimit="10"/>
<path d="M654.661 216.738V573.73H643.643V547.746C643.643 541.965 638.95 537.271 633.169 537.271H463.243C457.462 537.271 452.769 541.965 452.769 547.746V573.73H441.872V216.738H654.661Z" stroke="#464E74" stroke-width="1.20857" stroke-miterlimit="10" stroke-linecap="round"/>
<path d="M639.373 527.381H456.757C454.441 527.381 452.548 525.508 452.548 523.171V470.619C452.548 468.302 454.421 466.409 456.757 466.409H639.373C641.689 466.409 643.582 468.282 643.582 470.619V523.171C643.582 525.508 641.689 527.381 639.373 527.381Z" stroke="#3FB1B5" stroke-width="1.20857" stroke-miterlimit="10"/>
<path d="M557.693 167.71V216.738H540.532L557.693 167.71Z" fill="#464E74"/>
<path d="M557.693 167.71L557.572 168.073L540.632 216.738H461.874L478.814 168.073L479.358 166.522C481.896 162.876 488.926 160.217 497.305 160.076C497.446 160.076 497.567 160.076 497.708 160.076C497.849 160.076 497.97 160.076 498.111 160.076C507.9 160.076 516.622 163.48 518.213 167.952C519.784 163.48 528.124 160.076 537.913 160.076C547.501 160.076 555.901 163.36 557.693 167.71Z" fill="white" stroke="#FFCF2D" stroke-width="1.20857" stroke-miterlimit="10"/>
<path d="M518.193 167.952L501.092 215.731" stroke="#FFCF2D" stroke-width="1.20857" stroke-miterlimit="10" stroke-linecap="round"/>
<path d="M501.052 216.134H461.874C463.324 211.602 471.462 208.117 481.251 208.117C491.081 208.117 499.601 211.602 501.052 216.134Z" fill="#FFCF2D"/>
<path d="M540.532 216.134H501.354C502.804 211.602 510.942 208.117 520.731 208.117C530.561 208.117 539.081 211.602 540.532 216.134Z" fill="#FFCF2D"/>
<path d="M534.952 481.979C534.952 480.408 536.221 479.119 537.812 479.119H559.184C560.755 479.119 562.044 480.388 562.044 481.979" stroke="#464E74" stroke-width="1.20857" stroke-miterlimit="10" stroke-linecap="round"/>
<path d="M441.872 377.015H654.661" stroke="#464E74" stroke-width="1.20857" stroke-miterlimit="10" stroke-linecap="round"/>
<path d="M441.872 296.866H654.661" stroke="#464E74" stroke-width="1.20857" stroke-miterlimit="10" stroke-linecap="round"/>
<path d="M441.872 457.143H654.661" stroke="#464E74" stroke-width="1.20857" stroke-miterlimit="10" stroke-linecap="round"/>
<path d="M468.058 141.887L441.872 216.738H654.661L680.847 141.887" stroke="#464E74" stroke-width="1.20857" stroke-miterlimit="10" stroke-linecap="round" stroke-linejoin="round"/>
<path d="M704.736 554.514C704.736 558.562 703.991 562.45 702.621 566.056C700.627 571.293 695.571 574.717 689.951 574.717H647.309C641.709 574.717 636.633 571.293 634.659 566.056C633.289 562.45 632.544 558.562 632.544 554.514C632.544 542.831 638.728 532.518 648.175 526.354V519.546C648.175 522.527 657.34 524.944 668.62 524.944C679.92 524.944 689.065 522.527 689.065 519.546V526.374C698.552 532.518 704.736 542.831 704.736 554.514Z" fill="#FF8173"/>
<path d="M689.105 524.501V526.314C685.862 528.892 677.04 530.262 668.66 530.262C660.281 530.262 651.458 528.892 648.215 526.314V524.501C648.598 525.367 650.23 526.495 653.855 527.442C657.803 528.489 663.061 529.053 668.66 529.053C674.26 529.053 679.517 528.489 683.465 527.442C687.091 526.475 688.702 525.347 689.105 524.501Z" fill="white"/>
<path d="M689.105 519.546C689.105 522.527 679.94 524.944 668.66 524.944C657.38 524.944 648.215 522.527 648.215 519.546C648.215 519.163 648.356 518.8 648.638 518.438C650.572 516.001 658.79 514.147 668.66 514.147C678.53 514.147 686.749 515.98 688.682 518.438C688.944 518.8 689.105 519.163 689.105 519.546Z" fill="#66B0F0"/>
<path d="M641.286 545.953C642.71 545.953 643.864 544.799 643.864 543.375C643.864 541.951 642.71 540.796 641.286 540.796C639.862 540.796 638.708 541.951 638.708 543.375C638.708 544.799 639.862 545.953 641.286 545.953Z" stroke="#FFCF2D" stroke-width="1.20857" stroke-miterlimit="10"/>
<path d="M650.028 552.298C651.452 552.298 652.606 551.144 652.606 549.72C652.606 548.296 651.452 547.141 650.028 547.141C648.604 547.141 647.45 548.296 647.45 549.72C647.45 551.144 648.604 552.298 650.028 552.298Z" stroke="#FFCF2D" stroke-width="1.20857" stroke-miterlimit="10"/>
<path d="M660.905 544.765C662.329 544.765 663.484 543.61 663.484 542.186C663.484 540.762 662.329 539.608 660.905 539.608C659.481 539.608 658.327 540.762 658.327 542.186C658.327 543.61 659.481 544.765 660.905 544.765Z" stroke="#FFCF2D" stroke-width="1.20857" stroke-miterlimit="10"/>
<path d="M659.374 561.886C660.798 561.886 661.953 560.732 661.953 559.308C661.953 557.884 660.798 556.729 659.374 556.729C657.951 556.729 656.796 557.884 656.796 559.308C656.796 560.732 657.951 561.886 659.374 561.886Z" stroke="#FFCF2D" stroke-width="1.20857" stroke-miterlimit="10"/>
<path d="M649.706 569.399C651.13 569.399 652.284 568.245 652.284 566.821C652.284 565.397 651.13 564.243 649.706 564.243C648.282 564.243 647.128 565.397 647.128 566.821C647.128 568.245 648.282 569.399 649.706 569.399Z" stroke="#FFCF2D" stroke-width="1.20857" stroke-miterlimit="10"/>
<path d="M639.957 561.886C641.381 561.886 642.535 560.732 642.535 559.308C642.535 557.884 641.381 556.729 639.957 556.729C638.533 556.729 637.378 557.884 637.378 559.308C637.378 560.732 638.533 561.886 639.957 561.886Z" stroke="#FFCF2D" stroke-width="1.20857" stroke-miterlimit="10"/>
<path d="M651.438 536.385C652.862 536.385 654.016 535.231 654.016 533.807C654.016 532.383 652.862 531.229 651.438 531.229C650.014 531.229 648.86 532.383 648.86 533.807C648.86 535.231 650.014 536.385 651.438 536.385Z" stroke="#FFCF2D" stroke-width="1.20857" stroke-miterlimit="10"/>
<path d="M671.964 538.339C673.388 538.339 674.542 537.185 674.542 535.761C674.542 534.337 673.388 533.182 671.964 533.182C670.54 533.182 669.385 534.337 669.385 535.761C669.385 537.185 670.54 538.339 671.964 538.339Z" stroke="#FFCF2D" stroke-width="1.20857" stroke-miterlimit="10"/>
<path d="M669.808 553.97C671.232 553.97 672.387 552.816 672.387 551.392C672.387 549.968 671.232 548.813 669.808 548.813C668.384 548.813 667.23 549.968 667.23 551.392C667.23 552.816 668.384 553.97 669.808 553.97Z" stroke="#FFCF2D" stroke-width="1.20857" stroke-miterlimit="10"/>
<path d="M677.261 564.243C678.685 564.243 679.84 563.088 679.84 561.664C679.84 560.24 678.685 559.086 677.261 559.086C675.837 559.086 674.683 560.24 674.683 561.664C674.683 563.088 675.837 564.243 677.261 564.243Z" stroke="#FFCF2D" stroke-width="1.20857" stroke-miterlimit="10"/>
<path d="M667.593 571.978C669.017 571.978 670.171 570.823 670.171 569.399C670.171 567.975 669.017 566.821 667.593 566.821C666.169 566.821 665.014 567.975 665.014 569.399C665.014 570.823 666.169 571.978 667.593 571.978Z" stroke="#FFCF2D" stroke-width="1.20857" stroke-miterlimit="10"/>
<path d="M680.021 547.806C681.445 547.806 682.599 546.652 682.599 545.228C682.599 543.804 681.445 542.65 680.021 542.65C678.597 542.65 677.443 543.804 677.443 545.228C677.443 546.652 678.597 547.806 680.021 547.806Z" stroke="#FFCF2D" stroke-width="1.20857" stroke-miterlimit="10"/>
<path d="M687.494 537.231C688.918 537.231 690.072 536.077 690.072 534.653C690.072 533.229 688.918 532.075 687.494 532.075C686.07 532.075 684.916 533.229 684.916 534.653C684.916 536.077 686.07 537.231 687.494 537.231Z" stroke="#FFCF2D" stroke-width="1.20857" stroke-miterlimit="10"/>
<path d="M695.994 545.792C697.418 545.792 698.572 544.637 698.572 543.214C698.572 541.79 697.418 540.635 695.994 540.635C694.57 540.635 693.416 541.79 693.416 543.214C693.416 544.637 694.57 545.792 695.994 545.792Z" stroke="#FFCF2D" stroke-width="1.20857" stroke-miterlimit="10"/>
<path d="M686.265 554.232C687.689 554.232 688.843 553.077 688.843 551.653C688.843 550.229 687.689 549.075 686.265 549.075C684.841 549.075 683.687 550.229 683.687 551.653C683.687 553.077 684.841 554.232 686.265 554.232Z" stroke="#FFCF2D" stroke-width="1.20857" stroke-miterlimit="10"/>
<path d="M697.908 559.63C699.332 559.63 700.486 558.476 700.486 557.052C700.486 555.628 699.332 554.473 697.908 554.473C696.484 554.473 695.329 555.628 695.329 557.052C695.329 558.476 696.484 559.63 697.908 559.63Z" stroke="#FFCF2D" stroke-width="1.20857" stroke-miterlimit="10"/>
<path d="M690.072 569.54C691.496 569.54 692.65 568.386 692.65 566.962C692.65 565.538 691.496 564.384 690.072 564.384C688.648 564.384 687.494 565.538 687.494 566.962C687.494 568.386 688.648 569.54 690.072 569.54Z" stroke="#FFCF2D" stroke-width="1.20857" stroke-miterlimit="10"/>
<path d="M713.821 488.163C713.821 488.163 732.956 477.83 736.119 495.878C739.785 516.726 714.888 535.076 714.888 535.076C714.888 535.076 709.53 521.802 695.168 510.361C682.74 500.47 693.053 474.244 713.821 488.163Z" fill="white" stroke="#FFCF2D" stroke-width="1.20857" stroke-miterlimit="10"/>
<path d="M676.254 465.18C685.339 465.261 698.391 446.81 686.064 426.566C671.178 402.113 668.62 387.952 668.62 387.952C668.62 387.952 646.725 416.918 650.451 439.135C654.54 463.468 676.254 465.18 676.254 465.18Z" fill="#FFCF2D"/>
<path d="M677.825 452.893C691.099 456.398 703.709 448.321 703.971 429.91C704.434 397.359 710.598 386.764 710.598 386.764C710.598 386.764 669.244 401.65 662.98 424.774C657.018 446.81 677.825 452.893 677.825 452.893Z" fill="white" stroke="#FFCF2D" stroke-width="1.20857" stroke-miterlimit="10"/>
<path d="M622.352 474.325C621.868 474.365 621.365 474.406 620.821 474.446C592.258 476.581 584.04 502.726 584.04 502.726C584.04 502.726 582.288 500.833 582.65 494.287C583.335 477.407 598.865 459.963 616.591 471.042C618.565 472.291 620.499 473.358 622.352 474.325Z" fill="#FFCF2D"/>
<path d="M654.742 480.751C649.706 481.073 638.204 482.463 622.352 474.325C620.499 473.378 618.565 472.291 616.591 471.042C598.865 459.963 583.738 477.407 583.053 494.287C583.013 495.112 583.214 495.938 583.255 496.744C581.583 482.08 581.623 445.581 625.998 446.81C656.494 447.696 654.742 480.751 654.742 480.751Z" fill="white" stroke="#FFCF2D" stroke-width="1.20857" stroke-miterlimit="10"/>
<path d="M661.993 518.478C661.993 518.478 667.25 445.219 596.206 454.786" stroke="#FFCF2D" stroke-width="1.20857" stroke-miterlimit="10"/>
<path d="M710.598 386.764C665.84 432.488 674.179 518.478 674.179 518.478C669.466 485.585 698.391 452.893 713.8 487.297C718.393 497.53 714.868 535.056 714.868 535.056" stroke="#FFCF2D" stroke-width="1.20857" stroke-miterlimit="10"/>
<path d="M47.4143 460.89L41.4118 466.147C40.4449 464.999 39.5788 463.73 38.8335 462.34L1.40804 392.605C-0.163102 389.685 1.9519 386.16 5.25533 386.16H10.4925C14.6822 386.16 18.5093 388.456 20.4833 392.142L49.912 446.971C52.45 451.644 51.4026 457.425 47.4143 460.89Z" fill="#FFCF2D"/>
<path d="M149.297 462.421L62.2194 480.307V478.495C62.2194 469.813 68.3226 462.34 76.8229 460.588L132.921 449.066C141.381 447.334 149.297 453.799 149.297 462.421Z" fill="#FFCF2D"/>
<path d="M139.427 573.73V486.491C139.427 479.26 132.8 473.862 125.71 475.312L71.0218 486.532C64.5156 487.861 59.1576 492.413 56.7808 498.617L27.9161 573.73" stroke="#464E74" stroke-width="1.20857" stroke-miterlimit="10" stroke-linecap="round"/>
<path d="M1.18652 392.223L43.7081 471.445C47.3539 478.233 55.0082 481.818 62.5618 480.267L149.498 462.421" stroke="#464E74" stroke-width="1.20857" stroke-miterlimit="10" stroke-linecap="round"/>
<path d="M180.176 397.722H106.594V407.551H180.176V397.722Z" fill="#66B0F0"/>
<path d="M166.761 387.046C167.647 387.872 168.191 389.362 168.191 390.611C168.191 393.109 166.015 395.667 163.316 395.667H96.2003C96.2003 396.835 97.147 397.782 98.3153 397.782H179.31C181.485 397.782 183.439 396.976 184.869 395.647C186.299 394.338 187.165 392.505 187.165 390.49C187.165 386.462 183.64 383.219 179.31 383.219H98.3153C97.147 383.219 96.2003 384.166 96.2003 385.334V385.717H163.316C164.666 385.737 165.874 386.24 166.761 387.046Z" fill="#FF8173"/>
<path d="M101.055 385.737V395.486H96.2206V396.292H163.558C164.303 396.292 165.029 396.151 165.673 395.889C166.398 395.607 167.043 395.164 167.567 394.64C168.594 393.613 169.238 392.182 169.238 390.611C169.238 387.469 166.68 384.931 163.558 384.931H96.2206V385.737H101.055V385.737Z" fill="#FF8173"/>
<path d="M99.1815 385.737V395.486H163.316C166.016 395.486 168.191 393.31 168.191 390.611C168.191 389.262 167.647 388.053 166.761 387.167C165.875 386.281 164.666 385.737 163.316 385.737H99.1815V385.737Z" fill="white"/>
<path d="M99.1815 385.737V395.486" stroke="#FF8173" stroke-width="1.00714" stroke-miterlimit="10"/>
<path d="M154.353 392.646V400.783H159.973V393.693C159.973 392.001 161.342 390.631 163.034 390.631H165.532V389.584H157.394C155.743 389.584 154.353 390.954 154.353 392.646Z" fill="#FFCF2D"/>
<path d="M65.2815 415.971C65.2815 411.681 68.7662 408.196 73.0567 408.196H225.941C230.231 408.196 233.716 411.681 233.716 415.971" stroke="#464E74" stroke-width="1.20857" stroke-miterlimit="10" stroke-linecap="round"/>
<path d="M233.836 573.73L190.67 423.384C188.757 416.737 182.17 412.104 174.637 412.104H124.34C116.806 412.104 110.22 416.737 108.306 423.384L65.1602 573.73" stroke="#464E74" stroke-width="1.20857" stroke-miterlimit="10" stroke-linecap="round"/>
<path d="M270.073 547.705V569.621C270.073 571.897 271.906 573.73 274.183 573.73H328.971C328.971 573.73 329.293 563.558 320.954 560.718C306.794 555.904 300.187 547.705 300.187 547.705H270.073V547.705Z" fill="white" stroke="#FF8173" stroke-width="1.20857" stroke-miterlimit="10"/>
<path d="M300.549 558.925C302.785 558.301 310.842 553.849 308.083 551.089C306.774 549.78 303.631 551.089 303.631 551.089" stroke="#FF8173" stroke-width="1.20857" stroke-miterlimit="10"/>
<path d="M308.808 561.946C311.044 561.322 318.779 556.347 315.737 553.909C313.441 552.056 309.997 555.642 309.997 555.642" stroke="#FF8173" stroke-width="1.20857" stroke-miterlimit="10"/>
<path d="M301.879 549.478L270.073 559.368V547.705H300.207C300.207 547.705 300.751 548.39 301.879 549.478Z" fill="#FF8173"/>
<path d="M338.76 547.705V569.621C338.76 571.897 340.593 573.73 342.87 573.73H397.658C397.658 573.73 397.98 563.558 389.641 560.718C375.481 555.904 368.874 547.705 368.874 547.705H338.76V547.705Z" fill="white" stroke="#FF8173" stroke-width="1.20857" stroke-miterlimit="10"/>
<path d="M369.237 558.925C371.473 558.301 379.53 553.849 376.77 551.089C375.461 549.78 372.319 551.089 372.319 551.089" stroke="#FF8173" stroke-width="1.20857" stroke-miterlimit="10"/>
<path d="M377.495 561.946C379.731 561.322 387.466 556.347 384.424 553.909C382.128 552.056 378.684 555.642 378.684 555.642" stroke="#FF8173" stroke-width="1.20857" stroke-miterlimit="10"/>
<path d="M370.566 549.478L338.76 559.368V547.705H368.894C368.894 547.705 369.438 548.39 370.566 549.478Z" fill="#FF8173"/>
<path d="M284.878 329.558L265.038 537.271H306.532L327.38 436.618L335.9 458.07V537.271H379.107V448.462L356.063 329.558H284.878Z" fill="#3FB1B5"/>
<path d="M306.492 379.452L287.195 537.271" stroke="#464E74" stroke-width="1.20857" stroke-miterlimit="10"/>
<path d="M356.748 537.271V448.462L329.676 339.63" stroke="#464E74" stroke-width="1.20857" stroke-miterlimit="10"/>
<path d="M335.296 458.07L309.432 382.957C308.546 380.379 306.109 378.646 303.369 378.646" stroke="white" stroke-width="1.20857" stroke-miterlimit="10"/>
<path d="M281.595 363.902L284.878 329.558H356.063L358.098 340.113L281.595 363.902Z" fill="#464E74"/>
<path d="M379.187 547.705H335.739C334.107 547.705 332.778 546.376 332.778 544.744V540.232C332.778 538.601 334.107 537.271 335.739 537.271H379.187C380.819 537.271 382.148 538.601 382.148 540.232V544.744C382.128 546.376 380.819 547.705 379.187 547.705Z" fill="#464E74"/>
<path d="M307.277 547.705H263.829C262.197 547.705 260.868 546.376 260.868 544.744V540.232C260.868 538.601 262.197 537.271 263.829 537.271H307.277C308.909 537.271 310.238 538.601 310.238 540.232V544.744C310.218 546.376 308.909 547.705 307.277 547.705Z" fill="#464E74"/>
<path d="M423.24 335.641L436.856 386.583L368.975 404.731L355.338 353.75C354.915 352.159 353.888 350.91 352.579 350.144C351.269 349.379 349.658 349.117 348.067 349.54C344.904 350.386 343.011 353.649 343.857 356.812L357.493 407.793L356.003 408.196L342.386 357.255C341.298 353.206 343.635 349.057 347.623 347.848C347.704 347.828 347.785 347.808 347.865 347.788L413.773 330.163C417.902 329.075 422.132 331.532 423.24 335.641Z" fill="#66B0F0"/>
<path d="M356.849 353.407L370.465 404.349L368.975 404.752L355.338 353.77C354.915 352.179 353.888 350.93 352.578 350.164C351.269 349.399 349.658 349.137 348.066 349.56C344.904 350.406 343.011 353.669 343.857 356.832L357.493 407.813L356.003 408.216L342.386 357.275C341.298 353.226 343.635 349.077 347.623 347.868C351.672 346.921 355.761 349.359 356.849 353.407Z" fill="#464E74"/>
<path d="M355.338 353.75L368.129 401.609L356.647 404.671L343.857 356.812C343.011 353.649 344.884 350.386 348.066 349.54C349.658 349.117 351.269 349.379 352.578 350.144C353.888 350.91 354.915 352.159 355.338 353.75Z" fill="white"/>
<path d="M423.441 362.633L392.562 373.268L368.189 329.558H273.719C257.665 329.558 245.66 314.794 248.944 299.082L258.773 251.867C261.855 237.082 274.888 226.487 289.975 226.487H354.573C370.224 226.487 383.558 237.848 386.036 253.297L395.765 299.263L423.441 362.633Z" fill="#FFCF2D" stroke="white" stroke-width="1.20857" stroke-miterlimit="10"/>
<path d="M268.683 329.055C257.565 326.819 249.306 317.352 248.46 306.193C249.306 305.608 250.253 305.105 251.26 304.742C258.572 302.043 266.931 306.475 269.973 314.632C271.846 319.749 271.201 325.107 268.683 329.055Z" fill="white"/>
<path d="M339.022 198.166V226.507H307.741L314.952 207.654L339.022 198.166Z" fill="#FEC8C2"/>
<path d="M346.213 186.242C346.193 186.242 346.153 186.262 346.133 186.262L336.847 188.719C333.523 189.606 330.965 192.063 329.878 195.165H326.312C324.056 195.165 322.223 196.998 322.223 199.254V199.315C322.223 201.45 323.855 203.202 325.95 203.383C325.93 203.404 325.93 203.404 325.93 203.404C325.93 203.404 324.278 211.259 314.629 208.621C314.629 208.621 315.012 187.954 315.415 181.528C315.757 176.231 343.857 166.2 346.455 170.47C348.751 174.257 346.093 176.029 343.837 176.815C347.825 175.969 355.358 174.841 356.124 178.205C357.01 182.113 349.054 185.497 346.213 186.242Z" fill="#464E74"/>
<path d="M348.026 200.725H347.039L347.321 205.559C347.523 209.023 344.743 211.964 341.278 211.964H336.928C332.738 211.964 329.334 208.56 329.334 204.37V203.424H326.332C324.076 203.424 322.243 201.591 322.243 199.335V199.274C322.243 197.018 324.076 195.185 326.332 195.185H329.898C330.985 192.083 333.544 189.606 336.867 188.74L346.153 186.282L349.336 199.033C349.658 199.838 348.892 200.725 348.026 200.725Z" fill="#FEC8C2"/>
<path d="M330.28 204.753C329.857 209.185 334.289 212.347 338.478 212.347" stroke="#464E74" stroke-width="1.00714" stroke-miterlimit="10" stroke-linecap="round"/>
<path d="M328.649 200.02C328.649 198.448 327.38 197.179 325.809 197.179" stroke="#464E74" stroke-width="1.00714" stroke-miterlimit="10" stroke-linecap="round"/>
<path d="M344.602 197.139C345.013 197.139 345.347 196.445 345.347 195.588C345.347 194.732 345.013 194.037 344.602 194.037C344.19 194.037 343.857 194.732 343.857 195.588C343.857 196.445 344.19 197.139 344.602 197.139Z" fill="#464E74"/>
<path d="M341.379 192.325C341.379 192.325 343.857 190.432 347.402 190.432" stroke="#464E74" stroke-width="1.00714" stroke-miterlimit="10" stroke-linecap="round"/>
<path d="M331.791 342.47C331.791 342.47 356.466 343.537 365.148 323.737L360.555 315.337L346.838 320.615L331.791 342.47Z" fill="white" stroke="#FF8173" stroke-width="1.20857" stroke-miterlimit="10"/>
<path d="M351.551 221.312C350.363 221.412 349.275 221.936 348.469 222.742C347.583 223.628 347.019 224.857 347.019 226.226V325.47C347.019 334.937 339.345 342.612 329.877 342.612H291.828C281.595 342.612 273.699 333.729 274.787 323.637V323.617L288.484 229.409C289.169 224.756 293.137 221.312 297.85 221.312H351.551V221.312Z" fill="#FF8173" stroke="#FF8173" stroke-width="1.20857" stroke-miterlimit="10"/>
<path d="M347.725 221.311C346.537 221.411 345.449 221.935 344.643 222.741C343.898 223.486 343.394 224.453 343.253 225.541C343.233 225.762 343.213 225.984 343.213 226.205L342.407 233.799L332.739 325.449C332.739 334.916 325.064 342.591 315.597 342.591H291.849C281.616 342.591 273.72 333.708 274.808 323.616V323.596L280.992 281.014L288.505 229.388C288.565 228.945 288.666 228.502 288.787 228.058C289.955 224.09 293.621 221.29 297.851 221.29H347.725V221.311Z" fill="white" stroke="#FF8173" stroke-width="1.20857" stroke-miterlimit="10"/>
<path d="M339.244 241.071L335.638 268.123C334.45 273.662 330.139 276.623 323.895 277.63L281.192 283.834L287.416 241.051H339.244V241.071Z" fill="#FFCF2D"/>
<path d="M346.193 221.311H345.126C343.192 221.29 341.5 222.66 341.117 224.574L334.833 265.121C333.644 270.661 328.75 274.629 323.089 274.629H283.791C279.037 274.629 275.492 270.238 276.519 265.585L284.093 231.181C285.362 225.42 290.478 221.311 296.38 221.311H346.193Z" fill="#FF8173" stroke="#FF8173" stroke-width="1.20857" stroke-miterlimit="10"/>
<path d="M313.803 285.909L323.814 224.695C324.016 223.466 325.083 222.539 326.332 222.539C327.903 222.539 329.112 223.949 328.85 225.52L318.839 286.735C318.638 287.963 317.57 288.89 316.321 288.89C314.75 288.89 313.542 287.48 313.803 285.909Z" fill="white" stroke="#FF8173" stroke-width="1.20857" stroke-miterlimit="10"/>
<path d="M291.425 285.909L301.436 224.695C301.637 223.466 302.705 222.539 303.954 222.539C305.525 222.539 306.733 223.949 306.472 225.52L296.46 286.735C296.259 287.963 295.191 288.89 293.943 288.89C292.371 288.89 291.163 287.48 291.425 285.909Z" fill="white" stroke="#FF8173" stroke-width="1.20857" stroke-miterlimit="10"/>
<path d="M356.889 226.528L347.039 226.568V226.225C347.039 224.856 347.583 223.627 348.49 222.741C349.295 221.935 350.363 221.411 351.571 221.311H352.377C354.855 221.512 356.808 223.607 356.889 226.528Z" fill="white" stroke="#FF8173" stroke-width="1.20857" stroke-miterlimit="10"/>
<path d="M419.755 363.902L428.054 385.314C429.383 388.758 427.45 392.585 423.904 393.572L405.675 398.568C404.567 398.87 403.399 398.608 402.533 397.863L400.68 396.251L404.467 395.244C406.138 394.801 407.266 393.25 407.186 391.518L406.763 387.247C406.682 385.334 405.131 383.803 403.218 383.743H403.419C401.103 383.662 398.847 382.232 397.94 380.097L395.04 372.382L419.755 363.902Z" fill="#FEC8C2"/>
<path d="M401.062 396.674L404.043 395.869C405.715 395.425 406.843 394.076 406.763 392.344L406.541 387.67C406.461 385.757 404.91 384.226 402.996 384.166C400.68 384.085 398.625 382.655 397.719 380.52L394.617 373.208" stroke="white" stroke-width="1.20857" stroke-miterlimit="10" stroke-linecap="round"/>
<path d="M410.812 396.634C412.947 396.07 414.397 394.096 414.296 391.88L414.014 385.918" stroke="white" stroke-width="1.20857" stroke-miterlimit="10" stroke-linecap="round"/>
<path d="M418.526 394.64C420.661 394.076 422.112 392.102 422.011 389.886L421.729 383.924" stroke="white" stroke-width="1.20857" stroke-miterlimit="10" stroke-linecap="round"/>
<path d="M349.517 274.629L354.391 300.13C355.217 304.48 356.748 308.69 358.903 312.558L392.542 373.268L423.421 362.633" stroke="white" stroke-width="1.20857" stroke-miterlimit="10"/>
<path d="M369.922 332.459L358.903 312.558C357.05 309.194 355.66 305.608 354.774 301.882C355.822 301.54 356.909 301.298 358.057 301.197C366.759 300.432 374.474 307.744 375.3 317.513C375.783 323.435 373.628 328.894 369.922 332.459Z" fill="white"/>
</svg>
