<?xml version="1.0" encoding="UTF-8" standalone="no"?>
<!DOCTYPE svg PUBLIC "-//W3C//DTD SVG 1.1//EN" "http://www.w3.org/Graphics/SVG/1.1/DTD/svg11.dtd">
<svg version="1.1" xmlns="http://www.w3.org/2000/svg" xmlns:xlink="http://www.w3.org/1999/xlink" preserveAspectRatio="xMidYMid meet" viewBox="0 0 640 640" width="640" height="640"><defs><path d="M495.43 477.49C495.43 491.06 435.31 477.49 435.31 477.49C435.76 476.43 437.98 471.15 441.99 461.65C477.61 463.16 495.43 468.44 495.43 477.49Z" id="d5XkBqClLl"></path><path d="M268.33 641.12L257.27 607.19L235 641.12C176.23 642.03 143.57 642.03 137.04 641.12C139.27 555.15 174.89 471.44 177.12 460.13C179.34 448.81 184.66 402.07 184.66 402.07C194.39 381.1 245.38 379.13 285.34 381.03C301.91 381.8 316.6 383.25 325.67 384.29C331.66 384.97 335.2 385.46 335.2 385.46C351.16 402.18 361.45 424.97 367.77 450.42C390.57 542.12 361.91 641.12 361.91 641.12C348.56 640.22 317.36 640.22 268.33 641.12Z" id="k1zvAwunbs"></path><path d="M306.18 88.34C306.18 57.11 281.26 31.78 250.52 31.78C219.78 31.78 194.86 57.11 194.86 88.34C194.86 119.58 219.78 144.91 250.52 144.91C281.26 144.91 306.18 119.58 306.18 88.34Z" id="dYb8xkPNB"></path><path d="M172.59 192.42C148.1 212.78 268.33 192.42 268.33 192.42C268.33 192.42 241.61 147.17 261.65 126.81C281.69 106.44 212.67 101.92 212.67 101.92C204.65 120.02 197.08 172.05 172.59 192.42Z" id="c3nRiZzVVv"></path><path d="M289.28 395.68C227.28 402.68 192.84 406.57 185.95 407.35C185.95 407.35 185.46 406.02 184.59 403.59C177.09 382.8 140.95 281.63 136.97 251.24C132.51 217.3 179.27 176.58 179.27 176.58C179.27 176.58 223.8 167.53 237.16 167.53C250.52 167.53 303.95 187.89 303.95 187.89C305.28 200.04 311.92 260.75 323.88 370.04L325.59 385.81L326.22 391.51L289.28 395.68Z" id="e4pCCzeZ2k"></path><path d="M292.82 407.35C292.82 407.35 291.51 403.01 289.28 395.68C288.17 392.01 286.81 387.58 285.27 382.55C276.63 354.36 262.14 307.85 250.52 273.87C232.7 221.83 319.54 366.63 319.54 366.63C319.83 366.85 321.27 367.99 323.88 370.04C324.91 379.5 325.48 384.76 325.59 385.81C331.58 386.49 335.12 386.99 335.12 386.99C351.09 403.71 361.37 426.49 367.7 451.94C352.72 443.02 300.31 411.81 292.82 407.35Z" id="cFvqoLVpw"></path><path d="M263.87 273.87C281.69 325.9 306.18 407.35 306.18 407.35C314.79 412.48 357.83 438.12 435.31 484.27L453.12 461.65C380.99 404.64 340.91 372.96 332.9 366.63C332.9 366.63 328.44 194.68 306.18 187.89C283.91 181.1 268.33 192.42 268.33 192.42C267.44 208.71 246.06 221.83 263.87 273.87Z" id="c13iZQJuIE"></path><path d="M202.65 449.2C216.01 442.42 169.25 374.54 169.25 374.54C168.51 375.6 164.8 380.88 158.12 390.38C178.9 434.12 193.74 453.73 202.65 449.2Z" id="c4I4ZlXC1e"></path><path d="M36.78 310.06C36.78 310.06 -7.75 341.74 74.63 364.36C157.01 386.99 163.68 400.56 163.68 400.56C163.68 400.56 172.59 371.15 183.72 375.68C177.34 372.51 145.43 356.67 87.98 328.16L165.91 280.65L154.78 210.52C83.98 270.24 44.64 303.43 36.78 310.06Z" id="b1GLAI0wcP"></path><path d="M138.87 117.78C138.05 93.13 141.04 70.75 149.79 58.89C154.7 47.56 165 36.22 173.08 27.29C192.9 5.36 236.74 -6.88 244.52 4.08C303.33 5.26 309.52 52.1 309.52 52.1C309.21 71.7 289.17 72.32 271.62 71.6C273.19 84.98 269 98.88 256.87 105.04C233.67 116.83 226.71 132.15 238.31 142.76C249.91 153.37 270.79 181.65 242.95 188.73C215.11 195.8 211.63 209.94 219.75 215.84C227.87 221.73 201.19 205.23 201.19 205.23C201.19 205.23 196.55 233.52 172.2 226.44C170.01 225.81 167.83 224.19 165.69 221.76C159.11 229.1 153.24 233.44 148.82 233.47C123.48 233.61 126.52 205.09 126.52 205.09C126.52 205.09 96.45 213.67 105.83 210.22C115.22 206.77 115.62 192.2 90.69 177.76C65.76 163.33 93.37 141.81 107.35 134.77C113.55 131.65 127.22 125.36 138.87 117.78Z" id="e18PgwhTcm"></path><path d="M417.77 208.62C418.36 210.9 418.68 212.17 418.75 212.42C419.68 217.73 421.03 222.96 422.79 228.05C425.68 239.21 448.8 328.5 451.69 339.66C452.61 343.22 454.54 346.44 457.23 348.9C459.92 351.37 463.27 352.98 466.85 353.54C472.74 354.47 519.88 361.88 525.77 362.81C529.58 363.41 533.48 362.79 536.93 361.04C540.38 359.29 543.21 356.5 545.03 353.04C550.63 342.41 595.43 257.38 601.03 246.76C602.78 243.81 604.38 240.78 605.82 237.66C605.95 237.42 606.58 236.22 607.72 234.05C607.55 234.03 607.45 234.02 607.43 234.01C613.36 219.75 615.98 204.28 615.06 188.81C614.15 173.35 609.73 158.31 602.16 144.86C594.58 131.42 584.06 119.93 571.4 111.3C558.74 102.67 544.28 97.12 529.17 95.1C514.05 93.07 498.68 94.63 484.25 99.63C469.83 104.63 456.73 112.96 445.99 123.95C435.24 134.94 427.14 148.31 422.32 163C417.49 177.7 416.07 193.33 418.17 208.67C418.17 208.67 418.17 208.67 418.17 208.67L417.77 208.62Z" id="i4SpngRv"></path><path d="M526.29 369.86C520.13 368.89 470.85 361.14 464.69 360.17C460.78 359.56 457.13 357.8 454.19 355.11C451.25 352.41 449.15 348.91 448.14 345.01C445.12 333.35 420.96 240.01 417.94 228.34C416.09 223 414.67 217.52 413.7 211.95C413.62 211.44 413.01 207.35 412.93 206.84C410.88 190.54 412.58 173.97 417.91 158.45C423.23 142.92 432.04 128.87 443.63 117.4C455.21 105.93 469.27 97.35 484.67 92.34C500.08 87.34 516.43 86.04 532.42 88.55C532.39 88.72 532.17 90.12 532.15 90.3C516.33 87.82 500.17 89.13 484.94 94.13C469.72 99.13 455.85 107.67 444.46 119.08C433.06 130.49 424.44 144.45 419.29 159.85C414.15 175.24 412.61 191.64 414.81 207.75C414.87 208.13 415.34 211.19 415.39 211.57C416.36 217.09 417.77 222.53 419.6 227.83C422.62 239.5 446.8 332.89 449.82 344.57C450.74 348.12 452.67 351.33 455.36 353.79C458.04 356.26 461.38 357.87 464.96 358.43C471.12 359.4 520.4 367.14 526.56 368.11C530.36 368.71 534.25 368.09 537.7 366.34C541.14 364.59 543.97 361.81 545.79 358.36C545.94 358.44 547.17 359.11 547.32 359.19C545.58 362.49 542.99 365.24 539.84 367.16C536.68 369.08 533.07 370.1 529.39 370.1C528.35 370.1 527.31 370.02 526.29 369.86Z" id="c1bV8aIO9y"></path><path d="M507.54 338.03L509.65 338.81L547.13 234.83L545.01 234.04L507.54 338.03Z" id="a6O03ln6XD"></path><path d="M481.57 224.52L486.36 335.15L488.61 335.05L483.82 224.42L481.57 224.52Z" id="beBP07Q1x"></path><path d="M445.26 410.59C444.67 410.49 444.14 410.16 443.79 409.67C443.45 409.19 443.3 408.58 443.39 407.98C443.48 407.38 443.8 406.85 444.28 406.49C444.76 406.13 445.36 405.98 445.94 406.07C453.84 407.31 516.98 417.23 524.87 418.48C525.16 418.52 525.45 418.62 525.7 418.78C525.95 418.93 526.18 419.14 526.35 419.38C526.53 419.62 526.65 419.9 526.72 420.19C526.8 420.48 526.81 420.79 526.76 421.09C526.72 421.38 526.62 421.67 526.46 421.93C526.31 422.18 526.1 422.41 525.86 422.59C525.62 422.76 525.35 422.89 525.06 422.96C524.77 423.03 524.48 423.04 524.18 422.99C508.4 420.51 453.15 411.83 445.26 410.59Z" id="c8fzcwcvh"></path><path d="M447.28 393.56C446.99 393.51 446.71 393.41 446.45 393.25C446.2 393.1 445.98 392.89 445.8 392.65C445.62 392.41 445.5 392.13 445.43 391.84C445.36 391.55 445.34 391.24 445.39 390.94C445.43 390.65 445.54 390.36 445.69 390.1C445.85 389.85 446.05 389.62 446.29 389.45C446.53 389.27 446.8 389.14 447.09 389.07C447.38 389 447.68 388.99 447.97 389.04C455.86 390.28 519 400.2 526.89 401.44C527.19 401.49 527.47 401.59 527.72 401.75C527.98 401.9 528.2 402.11 528.38 402.35C528.55 402.59 528.68 402.87 528.75 403.16C528.82 403.45 528.83 403.76 528.79 404.06C528.74 404.35 528.64 404.64 528.48 404.9C528.33 405.15 528.13 405.38 527.89 405.55C527.65 405.73 527.38 405.86 527.09 405.93C526.8 406 526.5 406.01 526.21 405.96C510.42 403.48 455.17 394.8 447.28 393.56Z" id="b3N5ztOsbk"></path><path d="M449.3 376.52C448.72 376.43 448.19 376.1 447.84 375.61C447.49 375.12 447.35 374.51 447.44 373.92C447.53 373.32 447.85 372.78 448.33 372.43C448.81 372.07 449.4 371.92 449.99 372.01C457.88 373.25 521.03 383.17 528.92 384.41C529.5 384.51 530.03 384.84 530.38 385.33C530.73 385.81 530.87 386.42 530.78 387.02C530.69 387.62 530.37 388.15 529.9 388.51C529.42 388.87 528.82 389.02 528.23 388.93C528.23 388.93 528.23 388.93 528.23 388.93C480.87 381.49 454.57 377.35 449.3 376.52Z" id="ccZDHjQhl"></path><path d="M513.63 417.56C507.96 416.67 462.6 409.54 456.94 408.65C455.27 419.58 466.61 430.44 482.27 432.9C497.92 435.37 511.96 428.49 513.63 417.56Z" id="bpVl5BVqO"></path><path d="M502.95 207.09C502.45 206.49 501.97 205.88 501.48 205.26C499.7 203.01 498.02 200.88 495.68 199.78C490.52 197.33 484.43 200.75 479.17 204.42C479.04 204.23 478.02 202.72 477.89 202.53C483.68 198.5 490.44 194.77 496.63 197.7C499.44 199.04 501.37 201.47 503.23 203.83C503.7 204.43 504.18 205.03 504.66 205.6C506.25 207.49 509.42 210.54 512.81 209.84C514.24 209.41 515.57 208.7 516.72 207.73C517.6 207.07 518.52 206.48 519.49 205.96C521.45 205 523.64 204.66 525.79 204.97C527.95 205.28 529.96 206.23 531.58 207.7C532.16 208.25 532.71 208.84 533.22 209.46C534.24 210.63 535.19 211.74 536.44 212.14C538.27 212.74 540.22 211.67 542.28 210.54C544.4 209.38 546.6 208.17 549.09 208.47C549.17 208.48 549.25 208.49 549.33 208.5C553.76 209.2 555.8 214.18 556.96 217.9C556.74 217.97 555.03 218.52 554.81 218.59C553.24 213.53 551.33 211.02 548.82 210.74C547.04 210.53 545.24 211.51 543.35 212.55C540.96 213.86 538.5 215.21 535.75 214.32C533.91 213.72 532.7 212.32 531.53 210.97C531.07 210.41 530.58 209.88 530.06 209.38C528.77 208.23 527.18 207.49 525.48 207.25C523.78 207 522.04 207.27 520.49 208.01C519.63 208.47 518.8 209.01 518.02 209.6C516.62 210.76 515 211.6 513.26 212.08C512.4 212.26 511.51 212.28 510.64 212.14C507.27 211.61 504.48 208.9 502.95 207.09Z" id="c3zI0xU6P"></path></defs><g><g><g><use xlink:href="#d5XkBqClLl" opacity="1" fill="#a0616a" fill-opacity="1"></use><g><use xlink:href="#d5XkBqClLl" opacity="1" fill-opacity="0" stroke="#000000" stroke-width="1" stroke-opacity="0"></use></g></g><g><use xlink:href="#k1zvAwunbs" opacity="1" fill="#66b0f0" fill-opacity="1"></use><g><use xlink:href="#k1zvAwunbs" opacity="1" fill-opacity="0" stroke="#000000" stroke-width="1" stroke-opacity="0"></use></g></g><g><use xlink:href="#dYb8xkPNB" opacity="1" fill="#a0616a" fill-opacity="1"></use><g><use xlink:href="#dYb8xkPNB" opacity="1" fill-opacity="0" stroke="#000000" stroke-width="1" stroke-opacity="0"></use></g></g><g><use xlink:href="#c3nRiZzVVv" opacity="1" fill="#a0616a" fill-opacity="1"></use><g><use xlink:href="#c3nRiZzVVv" opacity="1" fill-opacity="0" stroke="#000000" stroke-width="1" stroke-opacity="0"></use></g></g><g><use xlink:href="#e4pCCzeZ2k" opacity="1" fill="#d0cde1" fill-opacity="1"></use><g><use xlink:href="#e4pCCzeZ2k" opacity="1" fill-opacity="0" stroke="#000000" stroke-width="1" stroke-opacity="0"></use></g></g><g><use xlink:href="#cFvqoLVpw" opacity="1" fill="#000000" fill-opacity="1"></use><g><use xlink:href="#cFvqoLVpw" opacity="1" fill-opacity="0" stroke="#000000" stroke-width="1" stroke-opacity="0"></use></g></g><g><use xlink:href="#c13iZQJuIE" opacity="1" fill="#d0cde1" fill-opacity="1"></use><g><use xlink:href="#c13iZQJuIE" opacity="1" fill-opacity="0" stroke="#000000" stroke-width="1" stroke-opacity="0"></use></g></g><g><use xlink:href="#c4I4ZlXC1e" opacity="1" fill="#a0616a" fill-opacity="1"></use><g><use xlink:href="#c4I4ZlXC1e" opacity="1" fill-opacity="0" stroke="#000000" stroke-width="1" stroke-opacity="0"></use></g></g><g><use xlink:href="#b1GLAI0wcP" opacity="1" fill="#d0cde1" fill-opacity="1"></use><g><use xlink:href="#b1GLAI0wcP" opacity="1" fill-opacity="0" stroke="#000000" stroke-width="1" stroke-opacity="0"></use></g></g><g><use xlink:href="#e18PgwhTcm" opacity="1" fill="#2f2e41" fill-opacity="1"></use><g><use xlink:href="#e18PgwhTcm" opacity="1" fill-opacity="0" stroke="#000000" stroke-width="1" stroke-opacity="0"></use></g></g><g><use xlink:href="#i4SpngRv" opacity="1" fill="#f5e76a" fill-opacity="1"></use><g><use xlink:href="#i4SpngRv" opacity="1" fill-opacity="0" stroke="#000000" stroke-width="1" stroke-opacity="0"></use></g></g><g><use xlink:href="#c1bV8aIO9y" opacity="1" fill="#d0cde1" fill-opacity="1"></use><g><use xlink:href="#c1bV8aIO9y" opacity="1" fill-opacity="0" stroke="#000000" stroke-width="1" stroke-opacity="0"></use></g></g><g><use xlink:href="#a6O03ln6XD" opacity="1" fill="#605f5f" fill-opacity="1"></use><g><use xlink:href="#a6O03ln6XD" opacity="1" fill-opacity="0" stroke="#000000" stroke-width="1" stroke-opacity="0"></use></g></g><g><use xlink:href="#beBP07Q1x" opacity="1" fill="#605f5f" fill-opacity="1"></use><g><use xlink:href="#beBP07Q1x" opacity="1" fill-opacity="0" stroke="#000000" stroke-width="1" stroke-opacity="0"></use></g></g><g><use xlink:href="#c8fzcwcvh" opacity="1" fill="#3f3d56" fill-opacity="1"></use><g><use xlink:href="#c8fzcwcvh" opacity="1" fill-opacity="0" stroke="#000000" stroke-width="1" stroke-opacity="0"></use></g></g><g><use xlink:href="#b3N5ztOsbk" opacity="1" fill="#3f3d56" fill-opacity="1"></use><g><use xlink:href="#b3N5ztOsbk" opacity="1" fill-opacity="0" stroke="#000000" stroke-width="1" stroke-opacity="0"></use></g></g><g><use xlink:href="#ccZDHjQhl" opacity="1" fill="#3f3d56" fill-opacity="1"></use><g><use xlink:href="#ccZDHjQhl" opacity="1" fill-opacity="0" stroke="#000000" stroke-width="1" stroke-opacity="0"></use></g></g><g><use xlink:href="#bpVl5BVqO" opacity="1" fill="#3f3d56" fill-opacity="1"></use><g><use xlink:href="#bpVl5BVqO" opacity="1" fill-opacity="0" stroke="#000000" stroke-width="1" stroke-opacity="0"></use></g></g><g><use xlink:href="#c3zI0xU6P" opacity="1" fill="#605f5f" fill-opacity="1"></use><g><use xlink:href="#c3zI0xU6P" opacity="1" fill-opacity="0" stroke="#000000" stroke-width="1" stroke-opacity="0"></use></g></g></g></g></svg>