<?xml version="1.0" encoding="UTF-8" standalone="no"?>
<!DOCTYPE svg PUBLIC "-//W3C//DTD SVG 1.1//EN" "http://www.w3.org/Graphics/SVG/1.1/DTD/svg11.dtd">
<svg version="1.1" xmlns="http://www.w3.org/2000/svg" xmlns:xlink="http://www.w3.org/1999/xlink" preserveAspectRatio="xMidYMid meet" viewBox="0 0 640 640" width="640" height="640"><defs><path d="M154.36 378.34C154.36 378.34 147.28 378.36 143.84 388.87C143.84 388.87 117.83 446.67 121.41 450.16C121.41 450.16 126.74 451.9 123.23 455.4C123.23 455.4 117.93 457.17 119.74 460.66C121.54 464.16 102.94 555.19 113.9 590.15C124.86 625.12 126.79 640.86 133.87 640.85C152.23 640.8 299.11 640.46 317.47 640.41C317.47 640.41 328 572.15 320.9 570.42C313.8 568.68 191.55 561.97 191.55 561.97C191.55 561.97 193.33 380 166.75 378.31C164.28 378.32 155.6 378.34 154.36 378.34Z" id="b7lRU7ytAP"></path><path d="M269.37 303.95C269.37 303.95 310.08 374.52 310.08 374.52C316.17 368.3 364.89 318.48 370.99 312.26C370.99 312.26 363.56 230.11 367.49 226.22C371.42 222.33 263.83 235.49 263.83 235.49C264.94 249.18 271.34 300.04 269.37 303.95Z" id="k1Qaa1NCgE"></path><path d="M269.37 303.95C269.37 303.95 310.08 374.52 310.08 374.52C316.17 368.3 364.89 318.48 370.99 312.26C370.99 312.26 363.56 230.11 367.49 226.22C371.42 222.33 263.83 235.49 263.83 235.49C264.94 249.18 271.34 300.04 269.37 303.95Z" id="a2xRRWEp45"></path><path d="M297.04 136.75C257.48 147.64 234.24 188.53 245.12 228.09C256.01 267.65 296.9 290.89 336.46 280.01C376.02 269.12 399.26 228.23 388.38 188.67C377.49 149.11 336.6 125.87 297.04 136.75Z" id="g1Z4tpwTji"></path><path d="M316.17 327.63L308.37 323.68C284.94 304.36 271.93 293.62 269.33 291.47C269.33 291.47 265.52 290.24 265.47 301.97C265.46 302.75 265.44 306.66 265.41 313.7L241.86 331.18L252.3 597.11L420.43 597.93L415.86 330.07L376.88 306.42L369.29 291.92L327.92 323.78L316.17 327.63Z" id="b63LoBAg6S"></path><path d="M211.03 636.01L215.09 636.03L476.93 637.3C481.3 462.55 483.73 365.47 484.21 346.05C484.21 346.05 460.81 336.15 445.14 338.03C445.14 338.03 412.01 316.36 400.29 316.3C388.56 316.25 369.12 292.7 369.12 292.7C369.12 292.7 368.88 341.57 355.03 376.69C341.17 411.81 330.87 523.21 330.87 523.21C326.76 511.07 306.2 450.36 269.19 341.09C268.75 311.17 268.5 294.55 268.45 291.23C262.58 297.31 257.61 304.21 253.68 311.7C247.76 323.38 228.16 336.97 228.16 336.97C228.16 336.97 175.22 368 165.42 371.87C155.63 375.72 151.69 379.63 151.69 379.63C152.09 382.8 154.07 398.67 157.64 427.24L161.01 454.21L211.03 636.01Z" id="e2458onPp"></path><path d="M211.2 606.69C211.01 607.02 210.07 608.68 208.39 611.66L205.66 616.49C167.75 478.73 146.69 402.19 142.48 386.89C143.21 385.46 144.25 384.21 145.53 383.23C147.41 381.76 149.49 380.55 151.69 379.63C152.48 379.63 158.74 379.66 159.53 379.66C159.53 379.66 213.65 506.99 215.52 522.65C217.4 538.29 212.06 589.88 211.2 606.69Z" id="ba6aLpJsG"></path><path d="M403.03 556.79C403.03 556.79 420.99 482.59 452.23 490.56C452.23 490.56 451.93 553.12 451.93 553.12C442.15 553.85 412.81 556.05 403.03 556.79Z" id="a14wpsDRR"></path><path d="M285.71 562.08C285.71 562.08 211.43 559.77 211.4 565.63C211.4 565.63 201.42 608.6 207.28 608.62C207.28 608.62 258.12 606.92 258.11 608.87C258.11 608.87 281.54 614.85 281.54 614.85C282.38 604.3 284.87 572.64 285.71 562.08Z" id="a4HIpXaQHL"></path><path d="M320.04 335.47L310.27 335.42L267.3 321.3L265.18 360.62L310.22 345.2L320 345.25L364.88 361.1L363.14 321.77L363.14 321.77L320.04 335.47Z" id="a6ywC28J9s"></path><path d="M317.82 640.92L214.43 640.98L211.03 636.01L202.72 605.8L206.89 606.23L211.2 606.69L320.59 624.82L320.59 624.82L317.82 640.92Z" id="b1vM6Fpzi3"></path><path d="M307.21 562.19C307.21 562.19 281.82 558.16 281.81 560.11C281.81 560.11 265.86 622.59 273.68 622.63C273.68 622.63 310.8 628.68 310.8 628.68C310.08 615.38 307.93 575.49 307.21 562.19Z" id="a1v5kLYGqN"></path><path d="M484.21 348C484.21 348 492.03 348.04 495.88 359.79C495.88 359.79 524.9 424.44 520.97 428.33C520.97 428.33 515.09 430.26 518.98 434.19C518.98 434.19 524.84 436.17 522.86 440.07C520.89 443.97 541.9 545.73 529.98 584.78C518.06 623.82 516.02 641.4 508.2 641.37C487.93 641.27 325.78 640.48 305.51 640.38C305.51 640.38 293.53 564.08 301.36 562.16C309.19 560.25 444.12 553.08 444.12 553.08C444.12 553.08 441.19 349.75 470.53 347.93C473.26 347.95 482.84 347.99 484.21 348Z" id="f2ZSxaOvXV"></path><path d="M238.87 136.29C238.87 136.29 268.49 106.96 309.48 109.73C308.33 108.57 299.15 99.3 298 98.14C298 98.14 326.25 88.02 351.74 115.06C365.15 129.27 380.65 145.97 390.28 164.75C391.29 164.75 396.32 164.78 405.38 164.82L399.01 177.39L421 190.1C407.43 188.68 399.89 187.89 398.38 187.73C400.47 198.62 399.68 209.86 396.08 220.35C395.56 221.76 391.41 233.01 390.89 234.42C390.89 234.42 370.58 193.32 370.61 188.19C370.6 189.47 370.55 199.72 370.55 201C370.55 201 356.51 189.4 356.55 181.72C356.03 182.31 353.45 185.29 348.81 190.65L345.04 176.53L297.56 190.4L305.3 178.9L275.81 182.61C282.77 174.18 286.64 169.5 287.41 168.57C287.41 168.57 254.01 185.06 252.66 199.15C251.31 213.24 234.57 231.1 234.57 231.1C233.81 229.81 227.71 219.53 226.94 218.25C226.94 218.25 215.69 160.53 252.94 141.49C250.13 140.45 240.28 136.81 238.87 136.29Z" id="fsL8O5NRA"></path><path d="M235.41 174.03C235.34 172.48 235.31 171.61 235.3 171.44C234.22 146.23 180.19 113.66 179.64 113.33C179.58 113.29 179.26 113.1 178.68 112.76C178.69 112.09 178.69 111.72 178.69 111.64C178.71 108.46 181.31 104.92 212.18 103.22C224.2 102.55 236.33 102.44 241.42 102.42C237.17 89.03 215.45 75.71 215.22 75.57C215.03 75.46 214.13 74.9 212.49 73.91C214.12 72.9 215.02 72.34 215.2 72.23C232.99 61.24 260.82 73.82 269.89 78.48C269.9 75.39 269.98 59.89 270.11 32.01C290.31 49.27 301.54 58.87 303.78 60.78C312.43 34.74 333.93 29.78 334.87 29.57C335.07 29.53 336.08 29.31 337.9 28.92C337.48 30.73 337.24 31.73 337.19 31.93C332.19 53.13 333.71 65.73 335.24 71.73C353.28 32.52 378.19 28.65 379.28 28.5C379.53 28.46 380.79 28.29 383.07 27.97C381.99 30 381.39 31.13 381.27 31.35C356.39 78.07 365.72 128.11 365.81 128.61C365.84 128.72 365.94 129.28 366.14 130.29L235.41 174.03ZM238.95 168.73C251.22 164.62 349.42 131.76 361.69 127.65C360.32 118.65 355.22 75.4 375.75 33.55C367.83 36.51 349.95 46.41 336.87 77.75C336.77 77.99 336.27 79.19 335.37 81.35C334.18 79.34 333.52 78.22 333.39 78C333.07 77.47 326.05 65.14 332.64 34.36C326.39 36.73 312.37 44.2 306.67 64.73C306.61 64.93 306.34 65.92 305.84 67.69L273.98 40.46L273.76 85.13C272.01 84.12 271.04 83.56 270.85 83.44C270.52 83.26 239.52 65.61 220.1 74.07C226.95 78.68 243.75 91.18 245.83 104.06C245.85 104.21 245.98 104.97 246.2 106.34C244.81 106.33 244.04 106.33 243.89 106.33C218.25 106.2 189.5 107.99 183.53 111.13C193.14 117.12 235.15 144.53 238.95 168.73Z" id="e2hlJUOLvS"></path><path d="M378.96 8.94C378.98 5.06 382.13 1.94 386.01 1.96C389.88 1.98 393 5.13 392.98 9.01C392.96 12.88 389.81 16 385.94 15.98C382.06 15.96 378.94 12.81 378.96 8.94ZM382.87 8.96C382.86 10.67 384.24 12.07 385.96 12.07C387.67 12.08 389.07 10.7 389.07 8.99C389.08 7.27 387.7 5.88 385.99 5.87C384.27 5.86 382.88 7.24 382.87 8.96Z" id="amG7EWeZ8"></path><path d="M328.39 8.69C328.4 4.82 331.56 1.69 335.43 1.71C339.3 1.73 342.43 4.89 342.41 8.76C342.41 8.76 342.41 8.76 342.41 8.76C342.39 12.63 339.23 15.75 335.36 15.74C331.49 15.72 328.37 12.56 328.39 8.69ZM332.3 8.71C332.29 10.42 333.67 11.82 335.38 11.83C337.1 11.84 338.49 10.45 338.5 8.74C338.5 8.74 338.5 8.74 338.5 8.74C338.51 7.03 337.13 5.63 335.41 5.62C333.7 5.61 332.3 7 332.3 8.71Z" id="ccT6sjPYZ"></path><path d="M254.99 20.98C255.01 17.11 258.17 13.98 262.04 14C265.91 14.02 269.04 17.18 269.02 21.05C268.99 24.92 265.84 28.04 261.97 28.03C258.1 28.01 254.97 24.85 254.99 20.98ZM258.9 21C258.89 22.71 260.28 24.11 261.99 24.12C263.7 24.12 265.1 22.74 265.11 21.03C265.11 19.32 263.73 17.92 262.02 17.91C260.31 17.9 258.91 19.29 258.9 21Z" id="a4WZlYttn"></path><path d="M155.96 106.48C155.98 102.6 159.13 99.48 163 99.5C166.88 99.52 170 102.67 169.98 106.54C169.96 110.42 166.81 113.54 162.93 113.52C159.06 113.5 155.94 110.35 155.96 106.48ZM159.87 106.5C159.86 108.21 161.24 109.6 162.95 109.61C164.67 109.62 166.06 108.24 166.07 106.53C166.08 104.81 164.7 103.42 162.98 103.41C161.27 103.4 159.87 104.78 159.87 106.5Z" id="f3bDy0V8uI"></path><path d="M191.57 63.66C191.59 59.79 194.74 56.66 198.61 56.68C202.49 56.7 205.61 59.86 205.59 63.73C205.59 63.73 205.59 63.73 205.59 63.73C205.57 67.6 202.42 70.72 198.55 70.71C194.67 70.69 191.55 67.53 191.57 63.66ZM195.48 63.68C195.47 65.39 196.85 66.79 198.56 66.8C200.28 66.8 201.67 65.42 201.68 63.71C201.68 63.71 201.68 63.71 201.68 63.71C201.69 62 200.31 60.6 198.59 60.59C196.88 60.58 195.49 61.97 195.48 63.68Z" id="ayDNiQiOf"></path></defs><g><g><g><use xlink:href="#b7lRU7ytAP" opacity="1" fill="#2f2e41" fill-opacity="1"></use><g><use xlink:href="#b7lRU7ytAP" opacity="1" fill-opacity="0" stroke="#000000" stroke-width="1" stroke-opacity="0"></use></g></g><g><use xlink:href="#k1Qaa1NCgE" opacity="1" fill="#ffb8b8" fill-opacity="1"></use><g><use xlink:href="#k1Qaa1NCgE" opacity="1" fill-opacity="0" stroke="#000000" stroke-width="1" stroke-opacity="0"></use></g></g><g><use xlink:href="#a2xRRWEp45" opacity="1" fill="#f59797" fill-opacity="1"></use><g><use xlink:href="#a2xRRWEp45" opacity="1" fill-opacity="0" stroke="#000000" stroke-width="1" stroke-opacity="0"></use></g></g><g><use xlink:href="#g1Z4tpwTji" opacity="1" fill="#ffb8b8" fill-opacity="1"></use><g><use xlink:href="#g1Z4tpwTji" opacity="1" fill-opacity="0" stroke="#000000" stroke-width="1" stroke-opacity="0"></use></g></g><g><use xlink:href="#b63LoBAg6S" opacity="1" fill="#ffffff" fill-opacity="1"></use><g><use xlink:href="#b63LoBAg6S" opacity="1" fill-opacity="0" stroke="#000000" stroke-width="1" stroke-opacity="0"></use></g></g><g><use xlink:href="#e2458onPp" opacity="1" fill="#2f2e41" fill-opacity="1"></use><g><use xlink:href="#e2458onPp" opacity="1" fill-opacity="0" stroke="#000000" stroke-width="1" stroke-opacity="0"></use></g></g><g><use xlink:href="#ba6aLpJsG" opacity="1" fill="#2f2e41" fill-opacity="1"></use><g><use xlink:href="#ba6aLpJsG" opacity="1" fill-opacity="0" stroke="#000000" stroke-width="1" stroke-opacity="0"></use></g></g><g><use xlink:href="#a14wpsDRR" opacity="1" fill="#ffb8b8" fill-opacity="1"></use><g><use xlink:href="#a14wpsDRR" opacity="1" fill-opacity="0" stroke="#000000" stroke-width="1" stroke-opacity="0"></use></g></g><g><use xlink:href="#a4HIpXaQHL" opacity="1" fill="#ffb8b8" fill-opacity="1"></use><g><use xlink:href="#a4HIpXaQHL" opacity="1" fill-opacity="0" stroke="#000000" stroke-width="1" stroke-opacity="0"></use></g></g><g><use xlink:href="#a6ywC28J9s" opacity="1" fill="#f5e86a" fill-opacity="1"></use><g><use xlink:href="#a6ywC28J9s" opacity="1" fill-opacity="0" stroke="#000000" stroke-width="1" stroke-opacity="0"></use></g></g><g><use xlink:href="#b1vM6Fpzi3" opacity="1" fill="#2f2e41" fill-opacity="1"></use><g><use xlink:href="#b1vM6Fpzi3" opacity="1" fill-opacity="0" stroke="#000000" stroke-width="1" stroke-opacity="0"></use></g></g><g><use xlink:href="#a1v5kLYGqN" opacity="1" fill="#ffffff" fill-opacity="1"></use><g><use xlink:href="#a1v5kLYGqN" opacity="1" fill-opacity="0" stroke="#000000" stroke-width="1" stroke-opacity="0"></use></g></g><g><use xlink:href="#f2ZSxaOvXV" opacity="1" fill="#2f2e41" fill-opacity="1"></use><g><use xlink:href="#f2ZSxaOvXV" opacity="1" fill-opacity="0" stroke="#000000" stroke-width="1" stroke-opacity="0"></use></g></g><g><use xlink:href="#fsL8O5NRA" opacity="1" fill="#2f2e41" fill-opacity="1"></use><g><use xlink:href="#fsL8O5NRA" opacity="1" fill-opacity="0" stroke="#000000" stroke-width="1" stroke-opacity="0"></use></g></g><g><use xlink:href="#e2hlJUOLvS" opacity="1" fill="#f5e86a" fill-opacity="1"></use><g><use xlink:href="#e2hlJUOLvS" opacity="1" fill-opacity="0" stroke="#000000" stroke-width="1" stroke-opacity="0"></use></g></g><g><use xlink:href="#amG7EWeZ8" opacity="1" fill="#f5e86a" fill-opacity="1"></use><g><use xlink:href="#amG7EWeZ8" opacity="1" fill-opacity="0" stroke="#000000" stroke-width="1" stroke-opacity="0"></use></g></g><g><use xlink:href="#ccT6sjPYZ" opacity="1" fill="#f5e86a" fill-opacity="1"></use><g><use xlink:href="#ccT6sjPYZ" opacity="1" fill-opacity="0" stroke="#000000" stroke-width="1" stroke-opacity="0"></use></g></g><g><use xlink:href="#a4WZlYttn" opacity="1" fill="#f5e86a" fill-opacity="1"></use><g><use xlink:href="#a4WZlYttn" opacity="1" fill-opacity="0" stroke="#000000" stroke-width="1" stroke-opacity="0"></use></g></g><g><use xlink:href="#f3bDy0V8uI" opacity="1" fill="#f5e86a" fill-opacity="1"></use><g><use xlink:href="#f3bDy0V8uI" opacity="1" fill-opacity="0" stroke="#000000" stroke-width="1" stroke-opacity="0"></use></g></g><g><use xlink:href="#ayDNiQiOf" opacity="1" fill="#f5e86a" fill-opacity="1"></use><g><use xlink:href="#ayDNiQiOf" opacity="1" fill-opacity="0" stroke="#000000" stroke-width="1" stroke-opacity="0"></use></g></g></g></g></svg>