<svg width="602" height="496" viewBox="0 0 602 496" fill="none" xmlns="http://www.w3.org/2000/svg">
<path d="M209.948 491.451H442.874" stroke="#FFCF2D" stroke-width="6" stroke-miterlimit="10" stroke-linecap="round"/>
<path d="M326.329 304.477V387.275C326.329 412.765 340.887 436.432 364.794 449.81L398.441 468.64" stroke="#66B0F0" stroke-width="6" stroke-miterlimit="10" stroke-linecap="round" stroke-linejoin="round"/>
<path d="M308.101 304.477V387.275C308.101 412.765 293.543 436.432 269.635 449.81L235.988 468.64" stroke="#66B0F0" stroke-width="6" stroke-miterlimit="10" stroke-linecap="round" stroke-linejoin="round"/>
<path d="M295.86 304.477H336.888C340.518 304.477 343.45 301.816 343.45 298.523V289.126H289.299V298.523C289.299 301.816 292.231 304.477 295.86 304.477Z" fill="white" stroke="#66B0F0" stroke-width="6" stroke-miterlimit="10"/>
<path d="M399.959 491.451C391.634 491.451 384.888 485.329 384.888 477.775C384.888 470.221 391.634 464.1 399.959 464.1C408.283 464.1 415.029 470.221 415.029 477.775C415.029 485.329 408.283 491.451 399.959 491.451Z" fill="white" stroke="#FFCF2D" stroke-width="6" stroke-miterlimit="10"/>
<path d="M235.66 491.451C227.335 491.451 220.59 485.329 220.59 477.775C220.59 470.221 227.335 464.1 235.66 464.1C243.985 464.1 250.73 470.221 250.73 477.775C250.73 485.329 243.985 491.451 235.66 491.451Z" fill="white" stroke="#FFCF2D" stroke-width="6" stroke-miterlimit="10"/>
<path d="M235.66 488.567C229.099 488.567 223.768 483.729 223.768 477.775C223.768 471.821 229.099 466.984 235.66 466.984C242.221 466.984 247.552 471.821 247.552 477.775C247.552 483.729 242.221 488.567 235.66 488.567Z" fill="white" stroke="#FFCF2D" stroke-width="6" stroke-miterlimit="10"/>
<path d="M399.897 488.567C393.336 488.567 388.005 483.729 388.005 477.775C388.005 471.821 393.336 466.984 399.897 466.984C406.459 466.984 411.79 471.821 411.79 477.775C411.79 483.729 406.459 488.567 399.897 488.567Z" fill="white" stroke="#FFCF2D" stroke-width="6" stroke-miterlimit="10"/>
<path d="M295.06 427.278C295.06 427.278 314.58 414.291 339.41 427.278" stroke="#66B0F0" stroke-width="6" stroke-miterlimit="10" stroke-linecap="round" stroke-linejoin="round"/>
<path d="M325.857 281.703L306.994 456.843H365.122L412.917 299.248C421.713 273.534 402.788 247.374 373.324 247.318H369.223C347.407 247.262 328.912 261.943 325.857 281.703Z" fill="#6B91DF"/>
<path d="M318.353 456.843H348.986L344.167 471.151C338.119 465.681 329.692 461.737 320.485 461.234C319.624 461.178 318.783 461.16 317.943 461.16L318.353 456.843Z" fill="#FEC8C2"/>
<path d="M353.497 491.339C355.096 477.868 339.431 462.276 320.465 461.216C301.499 460.155 289.791 471.524 288.868 485.032C288.725 487.078 288.519 489.572 289.012 491.395L353.497 491.339Z" fill="white" stroke="#FF8173" stroke-width="6" stroke-miterlimit="10"/>
<path d="M289.422 486.446L353.497 487.134" stroke="#FF8173" stroke-width="6" stroke-miterlimit="10"/>
<path d="M342.383 456.843L390.875 430.05L282.45 265.218C268.733 245.476 233.917 239.373 211.957 251.505C186.635 265.497 181.673 296.96 201.644 316.831L342.383 456.843Z" fill="#799DE8"/>
<path d="M342.589 456.099L391.286 429.678L282.656 265.218C268.939 245.476 234.123 239.373 212.163 251.505C186.84 265.497 181.878 296.96 201.849 316.831L342.589 456.099Z" stroke="white" stroke-width="6" stroke-miterlimit="10"/>
<path d="M390.117 428.878C387.964 425.641 375.354 428.934 361.944 436.265C348.535 443.577 339.451 452.396 341.604 455.634C343.757 458.871 356.326 455.318 369.736 448.005C383.125 440.693 392.249 432.134 390.117 428.878Z" fill="#799DE8"/>
<path d="M387.164 449.829L364.528 462.741L358.131 456.229L356.183 454.238L348.063 445.977C351.549 442.74 356.326 439.316 361.965 436.265C366.517 433.79 371.007 431.818 375.067 430.478L381.403 440.581L382.797 442.796L387.164 449.829Z" fill="#FEC8C2"/>
<path d="M422.882 463.839L366.496 491.432C365.081 490.055 363.872 488.437 362.908 486.595C362.088 485.05 361.452 483.432 360.96 481.794C357.638 470.482 362.334 457.513 377.322 451.038C390.547 445.326 407.012 448.601 416.526 456.118C419.335 458.369 421.549 460.992 422.882 463.839Z" fill="white" stroke="#FF8173" stroke-width="6" stroke-miterlimit="10"/>
<path d="M419.868 459.653L363.462 487.246" stroke="#FF8173" stroke-width="6" stroke-miterlimit="10" stroke-linecap="round"/>
<path d="M381.361 440.563C378.122 443.019 374.144 445.586 369.695 448.005C364.938 450.61 360.263 452.731 356.142 454.238L347.612 445.977C351.098 442.74 356.285 439.316 361.924 436.265C366.476 433.79 370.966 431.632 375.026 430.292L381.361 440.563Z" fill="#464E74"/>
<path d="M388.866 426.013C386.713 422.775 373.098 425.994 359.463 433.437C345.828 440.879 337.175 449.606 339.328 452.843" stroke="white" stroke-width="6" stroke-miterlimit="10"/>
<path d="M577.626 289.127C582.978 289.127 587.325 285.182 587.325 280.326V246.648C587.325 241.792 582.978 237.848 577.626 237.848H38.2884C32.9368 237.848 28.59 241.792 28.59 246.648V280.326C28.59 285.182 32.9368 289.127 38.2884 289.127H577.626Z" fill="#464E74"/>
<path d="M577.463 230.219H38.4328C33.0812 230.219 28.7344 234.164 28.7344 239.02V272.697C28.7344 277.553 33.0812 281.498 38.4328 281.498H577.463C582.815 281.498 587.161 277.553 587.161 272.697V239.02C587.161 234.164 582.815 230.219 577.463 230.219Z" fill="white" stroke="#FFCF2D" stroke-width="6" stroke-miterlimit="10"/>
<path d="M549.392 281.535V491.525" stroke="#FFCF2D" stroke-width="6" stroke-miterlimit="10" stroke-linecap="round"/>
<path d="M78.8453 281.535V491.525" stroke="#FFCF2D" stroke-width="6" stroke-miterlimit="10" stroke-linecap="round"/>
<path d="M61.1299 439.26L60.2687 439.763L28.9795 396.019L19.5682 396.671C17.5588 396.82 15.9595 395.164 16.3696 393.359C16.8002 391.573 18.9941 390.642 20.7779 391.535L28.508 395.387L22.8283 387.423L13.417 388.093C11.4076 388.242 9.80828 386.567 10.2389 384.781C10.6694 382.995 12.8634 382.065 14.6472 382.958L22.3773 386.791L16.6976 378.827L7.2863 379.497C5.27691 379.646 3.67758 377.971 4.10817 376.185C4.53875 374.399 6.73269 373.469 8.51654 374.362L16.2466 378.213L12.8224 373.431L6.46614 368.501C4.92834 367.31 5.09237 365.114 6.7737 364.11C8.47554 363.105 10.7515 363.868 11.3256 365.635L13.6835 372.91L17.2102 377.841L16.4721 369.654C16.3081 367.831 18.1329 366.38 20.1013 366.752C22.0697 367.124 23.0949 369.133 22.1312 370.734L17.5793 378.362L23.3409 386.419L22.6028 378.25C22.4388 376.427 24.2636 374.976 26.232 375.348C28.2004 375.72 29.2256 377.73 28.2619 379.33L23.71 386.958L29.4716 395.015L28.7335 386.847C28.5695 385.023 30.3943 383.553 32.3627 383.944C34.3311 384.316 35.3563 386.326 34.3926 387.926L29.8407 395.554L61.1299 439.26Z" fill="#464E74"/>
<path d="M113.702 423.799C98.6727 451.28 78.3737 470.389 66.3789 469.068C65.3947 468.956 64.472 468.714 63.6108 468.323C52.2106 463.188 56.1474 434.925 72.4276 405.192C79.3989 392.447 87.498 381.525 95.3716 373.58C105.89 362.993 115.999 357.728 122.519 360.668C133.919 365.803 129.962 394.066 113.702 423.799Z" fill="#464E74"/>
<path d="M94.8795 402.085C91.5374 436.916 79.2554 465.011 66.3994 469.068C65.4152 468.956 64.4925 468.714 63.6313 468.323C52.2311 463.188 56.1679 434.925 72.4481 405.192C79.4195 392.447 87.5186 381.525 95.3921 373.58C95.9662 382.344 95.8432 392.001 94.8795 402.085Z" fill="#FFCF2D"/>
<path d="M122.519 360.668L66.3994 469.068" stroke="#FFCF2D" stroke-width="6" stroke-miterlimit="10"/>
<path d="M121.453 441.047L113.518 443.465L108.228 446.833L117.208 445.866C119.218 445.642 120.879 447.242 120.551 449.047C120.202 450.852 118.049 451.857 116.224 451.038L107.654 447.187L98.9803 452.713L107.961 451.745C109.97 451.522 111.631 453.122 111.303 454.927C110.955 456.732 108.802 457.736 106.977 456.918L98.4062 453.066L89.7535 458.592L98.7343 457.625C100.744 457.402 102.404 459.002 102.056 460.807C101.707 462.611 99.5544 463.616 97.7296 462.797L89.1589 458.946L73.3093 469.049H71.5254L88.6053 458.164L87.539 449.661C87.3135 447.838 89.0769 446.331 91.0657 446.647C93.0546 446.963 94.1413 448.936 93.2392 450.573L89.2819 457.736L97.8321 452.285L96.7658 443.782C96.5403 441.958 98.3037 440.451 100.293 440.768C102.281 441.084 103.368 443.056 102.466 444.693L98.5292 451.838L107.079 446.387L106.013 437.884C105.788 436.06 107.551 434.553 109.54 434.869C111.529 435.186 112.615 437.158 111.713 438.795L107.756 445.959L112.903 442.684L118.09 436.73C119.341 435.297 121.781 435.353 122.929 436.86C124.139 438.367 123.38 440.47 121.453 441.047Z" fill="#FFCF2D"/>
<path d="M57.1315 467.616C56.1063 467.933 55.0196 468.156 53.9123 468.286C40.9948 469.812 23.1563 458.871 12.3712 442.256C0.663423 424.208 1.72963 406.309 14.7497 402.252C18.9735 400.931 23.956 401.248 29.123 402.885C39.9081 406.29 51.5954 415.407 59.51 427.594C71.1972 445.661 70.131 463.56 57.1315 467.616Z" fill="white" stroke="#FFCF2D" stroke-width="6" stroke-miterlimit="10"/>
<path d="M57.1316 467.616C56.1064 467.933 55.0196 468.156 53.9124 468.286C41.9791 463.374 31.604 442.572 29.4101 417.305C28.9795 412.319 28.8975 407.481 29.1231 402.885C39.9082 406.29 51.5955 415.407 59.51 427.594C71.1973 445.661 70.1311 463.56 57.1316 467.616Z" fill="#FFCF2D"/>
<path d="M9.80823 404.876L53.8918 468.286" stroke="#FFCF2D" stroke-width="6" stroke-miterlimit="10"/>
<path d="M62.3806 469.814C76.6489 469.814 88.2156 438.583 88.2156 400.059C88.2156 361.534 76.6489 330.304 62.3806 330.304C48.1123 330.304 36.5455 361.534 36.5455 400.059C36.5455 438.583 48.1123 469.814 62.3806 469.814Z" fill="white" stroke="#FFCF2D" stroke-width="6" stroke-miterlimit="10"/>
<path d="M62.3806 330.284V469.812" stroke="#FFCF2D" stroke-width="6" stroke-miterlimit="10"/>
<path d="M78.8453 347.011L62.3806 367.031L48.4174 341.95" stroke="#FFCF2D" stroke-width="6" stroke-miterlimit="10" stroke-linecap="round"/>
<path d="M84.1969 363.979L62.2166 391.405L42.4507 356.704" stroke="#FFCF2D" stroke-width="6" stroke-miterlimit="10" stroke-linecap="round"/>
<path d="M87.621 383.553L62.0115 415.593L38.6165 374.659" stroke="#FFCF2D" stroke-width="6" stroke-miterlimit="10" stroke-linecap="round"/>
<path d="M89.2203 409.677L62.1345 444.061L36.6071 400.113" stroke="#FFCF2D" stroke-width="6" stroke-miterlimit="10" stroke-linecap="round"/>
<path d="M100.682 491.525H24.0176C18.1124 491.525 13.3145 487.171 13.3145 481.813V478.78C13.3145 473.421 18.1124 469.068 24.0176 469.068H100.682C106.587 469.068 111.385 473.421 111.385 478.78V481.813C111.385 487.19 106.587 491.525 100.682 491.525Z" fill="white" stroke="#66B0F0" stroke-width="6" stroke-miterlimit="10"/>
<path d="M552.017 249.774C552.017 252.547 549.577 254.798 546.583 254.798H463.07C460.056 254.798 457.636 252.547 457.636 249.774C457.636 247.002 460.076 244.751 463.07 244.751H546.583C549.577 244.751 552.017 247.002 552.017 249.774Z" fill="#FF8173"/>
<path d="M516.77 197.453H482.59V219.037H548.613C544.43 206.236 531.471 197.453 516.77 197.453Z" fill="white" stroke="#FFCF2D" stroke-width="6" stroke-miterlimit="10"/>
<path d="M488.741 197.453V219.037L474.593 219.055V197.453H488.741Z" fill="#FFCF2D" stroke="#FFCF2D" stroke-width="6" stroke-miterlimit="10"/>
<path d="M600.96 218.609L548.613 219.037C548.613 219.037 561.715 202.924 597.679 207.185C597.679 207.185 569.547 201.863 541.006 207.185" stroke="#FFCF2D" stroke-width="6" stroke-miterlimit="10"/>
<path d="M548.613 219.037C548.613 219.037 571.557 207.594 599.524 213.139" stroke="#FFCF2D" stroke-width="6" stroke-miterlimit="10"/>
<path d="M554.456 236.694C554.456 238.722 554.805 240.564 555.359 241.922H530.241C528.949 241.922 527.883 240.899 527.883 239.652V233.754C527.883 232.489 528.929 231.484 530.241 231.484H555.359C554.805 232.824 554.456 234.666 554.456 236.694Z" fill="#FFCF2D"/>
<path d="M527.904 233.754V239.652C527.904 240.918 529.032 241.922 530.405 241.922H557.389V242.35C557.389 243.392 556.466 244.23 555.318 244.23H460.938C459.789 244.23 458.867 243.392 458.867 242.35V231.038C458.867 229.996 459.789 229.159 460.938 229.159H555.318C556.466 229.159 557.389 229.996 557.389 231.038V231.466H530.405C529.032 231.484 527.904 232.489 527.904 233.754Z" fill="white"/>
<path d="M527.904 233.754V239.652C527.904 240.918 529.032 241.922 530.405 241.922H557.389V242.35C557.389 243.392 556.466 244.23 555.318 244.23H460.938C459.789 244.23 458.867 243.392 458.867 242.35V231.038C458.867 229.996 459.789 229.159 460.938 229.159H555.318C556.466 229.159 557.389 229.996 557.389 231.038V231.466H530.405C529.032 231.484 527.904 232.489 527.904 233.754Z" stroke="#FFCF2D" stroke-width="6" stroke-miterlimit="10"/>
<path d="M492.739 258.836C491.755 259.673 491.14 261.199 491.14 262.482C491.14 265.031 493.6 267.655 496.635 267.655H572.254C572.254 268.846 571.188 269.832 569.855 269.832H478.591C476.151 269.832 473.937 268.995 472.338 267.655C470.738 266.315 469.734 264.455 469.734 262.389C469.734 258.277 473.691 254.947 478.591 254.947H569.855C571.167 254.947 572.254 255.914 572.254 257.124V257.515H496.635C495.097 257.496 493.723 258.017 492.739 258.836Z" fill="#FFCF2D"/>
<path d="M566.779 257.496V267.469H572.233V268.306H496.368C495.528 268.306 494.708 268.157 493.969 267.878C493.17 267.58 492.432 267.153 491.837 266.594C490.668 265.534 489.951 264.082 489.951 262.482C489.951 259.263 492.821 256.659 496.368 256.659H572.233V257.496H566.779Z" fill="#FF8173"/>
<path d="M568.891 257.496V267.469H496.635C493.6 267.469 491.14 265.236 491.14 262.482C491.14 261.105 491.755 259.859 492.739 258.947C493.723 258.054 495.097 257.496 496.615 257.496H568.891Z" fill="white"/>
<path d="M568.891 257.496V267.469" stroke="#FF8173" stroke-width="5" stroke-miterlimit="10"/>
<path d="M506.702 264.566V272.883H500.367V265.627C500.367 263.896 498.829 262.482 496.902 262.482H494.072V261.422H503.237C505.165 261.422 506.702 262.836 506.702 264.566Z" fill="#FF8173"/>
<path d="M572.541 219.502H464.813C462.024 219.502 459.769 221.549 459.769 224.079C459.79 226.591 462.024 228.638 464.813 228.638H572.541C575.33 228.638 577.585 226.591 577.585 224.06C577.565 221.549 575.309 219.502 572.541 219.502Z" fill="#66B0F0"/>
<path d="M548.1 228.655H547.013C547.136 228.953 547.444 229.697 548.121 229.697C548.531 229.697 550.54 229.418 550.54 224.078C550.54 222.18 550.294 220.729 549.802 219.743C549.207 218.571 548.428 218.44 548.141 218.44C547.444 218.44 547.136 219.203 547.013 219.501H548.1C548.141 219.427 548.182 219.389 548.203 219.371C548.572 219.464 549.556 220.394 549.556 224.078C549.556 227.762 548.572 228.674 548.203 228.785C548.162 228.748 548.121 228.711 548.1 228.655Z" fill="#464E74"/>
<path d="M556.999 228.655H555.912C556.035 228.953 556.343 229.697 557.019 229.697C557.43 229.697 559.439 229.418 559.439 224.078C559.439 222.18 559.193 220.729 558.701 219.743C558.106 218.571 557.327 218.44 557.04 218.44C556.343 218.44 556.035 219.203 555.912 219.501H556.999C557.04 219.427 557.081 219.389 557.101 219.371C557.471 219.464 558.455 220.394 558.455 224.078C558.455 227.762 557.471 228.674 557.101 228.785C557.081 228.748 557.04 228.711 556.999 228.655Z" fill="#464E74"/>
<path d="M565.918 228.655H564.831C564.954 228.953 565.262 229.697 565.939 229.697C566.513 229.697 568.358 229.288 568.358 224.078C568.358 218.85 566.513 218.459 565.939 218.459C565.242 218.459 564.934 219.222 564.811 219.52H565.898C565.939 219.445 565.98 219.408 566 219.389C566.41 219.483 567.354 220.45 567.354 224.097C567.354 226.33 567.005 227.483 566.697 228.079C566.451 228.562 566.185 228.767 566 228.804C565.98 228.748 565.959 228.711 565.918 228.655Z" fill="#464E74"/>
<path d="M521.342 228.655H520.256C520.379 228.953 520.686 229.697 521.363 229.697C521.773 229.697 523.782 229.418 523.782 224.078C523.782 218.85 521.937 218.459 521.363 218.459C520.666 218.459 520.358 219.222 520.235 219.52H521.322C521.363 219.445 521.404 219.408 521.424 219.389C521.835 219.483 522.778 220.45 522.778 224.097C522.778 227.781 521.794 228.693 521.424 228.804C521.424 228.748 521.383 228.711 521.342 228.655Z" fill="#464E74"/>
<path d="M530.262 228.655H529.175C529.298 228.953 529.606 229.697 530.282 229.697C530.672 229.697 531.389 229.549 531.943 228.507C532.435 227.558 532.702 226.069 532.702 224.078C532.702 222.087 532.456 220.599 531.943 219.65C531.389 218.608 530.672 218.459 530.282 218.459C529.585 218.459 529.277 219.222 529.154 219.52H530.241C530.282 219.445 530.323 219.408 530.344 219.389C530.59 219.427 530.836 219.669 531.041 220.059C531.328 220.617 531.697 221.771 531.697 224.097C531.697 226.404 531.348 227.558 531.041 228.134C530.836 228.525 530.569 228.767 530.344 228.804C530.323 228.748 530.303 228.711 530.262 228.655Z" fill="#464E74"/>
<path d="M539.181 228.655H538.094C538.217 228.953 538.525 229.697 539.201 229.697C539.776 229.697 541.621 229.288 541.621 224.078C541.621 218.72 539.612 218.459 539.201 218.459C538.504 218.459 538.197 219.222 538.074 219.52H539.16C539.201 219.445 539.242 219.408 539.263 219.389C539.632 219.483 540.616 220.413 540.616 224.097C540.616 227.744 539.673 228.711 539.263 228.804C539.242 228.748 539.222 228.711 539.181 228.655Z" fill="#464E74"/>
<path d="M494.605 228.656H493.519C493.642 228.954 493.949 229.698 494.626 229.698C494.933 229.698 495.712 229.568 496.287 228.396C496.779 227.428 497.025 225.958 497.025 224.06C497.025 222.311 496.758 220.842 496.287 219.837C495.856 218.944 495.241 218.423 494.605 218.423C493.908 218.423 493.601 219.186 493.478 219.483H494.564C494.605 219.427 494.626 219.372 494.646 219.353C494.769 219.409 495.056 219.614 495.343 220.209C495.651 220.823 496 221.995 496 224.042C496 227.726 495.015 228.638 494.646 228.749C494.667 228.749 494.646 228.712 494.605 228.656Z" fill="#464E74"/>
<path d="M503.524 228.655H502.438C502.561 228.953 502.868 229.697 503.545 229.697C503.853 229.697 504.632 229.567 505.206 228.395C505.698 227.427 505.944 225.957 505.944 224.059C505.944 218.831 504.099 218.44 503.524 218.44C502.827 218.44 502.52 219.203 502.397 219.501H503.483C503.524 219.427 503.565 219.389 503.586 219.371C503.996 219.464 504.939 220.431 504.939 224.078C504.939 227.762 503.955 228.674 503.586 228.785C503.586 228.748 503.565 228.711 503.524 228.655Z" fill="#464E74"/>
<path d="M512.444 228.655H511.357C511.48 228.953 511.788 229.697 512.464 229.697C513.038 229.697 514.884 229.288 514.884 224.078C514.884 222.087 514.638 220.599 514.125 219.65C513.571 218.608 512.854 218.459 512.464 218.459C511.767 218.459 511.46 219.222 511.337 219.52H512.423C512.464 219.445 512.505 219.408 512.526 219.389C512.772 219.427 513.018 219.669 513.223 220.059C513.51 220.617 513.879 221.771 513.879 224.097C513.879 227.744 512.936 228.711 512.526 228.804C512.505 228.748 512.464 228.711 512.444 228.655Z" fill="#464E74"/>
<path d="M467.868 228.658H466.781C466.904 228.956 467.212 229.7 467.889 229.7C468.524 229.7 469.119 229.179 469.57 228.286C470.062 227.281 470.308 225.83 470.308 224.062C470.308 221.997 469.898 220.694 469.57 219.969C469.119 219.001 468.504 218.443 467.889 218.443C467.191 218.443 466.884 219.206 466.761 219.504H467.848C467.889 219.448 467.909 219.411 467.93 219.373C468.073 219.448 468.381 219.708 468.668 220.415C468.955 221.067 469.283 222.22 469.283 224.062C469.283 226.127 468.934 227.281 468.627 227.914C468.34 228.509 468.053 228.714 467.93 228.77C467.93 228.751 467.889 228.714 467.868 228.658Z" fill="#464E74"/>
<path d="M476.767 228.655H475.68C475.803 228.953 476.111 229.697 476.787 229.697C477.423 229.697 478.018 229.176 478.469 228.283C478.961 227.278 479.207 225.827 479.207 224.059C479.207 220.413 477.956 218.44 476.787 218.44C476.09 218.44 475.783 219.203 475.66 219.501H476.746C476.787 219.445 476.808 219.408 476.828 219.371C476.972 219.445 477.259 219.706 477.566 220.375C477.853 221.008 478.182 222.18 478.182 224.059C478.182 226.125 477.833 227.278 477.525 227.911C477.238 228.506 476.951 228.711 476.828 228.767C476.828 228.748 476.808 228.711 476.767 228.655Z" fill="#464E74"/>
<path d="M485.686 228.655H484.599C484.722 228.953 485.03 229.697 485.707 229.697C486.014 229.697 486.773 229.567 487.388 228.32C487.88 227.316 488.126 225.883 488.126 224.078C488.126 222.329 487.86 220.859 487.388 219.854C486.957 218.961 486.342 218.44 485.707 218.44C485.009 218.44 484.702 219.203 484.579 219.501H485.666C485.707 219.445 485.727 219.389 485.748 219.371C485.871 219.427 486.158 219.631 486.445 220.227C486.752 220.841 487.101 222.013 487.101 224.059C487.101 226.162 486.752 227.316 486.445 227.93C486.158 228.506 485.871 228.711 485.748 228.748C485.748 228.748 485.727 228.711 485.686 228.655Z" fill="#464E74"/>
<path d="M534.486 88.7186H462.598C458.436 88.7186 455.073 85.6672 455.073 81.8901V16.6566C455.073 12.8795 458.436 9.82809 462.598 9.82809H534.486C538.648 9.82809 542.01 12.8795 542.01 16.6566V81.8901C542.01 85.6672 538.627 88.7186 534.486 88.7186Z" fill="#FFCF2D"/>
<path d="M529.237 84.3461H455.935C451.772 84.3461 448.41 81.2947 448.41 77.5176V11.0003C448.41 7.22321 451.772 4.17178 455.935 4.17178H529.237C533.399 4.17178 536.762 7.22321 536.762 11.0003V77.5176C536.762 81.2947 533.399 84.3461 529.237 84.3461Z" fill="white" stroke="#FFCF2D" stroke-width="6" stroke-miterlimit="10"/>
<path d="M492.596 74.95C511.281 74.95 526.427 61.205 526.427 44.2497C526.427 27.2943 511.281 13.5493 492.596 13.5493C473.911 13.5493 458.764 27.2943 458.764 44.2497C458.764 61.205 473.911 74.95 492.596 74.95Z" stroke="#FFCF2D" stroke-width="6" stroke-miterlimit="10"/>
<path d="M473.568 31.0764L492.596 44.2497L487.921 31.2439" stroke="#FFCF2D" stroke-width="6" stroke-miterlimit="10" stroke-linecap="round"/>
<path d="M432.355 281.498H374.39L350.052 254.966H406.622L432.355 281.498Z" fill="#FFCF2D"/>
<path d="M463.747 282.875V299.248L417.818 299.416C411.933 299.434 407.156 295.118 407.156 289.778V284.698C407.156 281.312 405.782 278.056 403.321 275.544L388.169 260.101H444.74L459.215 273.069C462.127 275.656 463.747 279.172 463.747 282.875Z" fill="white" stroke="#66B0F0" stroke-width="6" stroke-miterlimit="10"/>
<path d="M484.415 293.481C482.467 297.016 478.448 299.434 473.794 299.434H417.203C421.837 299.434 425.855 297.016 427.824 293.481H484.415Z" fill="white" stroke="#66B0F0" stroke-width="6" stroke-miterlimit="10"/>
<path d="M449.332 191.5L414.804 136.462C406.561 123.308 391.162 115.195 374.493 115.195H245.174L249.705 106.32C249.336 107.046 247.388 107.232 244.415 106.86C239.863 106.302 232.933 104.497 225.552 101.52C221.328 99.8265 217.493 98.0589 214.315 96.4216C208.308 93.3143 204.678 90.5978 205.273 89.3884L139.25 187.648C124.754 206.831 139.886 232.898 165.516 232.898C168.96 232.898 172.364 232.396 175.604 231.41C178.843 230.424 181.899 228.973 184.646 227.093L235.352 192.504C238.408 190.42 242.775 192.039 243.39 195.444L250.013 232.898H422.78C446.216 232.917 460.917 209.957 449.332 191.5ZM372.483 195.798L378.019 184.373C378.963 182.42 381.997 182.382 382.981 184.318L388.989 195.816H372.483V195.798Z" fill="#FF8173"/>
<path d="M265.76 115.158C265.76 105.539 287.638 93.6493 314.17 90.6164C353.968 86.0951 362.58 105.539 362.58 115.158" stroke="#FF8173" stroke-width="6" stroke-miterlimit="10"/>
<path d="M357.987 115.326C357.987 123.94 314.17 141.579 314.17 141.579C314.17 141.579 270.353 123.94 270.353 115.326C270.353 106.711 291.185 96.7379 315.195 94.0772C349.744 90.2443 357.987 106.692 357.987 115.326Z" fill="#FF8173"/>
<path d="M357.987 115.326C357.987 123.94 314.17 141.579 314.17 141.579C314.17 141.579 270.353 123.94 270.353 115.326C270.353 115.288 270.353 115.251 270.353 115.214H357.987C357.987 115.233 357.987 115.27 357.987 115.326Z" fill="white"/>
<path d="M362.559 115.14C362.559 124.647 314.17 146.268 314.17 146.268C314.17 146.268 265.781 124.666 265.781 115.14" stroke="white" stroke-width="6" stroke-miterlimit="10"/>
<path d="M351.508 232.489C354.214 232.489 356.408 224.358 356.408 214.348C356.408 204.338 354.214 196.207 351.508 196.207" stroke="white" stroke-width="5" stroke-miterlimit="10" stroke-linecap="round"/>
<path d="M248.701 109.967L210.748 178.829" stroke="white" stroke-width="5" stroke-miterlimit="10"/>
<path d="M240.458 177.247L246.732 214.72" stroke="white" stroke-width="5" stroke-miterlimit="10" stroke-linecap="round"/>
<path d="M312.119 150.677H316.22" stroke="white" stroke-width="5" stroke-miterlimit="10" stroke-linecap="round"/>
<path d="M312.119 155.106H316.22" stroke="white" stroke-width="5" stroke-miterlimit="10" stroke-linecap="round"/>
<path d="M312.119 159.515H316.22" stroke="white" stroke-width="5" stroke-miterlimit="10" stroke-linecap="round"/>
<path d="M312.119 163.925H316.22" stroke="white" stroke-width="5" stroke-miterlimit="10" stroke-linecap="round"/>
<path d="M312.119 168.335H316.22" stroke="white" stroke-width="5" stroke-miterlimit="10" stroke-linecap="round"/>
<path d="M312.119 172.763H316.22" stroke="white" stroke-width="5" stroke-miterlimit="10" stroke-linecap="round"/>
<path d="M312.119 172.968H316.22" stroke="white" stroke-width="5" stroke-miterlimit="10" stroke-linecap="round"/>
<path d="M312.119 177.378H316.22" stroke="white" stroke-width="5" stroke-miterlimit="10" stroke-linecap="round"/>
<path d="M312.119 181.787H316.22" stroke="white" stroke-width="5" stroke-miterlimit="10" stroke-linecap="round"/>
<path d="M312.119 185.992H316.22" stroke="white" stroke-width="5" stroke-miterlimit="10" stroke-linecap="round"/>
<path d="M312.119 190.42H316.22" stroke="white" stroke-width="5" stroke-miterlimit="10" stroke-linecap="round"/>
<path d="M312.119 194.83H316.22" stroke="white" stroke-width="5" stroke-miterlimit="10" stroke-linecap="round"/>
<path d="M312.119 199.24H316.22" stroke="white" stroke-width="5" stroke-miterlimit="10" stroke-linecap="round"/>
<path d="M312.119 203.649H316.22" stroke="white" stroke-width="5" stroke-miterlimit="10" stroke-linecap="round"/>
<path d="M312.119 208.078H316.22" stroke="white" stroke-width="5" stroke-miterlimit="10" stroke-linecap="round"/>
<path d="M312.119 212.487H316.22" stroke="white" stroke-width="5" stroke-miterlimit="10" stroke-linecap="round"/>
<path d="M312.119 216.897H316.22" stroke="white" stroke-width="5" stroke-miterlimit="10" stroke-linecap="round"/>
<path d="M312.119 221.307H316.22" stroke="white" stroke-width="5" stroke-miterlimit="10" stroke-linecap="round"/>
<path d="M312.119 221.53H316.22" stroke="white" stroke-width="5" stroke-miterlimit="10" stroke-linecap="round"/>
<path d="M312.119 225.94H316.22" stroke="white" stroke-width="5" stroke-miterlimit="10" stroke-linecap="round"/>
<path d="M312.119 230.349H316.22" stroke="white" stroke-width="5" stroke-miterlimit="10" stroke-linecap="round"/>
<path d="M311.689 144.668V214.72" stroke="white" stroke-width="5" stroke-miterlimit="10"/>
<path d="M349.129 196.17H398.441" stroke="white" stroke-width="5" stroke-miterlimit="10" stroke-linecap="round"/>
<path d="M211.916 269.385H369.367L354.563 233.047H228.976L211.916 269.385Z" fill="white" stroke="#66B0F0" stroke-width="6" stroke-miterlimit="10"/>
<path d="M211.916 269.385C211.916 264.25 226.925 254.965 251.305 253.7C277.406 252.361 291.082 267.246 290.693 269.385H211.916Z" fill="#66B0F0"/>
<path d="M290.672 269.385C290.672 269.385 283.742 239.987 222.906 245.979L236.05 216.971C236.05 216.971 285.874 208.747 290.693 233.047L290.672 269.385Z" fill="white" stroke="#66B0F0" stroke-width="6" stroke-miterlimit="10" stroke-linejoin="round"/>
<path d="M368.444 267.097C364.815 262.538 350.831 257.775 329.999 256.696C305.23 255.412 291.656 266.092 290.672 268.995V233.047C290.672 233.047 308.347 214.739 354.563 233.047L368.444 267.097Z" fill="white" stroke="#66B0F0" stroke-width="6" stroke-miterlimit="10" stroke-linejoin="round"/>
<path d="M347.181 252.063C342.014 250.872 335.761 249.979 328.625 249.607C325.078 249.421 321.777 249.514 318.742 249.812C311.217 250.574 305.292 252.621 301.068 254.817" stroke="#66B0F0" stroke-width="6" stroke-miterlimit="10" stroke-linecap="round" stroke-linejoin="round"/>
<path d="M345.357 245.867C340.415 244.806 334.53 244.006 327.887 243.653C324.34 243.467 321.039 243.56 318.004 243.857C310.479 244.62 304.554 246.667 300.33 248.863" stroke="#66B0F0" stroke-width="6" stroke-miterlimit="10" stroke-linecap="round" stroke-linejoin="round"/>
<path d="M343.675 239.69C338.959 238.741 333.485 238.034 327.334 237.699C323.786 237.513 320.485 237.606 317.451 237.904C309.926 238.666 304 240.713 299.776 242.909" stroke="#66B0F0" stroke-width="6" stroke-miterlimit="10" stroke-linecap="round" stroke-linejoin="round"/>
<path d="M350.441 231.41L363.482 263.636" stroke="#66B0F0" stroke-width="6" stroke-miterlimit="10"/>
<path d="M369.387 269.385H290.672V268.995C291.656 266.092 305.23 255.412 329.999 256.696C350.831 257.775 364.815 262.538 368.444 267.097L369.387 269.385Z" fill="#66B0F0"/>
<path d="M339.287 115.196C339.287 115.196 324.607 122.136 304.226 119.345C299.161 118.657 293.727 117.355 288.109 115.196V92.7943L314.519 77.8721L318.476 83.8447L339.287 115.196Z" fill="#FEC8C2"/>
<path d="M315.974 79.6388C317.553 82.2995 317.82 85.4625 316.671 88.3093L304.226 119.345C299.161 118.656 293.727 117.354 288.109 115.195V92.7934L314.642 77.406L315.974 79.6388Z" fill="#464E74"/>
<path d="M313.698 69.61C313.698 69.61 316.795 44.6218 305.784 42.3333C297.377 40.5843 293.194 46.3336 293.194 46.3336C293.194 46.3336 288.643 40.3052 281.589 43.1333C274.884 45.8126 275.356 54.1668 278.37 53.497C281.384 52.8272 275.458 47.4686 269.123 51.4317C262.11 55.8042 269.123 63.0234 269.123 63.0234C269.123 63.0234 263.935 60.7534 261.536 65.3864C258.563 71.1357 275.54 83.5275 275.54 83.5275L313.698 69.61Z" fill="#464E74"/>
<path d="M296.926 57.5346L279.313 63.9537C275.069 65.4981 272.998 69.9077 274.7 73.7406L282.389 91.1375C285.218 97.5566 293.338 100.682 300.391 98.1148L307.711 95.4541C314.785 92.8865 318.23 85.5184 315.4 79.1178L307.711 61.721C306.01 57.8695 301.15 55.9903 296.926 57.5346Z" fill="#FEC8C2"/>
<path d="M318.947 77.8154L315.4 79.1178L311.545 70.4101L315.093 69.1077C317.205 68.3448 319.583 69.2751 320.424 71.173L321.223 72.9778C322.085 74.8756 321.059 77.0339 318.947 77.8154Z" fill="#FEC8C2"/>
<path d="M278.575 91.8073L282.122 90.5049L278.534 82.4111L274.987 83.7136C272.875 84.4764 271.87 86.6534 272.711 88.5512L273.244 89.742C274.085 91.6398 276.463 92.5702 278.575 91.8073Z" fill="#464E74"/>
<path d="M314.621 75.0245C313.965 73.5174 314.765 71.8242 316.425 71.2102" stroke="#464E74" stroke-width="5" stroke-miterlimit="10" stroke-linecap="round"/>
<path d="M297.377 66.968C297.377 66.968 301.539 68.382 306.83 66.1121" stroke="#464E74" stroke-width="5" stroke-miterlimit="10" stroke-linecap="round"/>
<path d="M288.581 73.3313C288.581 73.3313 294.794 72.7545 297.049 82.2437" stroke="#464E74" stroke-width="5" stroke-miterlimit="10" stroke-linecap="round"/>
<path d="M306.214 85.3323C306.214 85.3323 297.049 83.0996 297.377 87.3976" stroke="#464E74" stroke-width="5" stroke-miterlimit="10" stroke-linecap="round"/>
<path d="M304.933 76.5318C305.37 76.3912 305.415 75.4841 305.034 74.5058C304.652 73.5275 303.987 72.8484 303.55 72.9891C303.112 73.1298 303.067 74.0369 303.449 75.0152C303.831 75.9935 304.495 76.6725 304.933 76.5318Z" fill="#464E74"/>
<path d="M288.021 82.9348C288.458 82.7941 288.503 81.887 288.121 80.9087C287.74 79.9304 287.075 79.2514 286.638 79.392C286.2 79.5327 286.155 80.4398 286.537 81.4181C286.919 82.3964 287.583 83.0754 288.021 82.9348Z" fill="#464E74"/>
<path d="M304.738 80.104C308.011 80.104 310.664 77.6965 310.664 74.7267C310.664 71.757 308.011 69.3495 304.738 69.3495C301.465 69.3495 298.812 71.757 298.812 74.7267C298.812 77.6965 301.465 80.104 304.738 80.104Z" stroke="#FFCF2D" stroke-width="5" stroke-miterlimit="10" stroke-linecap="round"/>
<path d="M287.31 86.244C290.582 86.244 293.235 83.8366 293.235 80.8668C293.235 77.8971 290.582 75.4896 287.31 75.4896C284.037 75.4896 281.384 77.8971 281.384 80.8668C281.384 83.8366 284.037 86.244 287.31 86.244Z" stroke="#FFCF2D" stroke-width="5" stroke-miterlimit="10" stroke-linecap="round"/>
<path d="M292.846 78.9318L299.1 76.3269" stroke="#FFCF2D" stroke-width="5" stroke-miterlimit="10" stroke-linecap="round"/>
<path d="M250.936 104.273C250.587 104.999 248.619 105.185 245.646 104.813C241.094 104.255 234.163 102.45 226.782 99.473C222.558 97.7613 218.724 96.0123 215.566 94.3749C209.559 91.2677 205.929 88.5512 206.524 87.3418C207.119 86.151 211.732 86.7278 218.252 88.6442C221.758 89.6676 225.798 91.0816 230.062 92.812C237.362 95.7518 243.698 98.6172 247.429 100.831C249.972 102.32 251.305 103.529 250.936 104.273Z" fill="white" stroke="#FF8173" stroke-width="6" stroke-miterlimit="10"/>
<path d="M285.731 66.54L280.154 86.0952L275.13 74.7454C273.203 70.3915 275.52 65.405 280.256 63.5816L285.731 66.54Z" fill="#464E74"/>
<path d="M285.936 66.1865L274.864 83.6019C273.593 85.6114 271.214 86.858 268.651 86.858H257.21C255.529 86.858 254.032 87.7883 253.396 89.1838L247.45 100.85L245.707 104.255C240.684 103.641 233.692 101.669 227.007 98.9707C224.506 97.966 222.066 96.9054 219.811 95.8448L222.825 90.1327L228.217 79.9179C230.801 74.3918 235.25 69.7403 240.93 66.6516L252.084 60.5674C253.56 59.7673 255.262 59.3394 256.984 59.3394H275.93C276.976 59.3394 278.001 59.544 278.924 59.9534L284.624 62.4094C286.203 63.0978 286.797 64.8282 285.936 66.1865Z" fill="#FEC8C2"/>
<path d="M259.158 66.7447H272.69C273.695 66.7447 274.679 66.9493 275.581 67.3401L281.056 69.7216C282.553 70.3729 283.127 72.0474 282.307 73.3499" stroke="#464E74" stroke-width="5" stroke-miterlimit="10" stroke-linecap="round"/>
<path d="M255.795 72.0288H269.328C270.332 72.0288 271.317 72.2335 272.219 72.6242L277.693 75.0058C279.19 75.657 279.764 77.3316 278.944 78.634" stroke="#464E74" stroke-width="5" stroke-miterlimit="10" stroke-linecap="round"/>
<path d="M251.838 78.9317H265.37C266.375 78.9317 267.359 79.1364 268.261 79.5271L273.736 81.9087C275.233 82.56 275.807 84.2345 274.987 85.537" stroke="#464E74" stroke-width="5" stroke-miterlimit="10" stroke-linecap="round"/>
<path d="M245.728 104.255C240.704 103.641 233.712 101.669 227.028 98.9707C224.526 97.966 222.086 96.9054 219.831 95.8448L223.235 89.5373C225.511 90.3188 227.746 91.2119 230.247 92.2352C237.546 95.175 243.923 98.245 247.655 100.459L245.728 104.255Z" fill="#464E74"/>
<path d="M247.839 86.3557H257.435" stroke="#464E74" stroke-width="5" stroke-miterlimit="10" stroke-linecap="round"/>
<path d="M349.047 232.898C351.754 232.898 353.948 224.593 353.948 214.348C353.948 204.103 351.754 195.798 349.047 195.798C346.341 195.798 344.147 204.103 344.147 214.348C344.147 224.593 346.341 232.898 349.047 232.898Z" fill="white"/>
<path d="M353.948 214.348C353.948 217.53 353.743 220.525 353.353 223.149C352.082 226.089 349.478 228.414 346.197 229.512C344.865 229.959 343.409 230.219 341.891 230.219H323.294C320.957 230.219 319.05 231.95 319.05 234.071V234.592C319.05 237.699 315.4 239.708 312.366 238.257L303.631 234.108C302.073 233.364 301.089 231.894 301.089 230.294V224.098C301.089 221.772 302.298 219.595 304.328 218.2L317.656 209.101C319.911 207.557 322.659 206.738 325.468 206.738H353.497C353.804 209.064 353.948 211.632 353.948 214.348Z" fill="#FEC8C2"/>
<path d="M321.018 212.729L308.777 221.084C306.911 222.367 305.804 224.377 305.804 226.498V232.191C305.804 233.661 306.706 235.02 308.142 235.689" stroke="#464E74" stroke-width="5" stroke-miterlimit="10" stroke-linecap="round"/>
<path d="M327.252 215.222L315.011 223.577C313.145 224.861 312.038 226.87 312.038 228.991V234.685C312.038 236.155 312.94 237.513 314.375 238.183" stroke="#464E74" stroke-width="5" stroke-miterlimit="10" stroke-linecap="round"/>
<path d="M353.948 214.348C353.948 217.53 353.743 220.525 353.353 223.149C352.082 226.089 349.478 228.414 346.197 229.512C344.946 226.144 344.126 220.618 344.126 214.348C344.126 211.632 344.29 209.064 344.557 206.738H353.517C353.804 209.064 353.948 211.632 353.948 214.348Z" fill="#464E74"/>
<path d="M389.563 241.383C401.838 241.383 411.79 240.625 411.79 239.69C411.79 238.755 401.838 237.997 389.563 237.997C377.288 237.997 367.337 238.755 367.337 239.69C367.337 240.625 377.288 241.383 389.563 241.383Z" fill="#FFCF2D"/>
<path d="M408.058 240.974H398.872C390.342 240.974 383.453 234.703 383.453 226.982V215.092H423.497V226.963C423.497 234.703 416.587 240.974 408.058 240.974Z" fill="white" stroke="#FFCF2D" stroke-width="6" stroke-miterlimit="10"/>
<path d="M429.095 225.27H423.477V216.209H429.095C431.494 216.209 433.462 217.976 433.462 220.172V221.325C433.462 223.502 431.494 225.27 429.095 225.27Z" stroke="#FFCF2D" stroke-width="6" stroke-miterlimit="10"/>
<path d="M403.465 218.627C414.619 218.627 423.661 216.986 423.661 214.962C423.661 212.938 414.619 211.297 403.465 211.297C392.311 211.297 383.268 212.938 383.268 214.962C383.268 216.986 392.311 218.627 403.465 218.627Z" fill="#799DE8" stroke="white" stroke-width="5" stroke-miterlimit="10"/>
<path d="M383.473 217.939C383.473 219.967 392.434 221.604 403.465 221.604C414.496 221.604 423.456 219.967 423.456 217.939" stroke="#FFCF2D" stroke-width="6" stroke-miterlimit="10"/>
<path d="M383.473 221.828C383.473 223.856 392.434 225.493 403.465 225.493C414.496 225.493 423.456 223.856 423.456 221.828" stroke="#FFCF2D" stroke-width="6" stroke-miterlimit="10"/>
<path d="M383.473 225.716C383.473 227.745 392.434 229.382 403.465 229.382C414.496 229.382 423.456 227.745 423.456 225.716" stroke="#FFCF2D" stroke-width="6" stroke-miterlimit="10"/>
<path d="M383.781 229.605C383.781 231.633 392.598 233.271 403.465 233.271C414.332 233.271 423.149 231.633 423.149 229.605" stroke="#FFCF2D" stroke-width="6" stroke-miterlimit="10"/>
<path d="M385.319 233.494C385.319 235.522 393.438 237.159 403.465 237.159C413.491 237.159 421.611 235.522 421.611 233.494" stroke="#FFCF2D" stroke-width="6" stroke-miterlimit="10"/>
<path d="M402.665 208.45C400.697 207.222 394.566 195.518 402.153 190.737C407.976 187.053 409.103 196.598 406.417 195.798C401.742 194.402 398.892 175.721 411.092 176.875C416.464 177.377 415.87 184.318 411.092 184.504" stroke="white" stroke-width="5" stroke-miterlimit="10" stroke-linecap="round"/>
<path d="M164.203 263.115H63.4263C60.7198 263.115 58.3003 261.627 57.2956 259.357L29.7177 197.509C28.4054 194.551 30.8044 191.313 34.3106 191.313H135.088C137.794 191.313 140.214 192.802 141.218 195.072L168.796 256.919C170.129 259.878 167.73 263.115 164.203 263.115Z" fill="white" stroke="#FFCF2D" stroke-width="6" stroke-miterlimit="10"/>
<path d="M159.529 263.562H63.3853C60.8223 263.562 58.5054 262.147 57.5417 259.989L31.235 200.989C29.9843 198.161 32.2603 195.091 35.6229 195.091H131.766C134.329 195.091 136.646 196.505 137.61 198.663L163.916 257.663C165.167 260.492 162.871 263.562 159.529 263.562Z" fill="#FFCF2D"/>
<path d="M100.498 236.731C97.6681 236.731 95.0026 235.727 92.9932 233.903C91.3529 232.415 90.4507 230.442 90.4507 228.359C90.4507 226.256 91.3529 224.284 92.9932 222.814C94.3259 221.604 96.1098 220.935 97.9961 220.935C99.8825 220.935 101.666 221.604 102.999 222.814C105.275 224.879 105.275 228.228 102.999 230.294C101.113 232.005 98.0577 232.005 96.1713 230.294C95.8432 229.996 95.8432 229.531 96.1713 229.233C96.4994 228.935 97.012 228.935 97.34 229.233C98.5908 230.368 100.6 230.368 101.851 229.233C103.491 227.745 103.491 225.344 101.851 223.856C100.826 222.925 99.4519 222.405 97.9961 222.405C96.5404 222.405 95.1666 222.925 94.1414 223.856C92.8086 225.065 92.091 226.647 92.091 228.359C92.091 230.052 92.8291 231.652 94.1414 232.861C95.8432 234.406 98.0782 235.243 100.477 235.243C102.876 235.243 105.132 234.406 106.813 232.861C107.141 232.564 107.654 232.564 107.982 232.861C108.31 233.159 108.31 233.624 107.982 233.922C105.993 235.727 103.327 236.731 100.498 236.731Z" fill="white"/>
<path d="M200.27 269.664H63.5494C61.9706 269.664 60.6993 268.511 60.6993 267.078V265.831C60.6993 264.399 61.9706 263.245 63.5494 263.245H200.27C201.849 263.245 203.12 264.399 203.12 265.831V267.078C203.1 268.511 201.828 269.664 200.27 269.664Z" fill="white" stroke="#FFCF2D" stroke-width="6" stroke-miterlimit="10"/>
</svg>
