<svg width="44" height="45" viewBox="0 0 44 45" fill="none" xmlns="http://www.w3.org/2000/svg">
<path d="M32.8878 29.5396C31.4992 29.5396 30.2567 30.0877 29.3067 30.9464L16.2794 23.364C16.3708 22.9438 16.4439 22.5235 16.4439 22.085C16.4439 21.6465 16.3708 21.2263 16.2794 20.8061L29.1605 13.2967C30.1471 14.2102 31.4444 14.7766 32.8878 14.7766C35.9207 14.7766 38.3691 12.3283 38.3691 9.29533C38.3691 6.26235 35.9207 3.81404 32.8878 3.81404C29.8548 3.81404 27.4065 6.26235 27.4065 9.29533C27.4065 9.73384 27.4796 10.1541 27.5709 10.5743L14.6899 18.0837C13.7032 17.1701 12.406 16.6037 10.9626 16.6037C7.92961 16.6037 5.4813 19.052 5.4813 22.085C5.4813 25.118 7.92961 27.5663 10.9626 27.5663C12.406 27.5663 13.7032 26.9999 14.6899 26.0864L27.6988 33.6871C27.6075 34.0708 27.5526 34.4727 27.5526 34.8747C27.5526 37.8163 29.9461 40.2098 32.8878 40.2098C35.8294 40.2098 38.2229 37.8163 38.2229 34.8747C38.2229 31.9331 35.8294 29.5396 32.8878 29.5396Z" fill="#4361EE"/>
</svg>
